**ABCDEFGHIJKLMNOPQRSTUVWXYZabcdefghijklmnopqrstuvwxyz**************************
**PARASOLID !"#$%&'()*+,-./:;<=>?@[\]^_`{|}~0123456789**************************
**PART1;
MC=AMD64;
MC_MODEL=Intel64 Family 6 Model 158 Stepping 10, GenuineIntel;
MC_ID=unknown;
OS=Windows_NT;
OS_RELEASE=unknown;
FRU=Parasolid Version 31.1, build 290,  3- 9-2020;
APPL=SOLIDWORKS 2020-2020196;
SITE=;
USER=unknown;
FORMAT=text;
GUISE=transmit;
KEY=CAP 1206;
FILE=CAP 1206.x_t;
DATE=Sat Mar 27 03:13:50 2021;
**PART2;
SCH=SCH_3101290_31100;
USFLD_SIZE=0;
**PART3;
**END_OF_HEADER*****************************************************************
T51 : TRANSMIT FILE created by modeller version 310129017 SCH_2800000_280020 12
 1 2455 2 3 0 0 0 0 1e3 1e-8 0 4 0 1 0 1 1 5 6 7 8 9 10 11 0 0 0 0 0 0 0 81 2 2
 2401 12 1 13 0 0 0 0 14 70 3 0 4 T1 0 0 10 20 1 15 15 13 5 1110 0 1 0 16 0 0 17
 0 68 6 1102 0 16 18 0 0 +7 .001588 .001612 -8e-4 1 0 0 .0016 .001612 -8e-4 .001
576 .001612 -8e-4 0 3.141592653589795 0 0 -1 ?31 7 1106 0 1 19 0 20 +.001588 .00
1612 -8e-4 0 1 0 1 0 0 12e-6 29 8 892 0 21 22 0 .0016 .001612 -8e-4 19 9 1111 0
 1 17 0 23 V0 16 10 21 0 ?24 0 25 26 0 0 1 18 11 17 0 27 0 28 29 ?1 17 27 0 30 3
1 32 11 33 34 0 35 +18 28 13 0 36 11 37 38 ?1 29 29 34 0 11 0 38 -.0011 12e-6 8e
-4 29 38 37 0 28 29 39 .0011 12e-6 8e-4 29 39 40 0 40 38 41 -.0011 .001612 8e-4
 18 40 7 0 42 37 43 39 ?1 29 41 41 0 37 39 44 .0011 .001612 8e-4 18 37 9 0 45 28
 40 41 ?1 29 44 65 0 43 41 46 -.001112 .001612 812e-6 18 43 53 0 47 40 48 44 ?1
 29 46 63 0 48 44 49 -.001112 12e-6 812e-6 18 48 56 0 50 43 51 46 ?1 29 49 86 0
 51 46 52 -.0011 12e-6 -8e-4 18 51 74 0 53 48 54 49 ?1 29 52 85 0 54 49 55 .0011
 12e-6 -8e-4 18 54 75 0 56 51 57 52 ?1 29 55 106 0 57 52 58 .001112 .001612 812e
-6 18 57 96 0 59 54 60 55 ?1 29 58 104 0 60 55 61 .001112 12e-6 812e-6 18 60 97
 0 62 57 63 58 ?1 29 61 126 0 64 58 65 -.0011 .001612 -8e-4 18 64 119 0 66 63 67
 61 ?1 29 65 125 0 63 61 68 .0011 .001612 -8e-4 18 63 118 0 69 60 64 65 ?1 29 68
 148 0 67 65 70 -.001588 .001612 812e-6 18 67 138 0 71 64 72 68 ?1 29 70 146 0 7
2 68 73 -.001588 12e-6 812e-6 18 72 139 0 74 67 75 70 ?1 29 73 166 0 75 70 76 -.
001112 .001624 .000800000000000016 18 75 159 0 77 72 78 73 ?1 29 76 183 0 78 73
 79 -.001112 857620859094979e-35 8e-4 18 78 176 0 80 75 81 76 ?1 29 79 205 0 81
 76 82 -.001112 170465380634928e-34 -8e-4 18 81 195 0 83 78 84 79 ?1 29 82 247 0
 84 79 85 .001112 449986253228847e-34 8e-4 18 84 237 0 86 81 87 82 ?1 29 85 245
 0 87 82 88 .001112 783505476210228e-35 -8e-4 18 87 238 0 89 84 90 85 ?1 29 88 2
66 0 90 85 91 .001112 .001624 8e-4 18 90 256 0 92 87 93 88 ?1 29 91 287 0 93 88
 94 .001588 .001612 812e-6 18 93 275 0 95 90 96 91 ?1 29 94 286 0 96 91 97 .0015
88 12e-6 812e-6 18 96 276 0 98 93 99 94 ?1 29 97 323 0 99 94 100 -.001112 .00162
4 -8e-4 18 99 316 0 101 96 102 97 ?1 29 100 345 0 102 97 103 .001112 .001624 -.0
00800000000000032 18 102 338 0 104 99 105 100 ?1 29 103 366 0 105 100 106 -.0015
88 .001624 8e-4 18 105 359 0 107 102 108 103 ?1 29 106 389 0 108 103 109 -.0016
 .001612 8e-4 18 108 377 0 110 105 111 106 ?1 29 109 387 0 111 106 112 -.0016 12
e-6 8e-4 18 111 380 0 113 108 114 109 ?1 29 112 407 0 114 109 115 -.001588 -3282
252670610415e-35 8e-4 18 114 400 0 116 111 117 112 ?1 29 115 428 0 117 112 118 -
.001112 12e-6 -812e-6 18 117 418 0 119 114 120 115 ?1 29 118 449 0 120 115 121 -
.001588 -42351647362715e-35 -8e-4 18 120 437 0 122 117 123 118 ?1 29 121 469 0 1
23 118 124 -.001112 .001612 -812e-6 18 123 459 0 125 120 126 121 ?1 29 124 491 0
 126 121 127 .001112 .001612 -812e-6 18 126 479 0 128 123 129 124 ?1 29 127 489
 0 129 124 130 .001112 12e-6 -812e-6 18 129 482 0 131 126 132 127 ?1 29 130 512
 0 132 127 133 .001588 -42351647362715e-35 -8e-4 18 132 500 0 134 129 135 130 ?1
 29 133 510 0 135 130 136 .001588 1821120836596745e-35 8e-4 18 135 503 0 137 132
 138 133 ?1 29 136 548 0 138 133 139 .001588 .001624 8e-4 18 138 541 0 140 135 1
41 136 ?1 29 139 571 0 141 136 142 .0016 .001612 8e-4 18 141 561 0 143 138 144 1
39 ?1 29 142 613 0 144 139 145 -.001588 .001624 -8e-4 18 144 603 0 146 141 147 1
42 ?1 29 145 651 0 147 142 148 .001588 .001624 -8e-4 18 147 644 0 149 144 150 14
5 ?1 29 148 710 0 150 145 151 -.0016 .001612 -8e-4 18 150 698 0 152 147 153 148
 ?1 29 151 709 0 153 148 154 -.0016 12e-6 -8e-4 18 153 699 0 155 150 156 151 ?1
 29 154 746 0 156 151 157 -.001588 12e-6 -812e-6 18 156 739 0 158 153 159 154 ?1
 29 157 788 0 159 154 160 -.001588 .001612 -812e-6 18 159 781 0 161 156 162 157
 ?1 29 160 812 0 162 157 163 .001588 12e-6 -812e-6 18 162 800 0 164 159 165 160
 ?1 29 163 811 0 165 160 166 .001588 .001612 -812e-6 18 165 801 0 167 162 168 16
3 ?1 29 166 832 0 168 163 22 .0016 12e-6 8e-4 18 168 822 0 169 165 170 166 ?1 29
 22 830 0 170 166 8 .0016 12e-6 -8e-4 18 170 823 0 171 168 21 22 ?1 17 171 0 172
 173 174 170 164 175 0 176 -18 21 882 0 177 170 0 8 ?1 17 177 0 178 179 180 21 1
81 182 0 183 +15 178 1038 0 177 184 0 17 179 0 178 164 177 170 183 185 0 186 -17
 180 0 178 177 164 165 187 188 0 0 -17 181 0 189 190 191 165 177 182 0 180 -16 1
82 1040 0 ?177 192 175 193 0 0 1 17 183 0 194 143 186 21 179 185 0 191 +15 194 8
76 0 143 195 0 17 143 0 194 196 183 141 197 198 0 199 +17 186 0 194 183 196 170
 169 200 0 0 -16 185 879 0 ?183 198 201 202 0 0 1 17 191 0 189 181 190 21 149 20
3 0 197 -15 189 1095 0 181 16 0 17 190 0 189 191 181 147 167 204 0 205 -17 149 0
 206 207 197 147 191 203 0 190 +16 203 959 0 ?149 208 204 209 0 0 1 17 197 0 206
 149 210 21 143 198 0 0 -15 206 957 0 149 211 0 17 210 0 206 197 207 141 140 212
 0 213 -16 198 878 0 ?143 212 185 214 0 0 1 16 212 860 0 ?140 215 198 216 0 0 1
 30 214 888 0 198 216 202 0 -.0016 .001612 8e-4 0 0 -1 31 216 867 0 212 217 214
 0 +.001588 .001612 8e-4 0 612323399573677e-31 1 1 0 0 12e-6 30 202 887 0 185 21
4 218 0 +.0016 12e-6 -8e-4 0 1 0 31 218 908 0 1 202 219 220 +.001588 12e-6 8e-4
 0 1 0 1 0 0 12e-6 31 219 925 0 201 218 221 0 --.001588 .001612 -8e-4 -1 0 0 0 0
 1 12e-6 141 220 222 220 220 218 68 222 904 0 223 224 225 0 +218 .001588 12e-6 8
e-4 1 0 0 .0016 12e-6 8e-4 .001576 12e-6 8e-4 0 3.141592653589795 0 0 -1 ?14 223
 895 226 1e-8 195 227 228 5 222 +0 0 227 195 23 50 224 885 0 195 229 222 0 +.001
6 12e-6 8e-4 1 0 0 0 0 -1 51 225 924 0 227 222 230 0 +-.0011 .001612 -8e-4 -1 0
 0 12e-6 0 0 1 14 227 913 231 1e-8 223 232 233 5 225 +0 0 232 223 23 51 230 945
 0 232 225 234 0 +-.001588 .001612 -812e-6 0 0 1 12e-6 1 0 0 14 232 934 235 1e-8
 227 211 236 5 230 +0 0 211 227 23 51 234 966 0 211 230 237 0 +.001588 .001612 8
e-4 0 0 1 12e-6 1 0 0 14 211 955 238 1e-8 232 239 206 5 234 +0 0 239 232 23 51 2
37 987 0 239 234 240 0 +.0011 .001612 -8e-4 1 0 0 12e-6 0 0 -1 14 239 976 241 1e
-8 211 242 243 5 237 +0 0 242 211 23 51 240 1008 0 242 237 244 0 +-.001588 80113
4610210964e-36 -8e-4 0 1 -667612175175803e-31 12e-6 0 667612175175803e-31 1 14 2
42 997 245 1e-8 239 246 247 5 240 +0 0 246 239 23 68 244 1027 0 246 240 248 0 +2
49 -.001588 12e-6 -8e-4 1 0 0 -.001576 12e-6 -8e-4 -.0016 12e-6 -8e-4 0 3.141592
653589795 0 0 -1 ?14 246 1018 250 1e-8 242 184 251 5 244 +0 0 184 242 23 51 248
 1047 0 184 244 252 0 +.001588 12e-6 -8e-4 0 1 -667612175175803e-31 12e-6 0 6676
12175175803e-31 1 31 249 1031 0 1 253 193 254 +-.001588 12e-6 -8e-4 0 1 0 1 0 0
 12e-6 31 253 1009 0 192 255 249 0 +-.001588 12e-6 -8e-4 0 1 -667612175175803e-3
1 0 667612175175803e-31 1 12e-6 31 193 1050 0 182 249 256 0 -.001588 .001612 -8e
-4 0 1 -667612175175803e-31 0 667612175175803e-31 1 12e-6 141 254 244 254 254 24
9 31 256 1048 0 175 193 257 0 +.001588 12e-6 -8e-4 0 1 -667612175175803e-31 0 66
7612175175803e-31 1 12e-6 16 175 1042 0 ?164 182 0 256 0 0 1 31 257 1070 0 1 256
 19 258 +.001588 12e-6 -8e-4 0 1 0 1 0 0 12e-6 31 19 1088 0 1 257 7 259 +-.00158
8 .001612 -8e-4 0 1 0 1 0 0 12e-6 141 258 252 258 258 257 68 252 1066 0 260 248
 18 0 +257 .001588 12e-6 -8e-4 1 0 0 .0016 12e-6 -8e-4 .001576 12e-6 -8e-4 0 3.1
41592653589795 0 0 -1 ?14 260 1057 261 1e-8 184 262 172 5 252 +0 0 262 184 23 68
 18 1084 0 262 252 6 0 +19 -.001588 .001612 -8e-4 1 0 0 -.001576 .001612 -8e-4 -
.0016 .001612 -8e-4 0 3.141592653589795 0 0 -1 ?14 262 1075 263 1e-8 260 16 264
 5 18 +0 0 16 260 23 81 1 263 2410 265 262 266 0 261 267 268 14 16 1093 267 1e-8
 262 0 189 5 6 +0 0 0 262 23 15 264 1077 0 269 262 0 13 23 3 0 0 0 0 0 0 9 270 1
4 270 2 271 1e-8 0 272 273 5 274 -0 0 272 0 23 81 1 271 2412 265 270 275 0 267 2
76 277 14 272 46 276 1e-8 270 278 279 5 280 +0 0 278 270 23 15 273 8 0 281 270 0
 50 274 6 0 270 0 280 0 +.0016 .001612 8e-4 0 67762635780344e-30 -1 0 1 67762635
780344e-30 51 280 57 0 272 274 282 0 +-.001112 .001624 8e-4 0 -1 -66761217517580
3e-31 12e-6 0 667612175175803e-31 -1 50 282 78 0 278 280 283 0 +.0016 12e-6 8e-4
 0 1 0 0 0 1 14 278 67 284 1e-8 272 285 286 5 282 -0 0 285 272 23 51 283 99 0 28
5 282 287 0 +.001112 .001624 8e-4 0 1 667612175175803e-31 12e-6 0 -6676121751758
03e-31 1 14 285 88 288 1e-8 278 289 290 5 283 +0 0 289 278 23 50 287 120 0 289 2
83 291 0 +.0016 .001612 -8e-4 0 -1 0 0 0 -1 14 289 109 292 1e-8 285 293 294 5 28
7 -0 0 293 285 23 50 291 141 0 293 287 295 0 +-.0011 .001624 812e-6 0 6676121751
75803e-31 -1 0 1 667612175175803e-31 14 293 130 296 1e-8 289 297 298 5 291 -0 0
 297 289 23 68 295 160 0 297 291 299 0 +300 -.001112 .001612 8e-4 1 0 0 -.0011 .
001612 8e-4 -.001124 .001612 8e-4 0 3.141592653589795 0 0 -1 ?14 297 151 301 1e-
8 293 302 303 5 295 +0 0 302 293 23 68 299 178 0 302 295 304 0 +305 -.001112 12e
-6 8e-4 1 0 0 -.0011 12e-6 8e-4 -.001124 12e-6 8e-4 0 3.141592653589795 0 0 -1 ?
31 300 164 0 1 306 307 308 +-.001112 .001612 8e-4 0 1 0 1 0 0 12e-6 30 306 142 0
 309 310 300 0 --.0011 12e-6 812e-6 1 0 0 31 307 163 0 311 300 312 0 +-.001112 .
001612 8e-4 0 -106460893953956e-25 1 1 0 0 12e-6 141 308 295 308 308 300 16 311
 154 0 ?313 309 314 307 0 0 1 31 312 161 0 314 307 305 0 +-.001112 .001612 8e-4
 1 0 0 0 0 -1 12e-6 16 314 156 0 ?47 311 34 312 0 0 1 31 305 182 0 1 312 315 316
 +-.001112 12e-6 8e-4 0 1 0 1 0 0 12e-6 31 315 180 0 34 305 317 0 --.001112 12e-
6 8e-4 0 -183697019872103e-30 -1 1 0 0 12e-6 141 316 299 316 316 305 16 34 173 0
 ?27 314 318 315 0 0 1 31 317 179 0 318 315 319 0 +-.001112 12e-6 8e-4 1 0 0 0 0
 -1 12e-6 16 318 174 0 ?32 34 320 317 0 0 1 31 319 201 0 320 317 321 0 --.001112
 12e-6 -8e-4 0 0 -1 -1 0 0 12e-6 16 320 191 0 ?322 318 323 319 0 0 1 30 321 200
 0 323 319 324 0 +-.001112 0 812e-6 0 0 -1 16 323 192 0 ?325 320 326 321 0 0 1 3
0 324 223 0 326 321 327 0 +-.0011 12e-6 -8e-4 0 -1 67762635780344e-30 16 326 211
 0 ?328 323 329 324 0 0 1 30 327 221 0 329 324 330 0 -.0011 12e-6 -8e-4 0 -1 677
62635780344e-30 16 329 213 0 ?331 326 332 327 0 0 1 31 330 243 0 332 327 333 0 -
.001112 12e-6 8e-4 0 0 1 1 0 0 12e-6 16 332 233 0 ?36 329 334 330 0 0 1 30 333 2
42 0 334 330 335 0 +.001112 -745388993583784e-34 812e-6 0 0 1 16 334 234 0 ?336
 332 337 333 0 0 1 31 335 241 0 337 333 338 0 +.001112 12e-6 -8e-4 0 0 1 1 0 0 1
2e-6 16 337 235 0 ?339 334 340 335 0 0 1 31 338 263 0 1 335 341 342 +.001112 .00
1612 8e-4 0 1 0 1 0 0 12e-6 31 341 262 0 340 338 343 0 +.001112 .001612 8e-4 0 8
94301653695862e-29 1 1 0 0 12e-6 141 342 344 342 342 338 68 344 259 0 345 346 34
7 0 +338 .001112 .001612 8e-4 1 0 0 .001124 .001612 8e-4 .0011 .001612 8e-4 0 3.
141592653589795 0 0 -1 ?14 345 250 348 1e-8 349 350 351 5 344 +0 0 350 349 23 51
 346 240 0 349 352 344 0 +.001112 12e-6 812e-6 0 0 1 12e-6 1 0 0 50 347 279 0 35
0 344 353 0 +.0011 .001624 812e-6 0 -667612175175803e-31 1 0 -1 -667612175175803
e-31 14 350 268 354 1e-8 345 355 356 5 347 +0 0 355 345 23 68 353 298 0 355 347
 357 0 +358 .001112 12e-6 8e-4 1 0 0 .001124 12e-6 8e-4 .0011 12e-6 8e-4 0 3.141
592653589795 0 0 -1 ?14 355 289 359 1e-8 350 360 361 5 353 +0 0 360 350 23 51 35
7 318 0 360 353 362 0 +-.001112 .001612 812e-6 0 0 1 12e-6 1 0 0 31 358 302 0 1
 363 364 365 +.001112 12e-6 8e-4 0 1 0 1 0 0 12e-6 30 363 281 0 366 367 358 0 +.
0011 12e-6 812e-6 1 0 0 31 364 300 0 368 358 369 0 -.001112 12e-6 8e-4 1 0 0 0 0
 -1 12e-6 141 365 353 365 365 358 16 368 293 0 ?62 366 370 364 0 0 1 30 369 320
 0 370 364 371 0 +-.001112 .001624 812e-6 0 0 1 16 370 312 0 ?77 368 372 369 0 0
 1 31 371 319 0 372 369 373 0 +-.001112 .001612 -8e-4 0 0 1 1 0 0 12e-6 16 372 3
13 0 ?374 370 375 371 0 0 1 30 373 343 0 375 371 376 0 +.001112 .001624 -812e-6
 0 0 -1 16 375 331 0 ?377 372 378 373 0 0 1 31 376 340 0 378 373 379 0 -.001112
 .001612 -8e-4 0 0 -1 -1 0 0 12e-6 16 378 334 0 ?69 375 380 376 0 0 1 30 379 364
 0 380 376 381 0 +-.0011 .001624 8e-4 -1 0 0 16 380 352 0 ?382 378 383 379 0 0 1
 31 381 361 0 383 379 384 0 --.001588 .001612 8e-4 -1 0 0 0 0 1 12e-6 16 383 355
 0 ?71 380 385 381 0 0 1 30 384 385 0 385 381 386 0 +-.0016 .001624 8e-4 0 -1 -6
67612175175803e-31 16 385 373 0 ?387 383 388 384 0 0 1 31 386 384 0 388 384 389
 0 +-.001588 .001612 8e-4 0 -1 -667612175175803e-31 0 667612175175803e-31 -1 12e
-6 16 388 374 0 ?390 385 391 386 0 0 1 31 389 382 0 391 386 392 0 --.001588 12e-
6 8e-4 0 -1 -667612175175803e-31 0 667612175175803e-31 -1 12e-6 16 391 376 0 ?74
 388 393 389 0 0 1 30 392 404 0 393 389 394 0 --.0011 33881317890172e-33 8e-4 -1
 0 0 16 393 396 0 ?80 391 395 392 0 0 1 31 394 403 0 395 392 396 0 --.001588 12e
-6 8e-4 -1 0 0 0 0 1 12e-6 16 395 397 0 ?397 393 398 394 0 0 1 31 396 425 0 1 39
4 399 400 +-.001112 12e-6 -8e-4 0 1 0 1 0 0 12e-6 31 399 424 0 398 396 401 0 --.
001112 12e-6 -8e-4 0 1 0 1 0 0 12e-6 141 400 402 400 400 396 68 402 421 0 403 40
4 405 0 +396 -.001112 12e-6 -8e-4 1 0 0 -.0011 12e-6 -8e-4 -.001124 12e-6 -8e-4
 0 3.141592653589795 0 0 -1 ?14 403 412 406 1e-8 407 408 409 5 402 +0 0 408 407
 23 51 404 402 0 407 410 402 0 +-.0011 12e-6 8e-4 -1 0 0 12e-6 0 0 1 50 405 441
 0 408 402 411 0 +-.0011 0 812e-6 0 1 0 0 0 1 14 408 430 412 1e-8 403 413 414 5
 405 -0 0 413 403 23 51 411 462 0 413 405 415 0 +-.001112 .001624 -8e-4 0 1 -667
612175175803e-31 12e-6 0 667612175175803e-31 1 14 413 451 416 1e-8 408 417 418 5
 411 +0 0 417 408 23 51 415 483 0 417 411 419 0 +.001112 801134610210964e-36 -8e
-4 0 -1 667612175175803e-31 12e-6 0 -667612175175803e-31 -1 14 417 472 420 1e-8
 413 421 422 5 415 +0 0 421 413 23 50 419 504 0 421 415 423 0 +.0011 0 812e-6 0
 -1 0 0 0 -1 14 421 493 424 1e-8 417 425 426 5 419 +0 0 425 417 23 68 423 523 0
 425 419 427 0 +428 .001112 12e-6 -8e-4 1 0 0 .001124 12e-6 -8e-4 .0011 12e-6 -8
e-4 0 3.141592653589795 0 0 -1 ?14 425 514 429 1e-8 421 430 431 5 423 +0 0 430 4
21 23 51 427 543 0 430 423 432 0 +.0011 .001612 8e-4 1 0 0 12e-6 0 0 -1 31 428 5
27 0 1 433 434 435 +.001112 12e-6 -8e-4 0 1 0 1 0 0 12e-6 30 433 505 0 436 437 4
28 0 -.0011 0 8e-4 1 0 0 31 434 524 0 438 428 439 0 -.001112 12e-6 -8e-4 1 0 0 0
 0 -1 12e-6 141 435 423 435 435 428 16 438 519 0 ?89 436 440 434 0 0 1 30 439 54
5 0 440 434 441 0 -.0011 .001624 8e-4 1 0 0 16 440 537 0 ?92 438 442 439 0 0 1 3
1 441 544 0 442 439 443 0 -.001588 .001612 8e-4 1 0 0 0 0 -1 12e-6 16 442 538 0
 ?444 440 445 441 0 0 1 31 443 567 0 445 441 446 0 +.001588 .001612 8e-4 0 -1 -6
67612175175803e-31 0 667612175175803e-31 -1 12e-6 16 445 557 0 ?95 442 447 443 0
 0 1 30 446 566 0 447 443 448 0 -.0016 12e-6 8e-4 0 -1 -667612175175803e-31 16 4
47 558 0 ?199 445 449 446 0 0 1 31 448 565 0 449 446 450 0 -.001588 12e-6 8e-4 0
 -1 -667612175175803e-31 0 667612175175803e-31 -1 12e-6 16 449 559 0 ?451 447 45
2 448 0 0 1 31 450 586 0 452 448 453 0 -.001588 12e-6 8e-4 1 0 0 0 0 -1 12e-6 16
 452 580 0 ?98 449 454 450 0 0 1 30 453 609 0 454 450 455 0 +-.0011 .001624 -8e-
4 1 0 0 16 454 599 0 ?456 452 457 453 0 0 1 30 455 608 0 457 453 458 0 +-.001588
 .001624 -812e-6 0 0 -1 16 457 600 0 ?459 454 460 455 0 0 1 31 458 629 0 1 455 4
61 462 +-.001112 .001612 -8e-4 0 1 0 1 0 0 12e-6 31 461 627 0 460 458 463 0 +-.0
01112 .001612 -8e-4 1 0 0 0 0 -1 12e-6 141 462 464 462 462 458 68 464 625 0 465
 466 467 0 +458 -.001112 .001612 -8e-4 1 0 0 -.0011 .001612 -8e-4 -.001124 .0016
12 -8e-4 0 3.141592653589795 0 0 -1 ?14 465 616 468 1e-8 469 470 471 5 464 +0 0
 470 469 23 50 466 606 0 469 472 464 0 +-.0011 .001624 -812e-6 0 -1 0 0 0 -1 50
 467 645 0 470 464 473 0 +.0011 .001624 -812e-6 0 1 0 0 0 1 14 470 634 474 1e-8
 465 475 476 5 467 +0 0 475 465 23 68 473 664 0 475 467 477 0 +478 .001112 .0016
12 -8e-4 1 0 0 .001124 .001612 -8e-4 .0011 .001612 -8e-4 0 3.141592653589795 0 0
 -1 ?14 475 655 479 1e-8 470 480 481 5 473 +0 0 480 470 23 68 477 682 0 480 473
 482 0 +483 -.001588 .001612 8e-4 1 0 0 -.001576 .001612 8e-4 -.0016 .001612 8e-
4 0 3.141592653589795 0 0 -1 ?31 478 668 0 1 484 485 486 +.001112 .001612 -8e-4
 0 1 0 1 0 0 12e-6 30 484 646 0 487 463 478 0 -.0011 .001624 -8e-4 1 0 0 31 485
 665 0 488 478 483 0 -.001112 .001612 -8e-4 1 0 0 0 0 -1 12e-6 141 486 473 486 4
86 478 16 488 660 0 ?128 487 489 485 0 0 1 31 483 686 0 1 485 490 491 +-.001588
 .001612 8e-4 0 1 0 1 0 0 12e-6 31 490 683 0 489 483 492 0 +-.001588 .001612 8e-
4 0 612323399573677e-31 1 1 0 0 12e-6 141 491 477 491 491 483 16 489 678 0 ?110
 488 493 490 0 0 1 30 492 706 0 493 490 494 0 --.0016 .001612 8e-4 0 0 -1 16 493
 694 0 ?495 489 496 492 0 0 1 30 494 705 0 496 492 497 0 +-.0016 12e-6 -8e-4 0 1
 0 16 496 695 0 ?498 493 499 494 0 0 1 30 497 704 0 499 494 500 0 +-.0016 12e-6
 8e-4 0 0 -1 16 499 696 0 ?501 496 502 497 0 0 1 31 500 725 0 1 497 503 504 +-.0
01588 12e-6 8e-4 0 1 0 1 0 0 12e-6 31 503 723 0 502 500 505 0 --.001588 12e-6 8e
-4 0 -183697019872103e-30 -1 1 0 0 12e-6 141 504 506 504 504 500 68 506 721 0 50
7 482 508 0 +500 -.001588 12e-6 8e-4 1 0 0 -.001576 12e-6 8e-4 -.0016 12e-6 8e-4
 0 3.141592653589795 0 0 -1 ?14 507 712 509 1e-8 510 511 512 5 506 +0 0 511 510
 23 50 482 702 0 510 477 506 0 +-.0016 12e-6 8e-4 1 0 0 0 0 -1 51 508 741 0 511
 506 513 0 +-.0011 12e-6 -8e-4 -1 0 0 12e-6 0 0 1 14 511 730 514 1e-8 507 515 51
6 5 508 +0 0 515 507 23 51 513 762 0 515 508 517 0 +-.001588 12e-6 812e-6 0 0 -1
 12e-6 -1 0 0 14 515 751 518 1e-8 511 519 520 5 513 +0 0 519 511 23 50 517 783 0
 519 513 521 0 +-.0011 0 -812e-6 0 667612175175803e-31 1 0 -1 667612175175803e-3
1 14 519 772 522 1e-8 515 523 524 5 517 -0 0 523 515 23 50 521 804 0 523 517 525
 0 +.0011 0 -812e-6 0 -667612175175803e-31 -1 0 1 -667612175175803e-31 14 523 79
3 526 1e-8 519 527 528 5 521 +0 0 527 519 23 51 525 825 0 527 521 529 0 +.001588
 12e-6 8e-4 0 0 -1 12e-6 -1 0 0 14 527 814 530 1e-8 523 531 532 5 525 +0 0 531 5
23 23 51 529 846 0 531 525 229 0 +.0011 12e-6 -8e-4 1 0 0 12e-6 0 0 -1 14 531 83
5 533 1e-8 527 534 535 5 529 +0 0 534 527 23 68 229 865 0 534 529 224 0 +217 .00
1588 .001612 8e-4 1 0 0 .0016 .001612 8e-4 .001576 .001612 8e-4 0 3.141592653589
795 0 0 -1 ?14 534 856 536 1e-8 531 195 537 5 229 +0 0 195 531 23 31 217 869 0 1
 538 216 539 +.001588 .001612 8e-4 0 1 0 1 0 0 12e-6 31 538 847 0 215 540 217 0
 -.001588 12e-6 -8e-4 1 0 0 0 0 -1 12e-6 141 539 229 539 539 217 16 215 841 0 ?1
34 541 212 538 0 0 1 31 540 826 0 541 542 538 0 -.001588 12e-6 -8e-4 0 0 -1 -1 0
 0 12e-6 16 541 820 0 ?176 200 215 540 0 0 1 30 542 827 0 200 543 540 0 -.0016 1
2e-6 8e-4 0 0 -1 16 200 819 0 ?169 544 541 542 0 0 1 31 543 828 0 544 545 542 0
 +.001588 12e-6 8e-4 0 0 -1 -1 0 0 12e-6 16 544 818 0 ?137 546 200 543 0 0 1 30
 545 806 0 546 547 543 0 +.0011 .001612 -812e-6 1 0 0 16 546 798 0 ?548 188 544
 545 0 0 1 30 547 807 0 188 549 545 0 -.001588 0 -812e-6 0 1 -667612175175803e-3
1 16 188 797 0 ?187 550 546 547 0 0 1 30 549 808 0 550 551 547 0 -.0011 12e-6 -8
12e-6 1 0 0 16 550 796 0 ?131 552 188 549 0 0 1 30 551 784 0 552 553 549 0 --.00
11 .001612 -812e-6 1 0 0 16 552 778 0 ?554 555 550 551 0 0 1 30 553 785 0 555 55
6 551 0 +-.001588 0 -812e-6 0 -1 667612175175803e-31 16 555 777 0 ?557 558 552 5
53 0 0 1 31 556 763 0 558 559 553 0 --.001588 12e-6 -8e-4 0 0 -1 -1 0 0 12e-6 16
 558 757 0 ?122 560 555 556 0 0 1 31 559 742 0 560 505 556 0 --.001588 12e-6 -8e
-4 -1 0 0 0 0 1 12e-6 16 560 736 0 ?561 562 558 559 0 0 1 30 505 743 0 562 503 5
59 0 --.0011 12e-6 -812e-6 -1 0 0 16 562 735 0 ?119 502 560 505 0 0 1 17 119 0 5
16 563 561 117 564 562 0 565 +16 502 716 0 ?116 499 562 503 0 0 1 17 116 0 512 5
66 567 114 568 502 0 397 +15 512 714 0 116 507 0 17 566 0 512 567 116 72 397 395
 0 569 -17 567 0 512 116 566 111 74 391 0 0 -17 568 0 520 501 570 111 116 502 0
 387 -17 397 0 571 80 572 114 566 395 0 570 +15 571 393 0 573 407 0 17 80 0 571
 573 397 78 574 393 0 32 +17 572 0 571 397 573 72 50 309 0 0 +17 570 0 520 568 1
22 114 575 576 0 574 +15 520 753 0 568 515 0 17 122 0 520 570 501 120 577 558 0
 578 +17 575 0 414 83 574 120 570 576 0 579 -16 576 433 0 ?570 580 581 582 0 0 1
 17 574 0 414 575 583 114 80 393 0 0 -15 414 432 0 83 408 0 17 583 0 414 574 83
 78 325 323 0 33 -17 83 0 414 583 575 81 579 581 0 325 -17 325 0 584 322 33 81 5
83 323 0 563 +17 33 0 584 325 585 78 27 34 0 0 -15 584 189 0 322 586 0 17 585 0
 584 33 322 11 587 588 0 589 +17 322 0 584 585 325 51 590 320 0 328 +17 587 0 28
6 591 592 51 585 588 0 593 -16 588 70 0 ?585 594 595 596 0 0 1 17 589 0 273 281
 597 11 24 10 0 592 -17 281 0 273 598 589 28 592 25 0 599 -17 597 0 273 589 598
 40 600 601 0 602 -17 24 0 279 603 35 40 589 10 0 0 +17 592 0 286 587 604 11 281
 25 0 0 +15 286 69 0 591 278 0 17 604 0 286 592 591 28 605 606 0 607 -16 25 18 0
 ?592 10 608 609 0 0 1 16 608 14 0 ?599 25 601 610 0 0 1 30 609 33 0 25 26 610 0
 -.0016 12e-6 8e-4 1 0 0 30 26 31 0 10 0 609 0 +-.0011 .001612 8e-4 0 1 67762635
780344e-30 30 610 36 0 608 609 611 0 -.0011 .001612 8e-4 0 1 67762635780344e-30
 30 611 39 0 601 610 612 0 +.0016 .001612 8e-4 1 0 0 16 601 10 0 ?600 608 613 61
1 0 0 1 30 612 61 0 613 611 614 0 +-.001112 .001624 812e-6 0 -1 -667612175175803
e-31 16 613 49 0 ?615 601 616 612 0 0 1 31 614 60 0 616 612 617 0 +-.001112 .001
612 8e-4 0 -1 -667612175175803e-31 0 667612175175803e-31 -1 12e-6 16 616 50 0 ?6
03 613 594 614 0 0 1 31 617 58 0 594 614 596 0 --.001112 12e-6 8e-4 0 -1 -667612
175175803e-31 0 667612175175803e-31 -1 12e-6 16 594 52 0 ?35 616 588 617 0 0 1 3
0 596 82 0 588 617 618 0 +-.0011 12e-6 8e-4 0 0 1 30 618 81 0 595 596 619 0 -.00
16 12e-6 -8e-4 1 0 0 16 595 71 0 ?593 588 606 618 0 0 1 30 619 80 0 606 618 620
 0 -.0011 12e-6 8e-4 0 0 1 16 606 72 0 ?605 595 621 619 0 0 1 31 620 102 0 621 6
19 622 0 -.001112 .001612 8e-4 0 1 667612175175803e-31 0 -667612175175803e-31 1
 12e-6 16 621 92 0 ?623 606 624 620 0 0 1 30 622 101 0 624 620 625 0 +.001112 .0
01624 812e-6 0 1 667612175175803e-31 16 624 93 0 ?626 621 627 622 0 0 1 31 625 1
00 0 627 622 628 0 +.001112 12e-6 8e-4 0 1 667612175175803e-31 0 -66761217517580
3e-31 1 12e-6 16 627 94 0 ?629 624 630 625 0 0 1 30 628 124 0 630 625 631 0 +-.0
011 .001612 -8e-4 0 0 -1 16 630 112 0 ?632 627 633 628 0 0 1 30 631 122 0 633 62
8 634 0 -.0011 .001612 -8e-4 0 0 -1 16 633 114 0 ?635 630 636 631 0 0 1 30 634 1
21 0 636 631 637 0 +.0016 .001612 -8e-4 1 0 0 16 636 115 0 ?638 633 639 634 0 0
 1 30 637 144 0 639 634 310 0 +-.0011 .001612 812e-6 1 0 0 16 639 134 0 ?640 636
 641 637 0 0 1 30 310 143 0 641 637 306 0 +-.001588 .001624 812e-6 0 1 667612175
175803e-31 16 641 135 0 ?642 639 309 310 0 0 1 17 642 0 643 390 74 67 569 641 0
 0 +16 309 136 0 ?572 641 311 306 0 0 1 15 643 372 0 390 644 0 17 390 0 643 387
 642 108 645 388 0 495 +17 74 0 643 642 387 72 567 391 0 566 +17 569 0 298 50 64
6 72 642 641 0 572 -15 298 132 0 646 293 0 17 50 0 298 647 569 48 572 309 0 573
 -17 646 0 298 569 647 67 640 639 0 642 -17 647 0 298 646 50 43 615 613 0 0 -17
 640 0 648 649 71 43 646 639 0 647 +15 648 351 0 649 650 0 17 649 0 648 382 640
 75 47 314 0 0 -17 71 0 648 640 382 67 651 383 0 645 +17 382 0 648 71 649 105 65
2 380 0 651 +17 651 0 653 110 645 105 71 383 0 0 -17 645 0 653 651 110 67 390 38
8 0 646 -15 653 675 0 645 480 0 17 110 0 653 645 651 108 654 489 0 390 +17 654 0
 236 459 495 105 110 489 0 382 -15 236 936 0 654 232 0 17 459 0 236 152 654 144
 107 457 0 0 +17 495 0 236 654 152 108 655 493 0 656 +17 152 0 236 495 459 150 2
69 208 0 657 +17 655 0 658 659 656 150 495 493 0 498 -17 656 0 658 655 113 108 3
87 385 0 0 -15 658 693 0 659 510 0 17 113 0 658 656 659 111 501 499 0 568 -17 38
7 0 643 74 390 111 656 385 0 567 +17 659 0 658 113 655 153 498 496 0 501 -17 501
 0 520 122 568 153 113 499 0 0 +17 498 0 247 161 155 150 659 496 0 0 +15 247 999
 0 161 242 0 17 161 0 247 557 498 159 657 660 0 661 +17 155 0 247 498 557 153 15
8 192 0 577 +17 557 0 247 155 161 156 662 555 0 564 +17 158 0 251 578 577 156 15
5 192 0 561 -16 192 1003 0 ?155 660 182 253 0 0 1 17 577 0 251 158 578 153 122 5
58 0 659 -15 251 1020 0 577 246 0 17 578 0 251 577 158 120 561 560 0 575 -17 561
 0 516 119 579 156 578 560 0 557 +15 516 732 0 563 511 0 17 579 0 516 561 563 12
0 83 581 0 0 +17 563 0 516 579 119 81 565 580 0 590 -16 581 434 0 ?579 576 663 6
64 0 0 1 16 663 455 0 ?66 581 665 666 0 0 1 30 664 444 0 581 582 666 0 --.0011 0
 -8e-4 1 0 0 30 582 445 0 576 401 664 0 +-.001588 0 812e-6 0 0 1 31 666 465 0 66
3 664 667 0 --.001112 .001612 -8e-4 0 1 -667612175175803e-31 0 667612175175803e-
31 1 12e-6 30 667 464 0 665 666 668 0 +-.001112 .001624 -812e-6 0 1 -66761217517
5803e-31 16 665 456 0 ?669 663 670 667 0 0 1 30 668 487 0 670 667 671 0 +.001112
 225694915357879e-50 -812e-6 0 -1 667612175175803e-31 16 670 475 0 ?672 665 673
 668 0 0 1 31 671 486 0 673 668 674 0 +.001112 .001612 -8e-4 0 -1 66761217517580
3e-31 0 -667612175175803e-31 -1 12e-6 16 673 476 0 ?675 670 676 671 0 0 1 31 674
 484 0 676 671 677 0 -.001112 12e-6 -8e-4 0 -1 667612175175803e-31 0 -6676121751
75803e-31 -1 12e-6 16 676 478 0 ?56 673 678 674 0 0 1 30 677 508 0 678 674 437 0
 -.001588 0 812e-6 0 0 -1 16 678 496 0 ?679 676 680 677 0 0 1 30 437 507 0 680 6
77 433 0 +.0011 0 -8e-4 1 0 0 16 680 497 0 ?681 678 436 437 0 0 1 17 681 0 426 6
79 682 132 683 680 0 173 +16 436 499 0 ?86 680 438 433 0 0 1 17 86 0 426 682 679
 84 684 436 0 336 +15 426 495 0 681 421 0 17 682 0 426 681 86 87 336 334 0 0 -17
 679 0 426 86 681 135 685 678 0 684 +17 684 0 686 98 687 135 86 436 0 0 -17 336
 0 688 36 339 84 682 334 0 687 +15 688 231 0 36 349 0 17 36 0 688 605 336 28 689
 332 0 604 +17 339 0 688 336 605 87 690 337 0 683 +17 687 0 686 684 691 84 62 36
8 0 689 -15 686 576 0 687 692 0 17 691 0 686 687 98 60 693 366 0 694 -17 62 0 36
1 607 689 60 687 368 0 629 +17 689 0 361 62 607 84 36 332 0 0 -15 361 291 0 62 3
55 0 17 607 0 361 689 62 28 629 627 0 281 -17 629 0 290 626 599 60 607 627 0 691
 +15 290 90 0 623 285 0 17 626 0 290 623 629 57 694 624 0 695 +17 599 0 290 629
 623 28 598 608 0 0 +17 623 0 290 599 626 37 696 621 0 635 +17 598 0 273 597 281
 37 599 608 0 600 -17 600 0 294 697 42 37 597 601 0 0 +15 294 111 0 600 289 0 17
 697 0 294 698 600 63 635 633 0 638 -17 42 0 294 600 698 40 632 630 0 699 -17 69
8 0 294 42 697 64 638 636 0 700 -17 632 0 701 374 699 64 42 630 0 0 +17 699 0 70
1 632 77 40 313 311 0 597 -15 701 309 0 699 360 0 17 77 0 701 699 374 75 702 370
 0 652 +17 313 0 303 47 602 75 699 311 0 649 +15 303 153 0 602 297 0 17 47 0 303
 602 313 43 649 314 0 603 +17 602 0 303 313 47 40 603 616 0 24 -17 603 0 279 615
 24 43 602 616 0 640 +15 279 48 0 603 272 0 17 615 0 279 35 603 48 647 613 0 31
 +17 35 0 279 24 615 11 31 594 0 585 +17 31 0 30 32 27 48 35 594 0 0 -15 30 171
 0 27 302 0 17 32 0 30 27 31 78 573 318 0 583 +17 573 0 571 572 80 48 32 318 0 6
15 -14 302 169 703 1e-8 297 586 30 5 299 +0 0 586 297 23 81 1 703 2439 265 302 7
04 0 536 705 706 14 586 187 705 1e-8 302 707 584 5 304 +0 0 707 302 23 81 1 705
 2440 265 586 708 0 703 709 710 14 707 208 709 1e-8 586 349 711 5 352 -0 0 349 5
86 23 51 304 198 0 586 299 352 0 +-.001112 12e-6 812e-6 0 0 -1 12e-6 -1 0 0 50 3
52 219 0 707 304 346 0 +.0016 12e-6 -8e-4 0 67762635780344e-30 1 0 -1 6776263578
0344e-30 81 1 709 2441 265 707 712 0 705 713 714 14 349 229 713 1e-8 707 345 688
 5 346 +0 0 345 707 23 15 711 210 0 638 707 0 17 638 0 711 715 716 63 698 636 0
 0 +17 715 0 711 593 638 54 331 329 0 690 -17 716 0 711 638 593 64 328 326 0 698
 -17 593 0 711 716 715 51 591 595 0 0 +17 328 0 418 717 66 51 716 326 0 587 +15
 418 453 0 66 413 0 17 717 0 418 669 328 117 53 398 0 0 -17 66 0 418 328 669 64
 718 663 0 716 +17 669 0 418 66 717 123 719 665 0 720 +17 718 0 471 101 700 123
 66 663 0 0 -15 471 618 0 101 465 0 17 101 0 471 700 718 99 720 460 0 374 +17 70
0 0 471 718 101 64 374 372 0 632 -17 374 0 701 77 632 99 700 372 0 456 +17 456 0
 233 720 146 99 721 454 0 702 +15 233 915 0 720 227 0 17 720 0 233 554 456 123 1
01 460 0 718 -17 146 0 233 456 554 144 661 201 0 269 +17 721 0 722 107 702 144 4
56 454 0 459 -17 702 0 722 721 652 99 77 370 0 0 -15 722 597 0 721 469 0 17 652
 0 722 702 107 75 382 380 0 313 -17 107 0 722 652 721 105 459 457 0 654 -14 469
 595 723 1e-8 692 465 722 5 466 -0 0 465 692 23 81 1 723 2443 265 469 724 0 713
 725 726 14 692 574 725 1e-8 727 469 686 5 472 +0 0 469 727 23 81 1 725 2444 265
 692 728 0 723 729 730 14 727 553 729 1e-8 430 692 731 5 432 +0 0 692 430 23 51
 472 585 0 692 432 466 0 +.0011 12e-6 8e-4 1 0 0 12e-6 0 0 -1 51 432 564 0 727 4
27 472 0 +.001588 12e-6 8e-4 0 -1 -667612175175803e-31 12e-6 0 667612175175803e-
31 -1 81 1 729 2445 265 727 732 0 725 733 734 14 430 532 733 1e-8 425 727 735 5
 427 +0 0 727 425 23 15 731 555 0 95 727 0 17 95 0 731 736 199 93 213 445 0 737
 +17 736 0 731 451 95 96 737 738 0 0 -17 199 0 731 95 451 141 196 447 0 210 +17
 213 0 537 140 739 141 95 445 0 0 -17 737 0 356 59 693 93 736 738 0 739 +15 356
 270 0 737 350 0 17 59 0 356 694 737 57 740 741 0 626 +17 693 0 356 737 694 96 6
91 366 0 742 +16 738 272 0 ?737 741 366 367 0 0 1 17 739 0 537 213 140 93 444 44
2 0 740 -15 537 858 0 140 534 0 17 140 0 537 739 213 138 210 212 0 444 +17 444 0
 735 92 740 138 739 442 0 207 +17 740 0 735 444 695 93 59 741 0 0 -15 735 534 0
 695 430 0 17 695 0 735 740 92 57 743 744 0 696 -16 741 271 0 ?59 744 738 745 0
 0 1 16 744 254 0 ?743 340 741 343 0 0 1 30 745 283 0 741 343 367 0 -.0011 .0016
12 812e-6 1 0 0 31 343 261 0 744 341 745 0 -.001112 .001612 8e-4 1 0 0 0 0 -1 12
e-6 30 367 282 0 738 745 363 0 -.001588 .001624 812e-6 0 -1 -667612175175803e-31
 17 743 0 351 45 696 90 695 744 0 746 +16 340 253 0 ?45 337 744 341 0 0 1 17 45
 0 351 696 743 37 747 340 0 623 +15 351 252 0 743 345 0 17 696 0 351 743 45 57 6
23 621 0 0 -17 747 0 748 377 635 90 45 340 0 0 -15 748 330 0 747 749 0 17 377 0
 748 69 747 102 746 375 0 750 +17 635 0 748 747 69 37 697 633 0 598 +17 69 0 748
 635 377 63 750 378 0 751 +17 750 0 481 128 751 102 69 378 0 0 -17 751 0 481 750
 128 63 675 673 0 331 -15 481 657 0 751 475 0 17 128 0 481 751 750 126 752 488 0
 675 +17 675 0 422 672 331 126 751 673 0 753 +17 331 0 422 675 56 63 715 329 0 6
97 +15 422 474 0 675 417 0 17 56 0 422 331 672 54 754 676 0 715 +17 672 0 422 56
 675 129 755 670 0 754 +17 754 0 431 89 690 129 56 676 0 0 -15 431 516 0 690 425
 0 17 89 0 431 690 754 87 756 438 0 339 +17 690 0 431 754 89 54 339 337 0 591 -1
7 591 0 286 604 587 54 593 595 0 605 -17 605 0 688 339 36 54 604 606 0 0 +17 756
 0 535 757 683 129 89 438 0 672 -15 535 837 0 756 531 0 17 757 0 535 134 756 162
 131 550 0 0 -17 683 0 535 756 134 87 681 680 0 682 -17 134 0 535 683 757 132 17
4 215 0 681 +17 174 0 172 171 173 162 134 215 0 757 -15 172 1059 0 173 260 0 17
 173 0 172 174 171 132 176 541 0 685 -17 176 0 532 169 685 170 173 541 0 179 +17
 685 0 532 176 137 132 679 678 0 0 -15 532 816 0 137 527 0 17 137 0 532 685 169
 135 758 544 0 759 +17 169 0 532 137 176 168 186 200 0 196 +17 758 0 228 742 759
 168 137 544 0 0 -17 759 0 228 758 742 135 98 452 0 679 -15 228 897 0 758 223 0
 17 742 0 228 759 758 96 451 449 0 736 -17 98 0 686 691 684 96 759 452 0 693 +17
 451 0 731 199 736 168 742 449 0 758 +17 196 0 194 186 143 168 199 447 0 451 -17
 131 0 528 755 187 129 757 550 0 756 +15 528 795 0 187 523 0 17 755 0 528 548 13
1 126 672 670 0 0 -17 187 0 528 131 548 162 180 188 0 174 +17 548 0 528 187 755
 165 753 546 0 181 +17 753 0 243 752 167 126 548 546 0 755 -15 243 978 0 752 239
 0 17 752 0 243 760 753 102 128 488 0 377 -17 167 0 243 753 760 165 190 204 0 54
8 +17 760 0 243 167 752 147 104 487 0 0 -16 204 982 0 ?167 203 660 761 0 0 1 16
 660 1001 0 ?161 204 192 255 0 0 1 31 761 988 0 204 209 255 0 -.001588 .001612 -
8e-4 1 0 0 0 0 -1 12e-6 31 209 969 0 203 221 761 0 +.001588 .001612 -8e-4 0 0 1
 1 0 0 12e-6 31 255 1011 0 660 761 253 0 --.001588 .001612 -8e-4 0 1 -6676121751
75803e-31 0 667612175175803e-31 1 12e-6 31 221 946 0 208 219 209 0 +-.001588 .00
1612 -8e-4 0 0 1 1 0 0 12e-6 16 208 940 0 ?152 201 203 221 0 0 1 16 201 919 0 ?1
46 185 208 219 0 0 1 17 104 0 476 746 205 102 760 487 0 752 +16 487 640 0 ?104 7
62 488 484 0 0 1 16 762 637 0 ?205 460 487 463 0 0 1 17 205 0 476 104 763 147 20
7 762 0 760 +16 460 620 0 ?101 457 762 461 0 0 1 30 463 649 0 762 461 484 0 -.00
1588 .001624 -812e-6 0 0 1 15 476 636 0 763 470 0 17 763 0 476 205 746 138 92 44
0 0 0 -17 207 0 206 210 149 138 205 762 0 763 -17 746 0 476 763 104 90 377 375 0
 747 -17 92 0 735 695 444 90 763 440 0 743 +14 749 328 764 1e-8 360 650 748 5 36
2 +0 0 650 360 23 81 1 764 2447 265 749 765 0 733 766 767 14 360 307 766 1e-8 35
5 749 701 5 357 +0 0 749 355 23 14 650 349 768 1e-8 749 644 648 5 769 +0 0 644 7
49 23 51 362 339 0 749 357 769 0 +.001112 .001612 -812e-6 0 0 -1 12e-6 -1 0 0 51
 769 360 0 650 362 410 0 +-.0011 .001612 8e-4 -1 0 0 12e-6 0 0 1 51 410 381 0 64
4 769 404 0 +-.001588 .001624 8e-4 0 -1 -667612175175803e-31 12e-6 0 66761217517
5803e-31 -1 14 644 370 770 1e-8 650 407 643 5 410 +0 0 407 650 23 81 1 770 2450
 265 644 771 0 768 772 773 14 407 391 772 1e-8 644 403 571 5 404 +0 0 403 644 23
 81 1 772 2451 265 407 774 0 770 775 776 80 1 265 777 778 9000 1 1 1 1 1 1 1 1 0
 FFFFTFTFFFFFFF1 81 1 774 2269 779 407 0 772 780 771 781 81 1 775 2452 265 480 7
82 0 772 783 784 82 1 776 -1671167857 14 480 673 775 1e-8 475 510 653 5 477 +0 0
 510 475 23 81 1 782 2255 779 480 0 775 785 786 787 81 1 783 2453 265 510 785 0
 775 788 789 82 1 784 -1669791601 14 510 691 783 1e-8 480 507 658 5 482 -0 0 507
 480 23 81 1 785 2254 779 510 0 783 790 782 791 81 1 788 2454 265 195 792 0 783
 793 794 82 1 789 -1669660529 14 195 874 788 1e-8 534 223 194 5 224 +0 0 223 534
 23 81 1 792 2245 779 195 0 788 795 796 797 81 1 793 2455 265 184 798 0 788 0 79
9 82 1 794 -1669005169 14 184 1036 793 1e-8 246 260 178 5 248 +0 0 260 246 23 81
 1 798 2237 779 184 0 793 800 801 802 82 1 799 -1668415345 80 1 779 0 803 8001 0
 0 0 0 3 5 0 0 0 FFFFTFTFFFFFFF2 81 1 800 2236 779 260 0 261 266 798 804 81 1 80
1 2238 779 246 0 250 798 805 806 83 3 802 .752941176470588 .752941176470588 .752
941176470588 81 1 250 2408 265 246 801 0 245 261 807 81 1 805 2239 779 242 0 245
 801 808 809 83 3 806 .752941176470588 .752941176470588 .752941176470588 81 1 24
5 2407 265 242 805 0 241 250 810 81 1 808 2240 779 239 0 241 805 811 812 83 3 80
9 .752941176470588 .752941176470588 .752941176470588 81 1 241 2406 265 239 808 0
 238 245 813 81 1 811 2241 779 211 0 238 808 814 815 83 3 812 .752941176470588 .
752941176470588 .752941176470588 81 1 238 2405 265 211 811 0 235 241 816 81 1 81
4 2242 779 232 0 235 811 817 818 83 3 815 .752941176470588 .752941176470588 .752
941176470588 81 1 235 2404 265 232 814 0 231 238 819 81 1 817 2243 779 227 0 231
 814 795 820 83 3 818 .752941176470588 .752941176470588 .752941176470588 81 1 23
1 2403 265 227 817 0 226 235 821 81 1 795 2244 779 223 0 226 817 792 822 83 3 82
0 .752941176470588 .752941176470588 .752941176470588 81 1 226 2402 265 223 795 0
 0 231 823 83 3 822 .752941176470588 .752941176470588 .752941176470588 82 1 823
 -1706098545 82 1 821 -1705901937 82 1 819 -1705770865 82 1 816 -1705639793 82 1
 813 -1705508721 82 1 810 -1705377649 81 1 261 2409 265 260 800 0 250 263 824 82
 1 807 -1705246577 82 1 824 -1704591217 81 1 266 2235 779 262 0 263 825 800 826
 83 3 804 .752941176470588 .752941176470588 .752941176470588 81 1 825 2234 779 1
6 827 267 0 266 828 83 3 826 .752941176470588 .752941176470588 .752941176470588
 81 1 827 2231 829 16 0 825 0 830 831 81 1 267 2411 265 16 825 0 263 271 832 83
 3 828 .752941176470588 .752941176470588 .752941176470588 82 1 832 -1704329073 8
0 1 829 833 834 8017 0 0 0 0 0 0 0 0 0 TTTTTTTTTTTTTF3 81 1 830 2233 829 1 835 1
3 827 0 836 84 4 831 NONE81 2 835 2232 837 1 838 830 0 0 0 839 81 2 13 2290 840
 1 830 2 0 0 0 0 84 7 836 Mirror180 2 840 841 842 9000 0 0 0 0 3 5 0 0 0 FFTFFFF
FFFFFFF9 1 79 16 842 BODY_RECIPE_200180 2 837 843 844 9000 0 0 0 0 3 5 0 0 0 FFT
FFFFFFFFFFF9 1 81 2 838 1285 845 1 846 835 0 0 847 0 82 1 839 1 80 2 845 848 849
 8004 0 0 0 0 3 5 0 0 0 FFTFFFFFFFFFFF2 3 81 1 846 1283 850 1 851 838 0 0 852 83
 1 847 78e2 80 1 850 853 854 9000 1 1 1 1 1 1 1 1 0 FFTFFFFFFFFFFF1 81 2 851 111
5 855 1 856 846 0 0 0 857 82 1 852 3054026 80 2 855 858 859 9000 0 0 0 0 3 5 0 0
 0 FFTFFFFFFFFFFT9 1 81 2 856 1114 860 1 0 851 0 0 0 861 82 1 857 111 80 2 860 8
62 863 9000 0 0 0 0 3 5 0 0 0 FFTFFFFFFFFFFF9 1 82 1 861 40 79 30 863 LAST_BODY_
MODIFYING_FEATURE_ID79 19 859 ENT_TIME_STAMP_200179 10 854 BODY_MATCH79 16 849 S
DL/TYSA_DENSITY79 24 844 BODY_IN_LIGHTWEIGHT_PERM79 13 834 SDL/TYSA_NAME79 15 80
3 SDL/TYSA_COLOUR81 1 796 2246 779 534 0 536 792 864 865 83 3 797 .7529411764705
88 .752941176470588 .752941176470588 81 1 536 2438 265 534 796 0 533 703 866 81
 1 864 2247 779 531 0 533 796 867 868 83 3 865 .752941176470588 .752941176470588
 .752941176470588 81 1 533 2437 265 531 864 0 530 536 869 81 1 867 2248 779 527
 0 530 864 870 871 83 3 868 .752941176470588 .752941176470588 .752941176470588 8
1 1 530 2436 265 527 867 0 526 533 872 81 1 870 2249 779 523 0 526 867 873 874 8
3 3 871 .752941176470588 .752941176470588 .752941176470588 81 1 526 2435 265 523
 870 0 522 530 875 81 1 873 2250 779 519 0 522 870 876 877 83 3 874 .75294117647
0588 .752941176470588 .752941176470588 81 1 522 2434 265 519 873 0 518 526 878 8
1 1 876 2251 779 515 0 518 873 879 880 83 3 877 .752941176470588 .75294117647058
8 .752941176470588 81 1 518 2433 265 515 876 0 514 522 881 81 1 879 2252 779 511
 0 514 876 790 882 83 3 880 .752941176470588 .752941176470588 .752941176470588 8
1 1 514 2432 265 511 879 0 509 518 883 81 1 790 2253 779 507 0 509 879 785 884 8
3 3 882 .752941176470588 .752941176470588 .752941176470588 81 1 509 2431 265 507
 790 0 479 514 885 83 3 884 .752941176470588 .752941176470588 .752941176470588 8
1 1 479 2430 265 475 786 0 474 509 886 82 1 885 -1694957425 81 1 786 2256 779 47
5 0 479 782 887 888 81 1 474 2429 265 470 887 0 468 479 889 82 1 886 -1696137073
 81 1 887 2257 779 470 0 474 786 890 891 81 1 468 2428 265 465 890 0 429 474 892
 82 1 889 -1696268145 81 1 890 2258 779 465 0 468 887 724 893 81 1 429 2427 265
 425 894 0 424 468 895 82 1 892 -1696464753 81 1 894 2263 779 425 0 429 896 897
 898 81 1 424 2426 265 421 897 0 420 429 899 82 1 895 -1698103153 81 1 897 2264
 779 421 0 424 894 900 901 81 1 420 2425 265 417 900 0 416 424 902 82 1 899 -169
8234225 81 1 900 2265 779 417 0 420 897 903 904 81 1 416 2424 265 413 903 0 412
 420 905 82 1 902 -1698365297 81 1 903 2266 779 413 0 416 900 906 907 81 1 412 2
423 265 408 906 0 406 416 908 82 1 905 -1698496369 81 1 906 2267 779 408 0 412 9
03 780 909 81 1 406 2422 265 403 780 0 359 412 910 82 1 908 -1698627441 81 1 780
 2268 779 403 0 406 906 774 911 81 1 359 2421 265 355 912 0 354 406 913 82 1 910
 -1698824049 81 1 912 2274 779 355 0 359 914 915 916 81 1 354 2420 265 350 915 0
 348 359 917 82 1 913 -1700855665 81 1 915 2275 779 350 0 354 912 918 919 81 1 3
48 2419 265 345 918 0 301 354 920 82 1 917 -1700986737 81 1 918 2276 779 345 0 3
48 915 921 922 81 1 301 2418 265 297 923 0 296 348 924 82 1 920 -1701183345 81 1
 923 2281 779 297 0 301 704 925 926 81 1 296 2417 265 293 925 0 292 301 927 82 1
 924 -1703149425 81 1 925 2282 779 293 0 296 923 928 929 81 1 292 2416 265 289 9
28 0 288 296 930 82 1 927 -1703280497 81 1 928 2283 779 289 0 292 925 931 932 81
 1 288 2415 265 285 931 0 284 292 933 82 1 930 -1703411569 81 1 931 2284 779 285
 0 288 928 934 935 81 1 284 2414 265 278 934 0 276 288 936 82 1 933 -1703542641
 81 1 934 2285 779 278 0 284 931 937 938 81 1 276 2413 265 272 937 0 271 284 939
 82 1 936 -1703673713 81 1 937 2286 779 272 0 276 934 275 940 82 1 939 -17040013
93 81 1 275 2287 779 270 0 271 937 0 941 83 3 940 .752941176470588 .752941176470
588 .752941176470588 83 3 941 .556862745098039 .494117647058824 .286274509803921
5 83 3 938 .556862745098039 .494117647058824 .2862745098039215 83 3 935 .7529411
76470588 .752941176470588 .752941176470588 83 3 932 .556862745098039 .4941176470
58824 .2862745098039215 83 3 929 .752941176470588 .752941176470588 .752941176470
588 81 1 704 2280 779 302 0 703 708 923 942 83 3 926 .752941176470588 .752941176
470588 .752941176470588 81 1 708 2279 779 586 0 705 712 704 943 83 3 942 .752941
176470588 .752941176470588 .752941176470588 81 1 712 2278 779 707 0 709 921 708
 944 83 3 943 .752941176470588 .752941176470588 .752941176470588 81 1 921 2277 7
79 349 0 713 918 712 945 83 3 944 .556862745098039 .494117647058824 .28627450980
39215 81 1 713 2442 265 349 921 0 709 723 946 83 3 945 .752941176470588 .7529411
76470588 .752941176470588 82 1 946 -1680277361 83 3 922 .752941176470588 .752941
176470588 .752941176470588 83 3 919 .752941176470588 .752941176470588 .752941176
470588 81 1 914 2273 779 360 0 766 765 912 947 83 3 916 .752941176470588 .752941
176470588 .752941176470588 81 1 766 2448 265 360 914 0 764 768 948 81 1 765 2272
 779 749 0 764 949 914 950 83 3 947 .752941176470588 .752941176470588 .752941176
470588 81 1 949 2271 779 650 0 768 771 765 951 83 3 950 .752941176470588 .752941
176470588 .752941176470588 81 1 768 2449 265 650 949 0 766 770 952 81 1 771 2270
 779 644 0 770 774 949 953 83 3 951 .752941176470588 .752941176470588 .752941176
470588 83 3 953 .752941176470588 .752941176470588 .752941176470588 82 1 952 -167
1561073 82 1 948 -1671626609 83 3 911 .752941176470588 .752941176470588 .7529411
76470588 83 3 909 .752941176470588 .752941176470588 .752941176470588 83 3 907 .7
52941176470588 .752941176470588 .752941176470588 83 3 904 .752941176470588 .7529
41176470588 .752941176470588 83 3 901 .752941176470588 .752941176470588 .7529411
76470588 81 1 896 2262 779 430 0 733 732 894 954 83 3 898 .752941176470588 .7529
41176470588 .752941176470588 81 1 733 2446 265 430 896 0 729 764 955 81 1 732 22
61 779 727 0 729 728 896 956 83 3 954 .752941176470588 .752941176470588 .7529411
76470588 81 1 728 2260 779 692 0 725 724 732 957 83 3 956 .752941176470588 .7529
41176470588 .752941176470588 81 1 724 2259 779 469 0 723 890 728 958 83 3 957 .7
52941176470588 .752941176470588 .752941176470588 83 3 958 .752941176470588 .7529
41176470588 .752941176470588 82 1 955 -1678114673 83 3 893 .752941176470588 .752
941176470588 .752941176470588 83 3 891 .752941176470588 .752941176470588 .752941
176470588 83 3 888 .752941176470588 .752941176470588 .752941176470588 82 1 883 -
1694760817 82 1 881 -1694629745 82 1 878 -1694498673 82 1 875 -1694367601 82 1 8
72 -1694236529 82 1 869 -1694105457 82 1 866 -1693974385 83 3 791 .7529411764705
88 .752941176470588 .752941176470588 83 3 787 .752941176470588 .752941176470588
 .752941176470588 83 3 781 .752941176470588 .752941176470588 .752941176470588 79
 14 778 SWEntUnchanged82 1 773 -1671298929 82 1 767 -1671757681 16 366 273 0 ?69
3 738 368 363 0 0 1 17 694 0 356 693 59 60 626 624 0 0 -82 1 734 -1678376817 82
 1 730 -1678507889 82 1 726 -1678638961 17 554 0 233 146 720 159 125 552 0 0 +17
 661 0 264 657 269 159 146 201 0 662 -17 269 0 264 661 657 144 152 208 0 721 -17
 657 0 264 269 661 150 161 660 0 655 -17 662 0 524 125 564 159 557 555 0 554 -15
 524 774 0 564 519 0 17 125 0 524 719 662 123 554 552 0 669 -17 564 0 524 662 71
9 156 119 562 0 0 -17 719 0 524 564 125 117 669 665 0 717 -17 53 0 409 590 565 5
1 717 398 0 322 +16 398 415 0 ?53 395 580 399 0 0 1 16 580 416 0 ?565 398 576 40
1 0 0 1 17 565 0 409 53 590 117 563 580 0 719 +31 401 423 0 580 399 582 0 +-.001
112 12e-6 -8e-4 1 0 0 0 0 -1 12e-6 15 409 414 0 565 403 0 17 590 0 409 565 53 81
 322 320 0 0 -82 1 714 -1680539505 82 1 710 -1680670577 82 1 706 -1680801649 82
 1 277 -1704132465 82 1 268 -1704460145 141 259 18 259 259 19 17 164 0 178 180 1
79 162 171 175 0 187 +19 17 5 0 1 0 9 5 S0 141 20 6 20 20 7 74 20 15 10 0 0 856
 851 793 846 838 830 835 275 13 2 0 0 0 0 0 0 0 0 0 0 80 2 12 959 960 9000 0 0 0
 0 3 5 0 0 0 FFTFFFFFFFFFFF9 1 82 1 14 103 79 12 960 ATOM_ID_20011 0 
