**ABCDEFGHIJKLMNOPQRSTUVWXYZabcdefghijklmnopqrstuvwxyz**************************
**PARASOLID !"#$%&'()*+,-./:;<=>?@[\]^_`{|}~0123456789**************************
**PART1;
MC=AMD64;
MC_MODEL=Intel64 Family 6 Model 158 Stepping 10, GenuineIntel;
MC_ID=unknown;
OS=Windows_NT;
OS_RELEASE=unknown;
FRU=Parasolid Version 31.1, build 290,  3- 9-2020;
APPL=SOLIDWORKS 2020-2020196;
SITE=;
USER=unknown;
FORMAT=text;
GUISE=transmit;
KEY=DO-41-L=10.5;
FILE=DO-41-L=10.5.x_t;
DATE=Sat Apr  3 22:32:52 2021;
**PART2;
SCH=SCH_3101290_31100;
USFLD_SIZE=0;
**PART3;
**END_OF_HEADER*****************************************************************
T51 : TRANSMIT FILE created by modeller version 310129017 SCH_2800000_280020 10
 1 5 2 3 0 0 0 0 0 1e3 1e-8 0 0 0 1 0 1 4 81 2 2 5 5 1 0 0 0 0 0 0 70 3 0 4 T1 0
 0 1 20 1 6 6 11 4 3 0 1 7 8 1 9 0 0 0 12 7 1105 10 11 0 0 0 0 1e3 1e-8 4 12 0 1
 0 1 1 13 14 15 16 17 18 19 0 0 0 0 0 0 0 100 8 4 4 0 0 1 0 0 0 1 0 0 0 1 0 0 0
 1 0 ?11 9 1 0 1 12 20 1 0 4 0 0 12 12 719 21 22 0 0 0 0 1e3 1e-8 9 23 7 1 0 1 1
 24 25 26 27 28 29 30 0 0 0 0 0 0 0 100 20 2 9 0 0 1 0 0 0 1 0 0 0 1 0 0 0 1 0 ?
81 1 21 719 31 12 0 0 0 0 0 70 22 0 4 T12 0 0 3 20 1 32 32 13 24 210 0 12 0 33 0
 0 34 0 51 25 80 0 33 35 0 0 +0 0 .00134951219657288 0 0 1 .0013095110053575 1 0
 0 31 26 213 0 36 37 0 0 -0 0 .00184951219657288 0 0 1 1 0 0 .0013095110053575 2
9 27 214 0 30 0 0 120276634586947e-33 .0013095110053575 .00184951219657288 19 28
 5 0 12 34 0 38 V0 16 29 13 0 ?39 0 40 41 0 0 12 18 30 183 0 42 0 0 27 ?12 17 42
 0 43 42 42 30 44 36 0 44 -15 43 74 0 42 33 45 17 44 0 46 44 44 30 42 36 0 0 +16
 36 54 0 ?44 47 0 26 0 0 12 16 47 32 0 ?48 40 36 37 0 0 12 17 48 0 49 48 48 0 50
 47 0 0 +16 40 7 0 ?51 29 47 52 0 0 12 31 37 100 0 47 52 26 0 +0 0 .000849512196
572882 0 0 1 1 0 0 .0013095110053575 31 52 97 0 40 41 37 0 -0 0 .001849512196572
88 0 0 1 1 0 0 .00131951100535749 31 41 94 0 29 0 52 0 +0 0 .000849512196572882
 0 0 1 1 0 0 .00131951100535749 17 51 0 53 51 51 0 54 40 0 0 +15 53 8 0 51 55 0
 17 54 0 56 54 54 0 51 40 0 0 -15 56 51 0 54 57 46 14 57 49 58 1e-8 59 33 56 24
 35 +0 0 33 59 38 15 46 52 0 44 57 0 81 1 58 715 60 57 61 0 0 62 63 14 59 28 62
 1e-8 55 57 49 24 64 +0 0 57 55 38 14 33 72 65 1e-8 57 0 43 24 25 -0 0 0 57 38 5
0 35 57 0 57 64 25 0 +0 .0013095110053575 .00184951219657288 0 0 1 1 0 0 13 38 3
 0 0 0 0 0 0 28 55 14 55 2 66 1e-8 0 59 67 24 68 +0 0 59 0 38 81 1 66 718 60 55
 69 0 65 0 70 15 67 14 0 39 55 53 51 68 6 0 55 0 64 0 +0 0 .00134951219657288 0
 0 1 .00131951100535749 1 0 0 50 64 35 0 59 68 35 0 +0 .00131951100535749 .00084
9512196572882 0 0 -1 -1 0 0 17 39 0 67 39 39 0 71 29 0 0 +17 71 0 72 71 71 0 39
 29 0 0 -15 72 31 0 71 59 0 80 1 60 73 74 9000 1 1 1 1 1 1 1 1 0 FFFFTFTFFFFFFF1
 81 1 69 644 75 55 0 66 76 0 77 81 1 65 717 60 33 78 0 62 66 79 82 1 70 -1158414
119 81 1 78 641 75 33 0 65 0 61 80 81 1 62 716 60 59 76 0 58 65 81 82 1 79 -3577
60787 81 1 76 643 75 59 0 62 61 69 82 82 1 81 -1158283047 80 1 75 0 83 8001 0 0
 0 0 3 5 0 0 0 FFFFTFTFFFFFFF2 81 1 61 642 75 57 0 58 78 76 84 83 3 82 .94901960
7843137 .949019607843137 .949019607843137 83 3 84 .949019607843137 .949019607843
137 .949019607843137 79 15 83 SDL/TYSA_COLOUR83 3 80 .949019607843137 .949019607
843137 .949019607843137 83 3 77 .898039215686275 .898039215686275 .8980392156862
75 79 14 74 SWEntUnchanged15 49 30 0 48 59 72 82 1 63 -357629715 17 50 0 45 50 5
0 0 48 47 0 0 -15 45 75 0 50 33 0 19 34 211 0 12 0 28 24 S0 74 20 32 3 0 0 66 69
 21 0 0 0 0 0 0 0 0 0 0 0 0 0 0 0 0 0 80 1 31 85 86 8017 0 0 0 0 0 0 0 0 0 TTTTT
TTTTTTTTF3 79 13 86 SDL/TYSA_NAME81 1 10 1105 31 7 0 0 0 0 0 70 11 0 4 T7 0 0 3
 20 1 87 87 13 13 353 0 7 0 88 0 0 89 0 68 14 331 0 90 91 0 92 +93 0 0 .00185 0
 0 -1 ????-1 0 0 2e-4 137 15 337 0 7 94 0 95 +14 96 0 ?29 16 221 0 19 97 0 -1084
202172485504e-34 .001309511005357542 .001849512196586335 19 17 5 0 7 89 0 98 V0
 16 18 13 0 ?99 0 100 101 0 0 7 18 19 220 0 102 0 103 16 ?7 17 102 0 104 102 102
 19 105 106 0 105 -18 103 887 0 107 19 108 97 ?7 17 107 0 109 107 107 103 110 11
1 0 110 +18 108 949 0 112 103 0 113 ?7 29 97 918 0 103 113 16 43e-5 -.0038 .0052
5 29 113 980 0 108 0 97 43e-5 -.0038 -.00525 17 112 0 114 112 112 108 115 116 0
 115 +15 114 955 0 112 117 0 17 115 0 118 115 115 108 112 116 0 0 -16 116 942 0
 ?112 119 120 121 0 0 7 16 119 884 0 ?122 123 116 124 0 0 7 16 120 947 0 ?125 11
6 126 127 0 0 7 31 121 975 0 116 127 124 0 -0 -.0038 -.00525 0 1 0 1 0 0 43e-5 3
1 127 976 0 120 128 121 0 -0 -.001 -.00525 0 1 216840434497101e-30 1 0 0 43e-5 3
1 124 915 0 119 121 129 0 +0 0 .00425 0 0 1 1 0 0 43e-5 31 129 914 0 123 124 130
 0 +0 -.001 .00525 0 -1 216840434497101e-30 1 0 0 43e-5 16 123 885 0 ?131 111 11
9 129 0 0 7 31 130 913 0 111 129 101 0 +0 -.0038 .00525 0 -1 0 1 0 0 43e-5 16 11
1 879 0 ?107 132 123 130 0 0 7 133 101 18 0 18 130 133 0 +133 -164628454053859e-
33 43e-5 -.00225 -164628454053859e-33 43e-5 -.00225 1.570796326794895 -4.7123889
8038469 31 133 19 0 7 101 134 135 -0 0 -.00225 0 0 1 1 0 0 43e-5 31 134 40 0 7 1
33 136 137 +-63e-5 0 -.00225 0 1 0 -1 0 0 2e-4 141 135 101 135 135 133 133 136 7
3 0 138 134 139 0 +139 0 .00110048720999494 -.00205 0 .00110048720999494 -.00205
 0 1 141 137 140 137 137 134 68 140 35 0 141 142 143 144 +134 0 0 -.00225 0 0 -1
 ????-1 0 0 ?14 141 28 145 1e-8 146 147 148 13 140 -0 0 147 149 98 51 142 6 0 88
 150 140 0 +0 0 0 0 0 1 43e-5 1 0 0 50 143 69 0 147 140 151 152 +0 43e-5 -.00205
 0 0 -1 -1 0 0 141 144 153 144 144 140 137 153 76 0 7 154 155 156 +140 157 0 ?13
3 154 75 0 158 159 153 0 +153 -1084202172485504e-34 63e-5 -.00205 -1084202172485
504e-34 63e-5 -.00205 0 1 31 155 95 0 7 153 160 161 +-.00110048720999494 0 -.001
85 0 1 0 -1 0 0 2e-4 141 156 154 156 156 153 134 157 0 0 0 0 0 0 +162 163 136 16
2 1 2 2 2 5 FFF1 164 165 166 135 163 2 0 45 4 164 1.570796326794895 1.5707963267
94895 1.570796326794895 7.85398163397448 127 2 165 2 2 128 2 166 0 1 133 160 92
 0 167 155 168 0 +168 -216840434497101e-33 .001300486615113596 -.001850487803427
12 -216840434497101e-33 .001300486615113596 -.00185048780342712 1.57079632679489
5 7.85398163397448 141 161 151 161 161 155 68 151 90 0 169 143 170 171 +155 0 0
 -.00185 0 0 -1 ????-1 0 0 2e-4 14 169 83 172 1e-8 147 173 174 13 151 +0 0 173 1
47 98 52 170 112 0 173 151 175 0 +0 0 .00184951219642926 0 0 1 .0013095110053571
44 .00243901713562499 .999997025593283 1 0 0 141 171 176 171 171 151 137 176 98
 0 7 177 178 179 +151 180 0 ?133 177 97 0 181 168 176 0 +176 -216840434497101e-3
3 .00110048720999494 -.00205 -433680868994202e-33 .00110048720999494 -.00205 0 1
 133 178 114 0 106 176 182 0 +182 0 .00130951100535759 .00184951219659979 0 .001
30951100535759 .00184951219659979 0 -6.28318530717959 141 179 177 179 179 176 13
4 180 0 0 0 0 0 0 +183 184 136 183 1 2 2 2 5 FFF1 185 186 187 135 184 2 0 45 4 1
85 4.71238898038469 7.85398163397448 4.71238898038469 1.570796326794895 127 2 18
6 2 2 128 2 187 0 1 16 106 110 0 ?105 167 188 178 0 0 7 31 182 113 0 7 178 189 1
90 -0 0 .00184951219659979 0 0 1 0 1 0 .00130951100535759 133 189 350 0 188 182
 191 0 +191 1218090862994316e-34 43e-5 .00225 1218090862994316e-34 43e-5 .00225
 1.570796326794895 7.85398163397448 141 190 178 190 190 182 16 188 324 0 ?192 10
6 193 189 0 0 7 31 191 349 0 7 189 194 195 +0 0 .00225 0 0 1 1 0 0 43e-5 31 194
 348 0 7 191 196 197 +63e-5 0 .00225 0 1 0 1 0 0 2e-4 141 195 189 195 195 191 13
3 196 347 0 198 194 199 0 +199 0 .00110951160023884 .00205 0 .00110951160023884
 .00205 0 1 141 197 200 197 197 194 68 200 334 0 201 175 91 202 +194 0 0 .00225
 0 0 1 ????1 0 0 ?14 201 297 203 1e-8 173 204 205 13 200 -0 0 204 173 98 51 175
 335 0 149 170 200 0 +0 0 0 0 0 1 43e-5 1 0 0 50 91 332 0 204 200 14 206 +0 .001
10951160023884 .00205 0 0 1 1 0 0 141 202 207 202 202 200 137 207 342 0 7 208 93
 209 +200 210 0 ?133 208 343 0 211 212 207 0 +207 -1084202172485504e-34 63e-5 .0
0205 1084202172485504e-34 63e-5 .00205 0 1 31 93 341 0 7 207 94 213 +-.001109511
60023884 0 .00185 0 1 0 -1 0 0 2e-4 141 209 208 209 209 207 134 210 0 0 0 0 0 0
 +214 215 136 214 1 2 2 2 5 FFF1 216 217 218 135 215 2 0 45 4 216 1.570796326794
895 1.570796326794895 1.570796326794895 7.85398163397448 127 2 217 2 2 128 2 218
 0 1 133 94 338 0 219 93 15 0 +15 -433680868994202e-33 .00110951160023884 .00205
 -216840434497101e-33 .00110951160023884 .00205 0 1 141 213 14 213 213 93 17 219
 0 220 219 219 0 198 132 94 0 -15 220 323 0 219 90 0 17 198 0 221 198 198 0 219
 132 196 0 +16 132 327 0 25e-8 198 193 111 0 0 0 7 16 193 326 0 25e-8 222 188 13
2 0 0 0 7 17 222 0 223 222 222 0 211 193 224 0 +15 223 315 0 222 204 221 17 211
 0 225 211 211 0 222 193 208 0 -133 224 345 0 222 199 212 0 +212 -38576374173141
6e-34 63e-5 .00205 -385763741731416e-34 63e-5 .00205 0 1 137 199 346 0 7 196 224
 226 +91 227 0 ?137 212 344 0 7 224 208 228 +91 229 0 ?141 228 224 228 228 212 1
34 229 0 0 0 0 0 0 +230 231 136 230 2 33 2 19 5 TTF1 232 233 234 135 231 2 0 45
 66 232 -385763741731416e-34 -.00047951160023884 .000120413868118333 -.000479714
398386875 .00023189966702398 -.000523744970569509 .0003527642032496735 -.0005714
79612459728 .0004454772721475255 -.000664034328091316 .000537444514076011 -.0007
55844490620728 .000585766629669331 -.00087761193321486 .000629898367118779 -.000
988819994792318 63e-5 -.00110951160023884 .000630100751781218 -.0012291568772466
48 .000585766629669331 -.00134141126726282 .000538031987779099 -.001462275803488
56 .000445477272147525 -.001554988872386365 .0003536671096180325 -.0016469561143
149 .00023189966702398 -.00169527822990817 .000120691605446484 -.001739409967357
62 -192881870865708e-33 -.00173951160023884 -.0001196452770078074 -.001739612352
02006 -.0002318996670239805 -.00169527822990817 -.0003527642032496975 -.00164754
3588017945 -.000445477272147525 -.001554988872386365 -.000537444514076055 -.0014
6317870985689 -.000585766629669331 -.00134141126726282 -.000629898367118779 -.00
1230203205685318 -63e-5 -.00110951160023884 -.000630100751781218 -.0009898663232
31045 -.000585766629669331 -.00087761193321486 -.000538031987779125 -.0007567473
96989173 -.000445477272147525 -.000664034328091315 -.000353667109618118 -.000572
067086162841 -.00023189966702398 -.000523744970569509 -.000119926534503016 -.000
479309622846389 -385763741731416e-34 -.00047951160023884 127 19 233 1 2 2 2 2 2
 2 2 2 2 2 2 2 2 2 2 2 2 1 128 19 234 -.0625 0 .0625 .125 .1875 .25 .3125 .375 .
4375 .5 .5625 .625 .6875 .75 .8125 .875 .9375 1 1.0625 141 226 196 226 226 199 1
34 227 0 0 0 0 0 0 +235 236 136 235 2 33 2 19 5 TTF1 237 238 239 135 236 2 0 45
 66 237 0 0 -.000211876779838411 -202588071652157e-21 -.000408405350245445 -7790
0694443711e-18 -.00062160736810123 -.0001621906937440035 -.000784543176334021 -.
000324968423904818 -.000946733432692556 -.000487001325515513 -.00103161090579513
 -.000701106249993396 -.00110941017305936 -.000897356275272927 -.001109511600238
84 -.00110951160023884 -.001109612527226288 -.00132062067307062 -.00103161090579
513 -.001517916950484285 -.000947320906494868 -.001731118968340015 -.00078454317
6334021 -.001894054776572865 -.000622510274723453 -.002056245032931295 -.0004084
053502454445 -.00214112250603397 -.000212155324966037 -.0022189217732982 3396899
574623385e-34 -.00221902320047768 .000211109072831792 -.00221912412746513 .00040
84053502454455 -.00214112250603397 .000621607368101261 -.00205683250673367 .0007
84543176334022 -.00189405477657286 .000946733432692539 -.00173202187496216 .0010
3161090579513 -.001517916950484285 .00110941017305936 -.001321666925204798 .0011
0951160023884 -.00110951160023884 .00110961252722629 -.000898402527407037 .00103
161090579513 -.000701106249993395 .000947320906494806 -.000487904232137533 .0007
84543176334022 -.000324968423904818 .000622510274723267 -.00016277816754627 .000
408405350245445 -779006944437108e-19 .000211389616132152 2021222652721345e-22 0
 0 127 19 238 1 2 2 2 2 2 2 2 2 2 2 2 2 2 2 2 2 2 1 128 19 239 -.0625 0 .0625 .1
25 .1875 .25 .3125 .375 .4375 .5 .5625 .625 .6875 .75 .8125 .875 .9375 1 1.0625
 15 225 303 0 211 201 0 14 204 310 240 1e-8 201 90 223 13 91 +0 0 90 201 98 15 2
21 316 0 198 204 0 81 1 240 1093 60 204 241 0 203 242 243 14 90 317 242 1e-8 204
 149 104 13 14 +0 0 244 204 98 13 98 3 0 0 0 0 0 0 17 88 14 88 763 245 ?149 0 24
6 13 142 +0 0 149 0 98 81 1 245 1095 60 88 247 0 242 248 249 14 149 661 248 ?90
 88 250 13 175 +0 0 141 88 98 15 246 14 0 99 88 251 17 99 0 246 99 99 0 252 18 0
 0 +15 251 958 0 253 88 0 17 253 0 251 253 253 0 254 126 0 0 -17 254 0 255 254 2
54 0 253 126 0 0 +16 126 946 0 ?254 120 0 128 0 0 7 31 128 977 0 126 0 127 0 -0
 0 -.00425 0 0 1 1 0 0 43e-5 15 255 963 0 254 256 0 14 256 960 257 ?258 117 259
 13 260 +0 0 117 258 98 81 1 257 1097 60 256 261 0 248 262 263 14 258 964 262 ?0
 256 118 13 264 +0 0 256 146 98 14 117 953 265 ?256 244 114 13 266 +0 0 0 256 98
 15 259 962 0 267 256 255 54 260 973 0 256 0 264 0 +0 -.001 -.00425 -1 0 0 .001
 43e-5 0 0 1 51 264 972 0 258 260 266 0 +0 -.001 -.00525 0 -1 0 43e-5 0 0 -1 50
 266 971 0 117 264 268 0 +0 -.0038 -.00525 0 -1 0 1 0 0 54 268 911 0 269 266 270
 0 +0 -.001 .00425 1 0 0 .001 43e-5 0 0 -1 14 269 898 271 ?244 146 272 13 268 +0
 0 146 244 98 51 270 910 0 244 268 150 0 +0 -.001 .00525 0 -1 0 43e-5 0 0 -1 14
 244 902 273 ?117 269 274 13 270 +0 0 269 90 98 50 150 909 0 146 270 142 0 +0 -.
0038 .00525 0 -1 0 1 0 0 14 146 891 275 ?269 141 109 13 150 +0 0 258 269 98 81 1
 275 1102 60 146 276 0 273 277 278 15 109 893 0 107 146 0 81 1 276 1050 75 146 0
 275 279 280 281 81 1 273 1101 60 244 282 0 271 275 283 81 1 277 1103 60 173 284
 0 275 285 286 82 1 278 -1717567182 14 173 105 277 1e-8 169 201 287 13 170 +0 0
 201 169 98 81 1 284 1046 75 173 0 277 288 289 290 81 1 285 1104 60 147 291 0 27
7 0 292 82 1 286 462160117 14 147 62 285 1e-8 141 169 293 13 143 +0 0 169 141 98
 81 1 291 1048 75 147 0 285 289 279 294 82 1 292 -1181286185 81 1 289 1047 75 16
9 0 172 284 291 295 81 1 279 1049 75 141 0 145 291 276 296 83 3 294 .29803921568
62745 .2980392156862745 .2980392156862745 81 1 145 1090 60 141 279 0 0 172 297 8
3 3 296 .949019607843137 .949019607843137 .949019607843137 81 1 172 1091 60 169
 289 0 145 203 298 82 1 297 -1183448873 81 1 203 1092 60 201 288 0 172 240 299 8
2 1 298 -1182662441 81 1 288 1045 75 201 0 203 241 284 300 82 1 299 468582645 81
 1 241 1044 75 204 0 240 301 288 302 83 3 300 .949019607843137 .949019607843137
 .949019607843137 81 1 301 1043 75 90 0 242 303 241 304 83 3 302 .29803921568627
45 .2980392156862745 .2980392156862745 81 1 242 1094 60 90 301 0 240 245 305 81
 1 303 1042 75 149 0 248 247 301 306 83 3 304 .2980392156862745 .298039215686274
5 .2980392156862745 81 1 248 1096 60 149 303 0 245 257 307 81 1 247 1041 75 88 0
 245 0 303 308 83 3 306 .949019607843137 .949019607843137 .949019607843137 83 3
 308 .949019607843137 .949019607843137 .949019607843137 82 1 307 -119275214 82 1
 305 469958901 83 3 295 .2980392156862745 .2980392156862745 .2980392156862745 15
 293 64 0 309 147 310 17 309 0 293 309 309 0 158 100 311 0 +15 310 65 0 138 147
 0 17 138 0 310 138 138 0 181 312 136 0 +17 181 0 174 181 181 0 138 312 177 0 -1
6 312 67 0 25e-8 138 100 167 0 0 0 7 16 100 33 0 25e-8 309 18 312 0 0 0 7 16 167
 88 0 ?313 312 106 160 0 0 7 17 313 0 314 313 313 0 315 167 0 0 +15 314 86 0 313
 169 0 17 315 0 287 315 315 0 313 167 0 0 -15 287 107 0 315 173 316 15 316 108 0
 105 173 0 17 105 0 316 105 105 19 102 106 0 0 +15 174 85 0 181 169 314 17 158 0
 317 158 158 0 309 100 154 0 -133 311 71 0 309 139 159 0 +159 -385763741731416e-
34 63e-5 -.00205 -385763741731416e-34 63e-5 -.00205 0 1 137 139 72 0 7 136 311 3
18 +143 319 0 ?137 159 70 0 7 311 154 320 +143 321 0 ?141 320 311 320 320 159 13
4 321 0 0 0 0 0 0 +322 323 136 322 2 33 2 19 5 TTF1 324 325 326 135 323 2 0 45 6
6 324 385763741731416e-34 2e-4 .0001204138681183362 .000199797201851965 .0002318
996670239805 .000155766629669331 .0003527642032496865 .0001080319877791058 .0004
454772721475255 1547727214752435e-20 .000537444514076015 -763328903818986e-19 .0
00585766629669331 -.00019810033297602 .000629898367118779 -.000309308394553478 6
3e-5 -43e-5 .000630100751781218 -.000549645277007808 .000585766629669331 -.00066
189966702398 .000538031987779116 -.000782764203249676 .000445477272147525 -.0008
75477272147525 .0003536671096180785 -.000967444514076039 .00023189966702398 -.00
101576662966933 .000120691605446487 -.00105989836711878 -2700346192119915e-34 -.
00106 -.0001196452770078044 -.001060100751781218 -.0002318996670239805 -.0010157
6662966933 -.000352764203249695 -.000968031987779109 -.0004454772721475255 -.000
875477272147525 -.000537444514076046 -.000783667109618059 -.000585766629669331 -
.00066189966702398 -.000629898367118779 -.00055069160544649 -63e-5 -43e-5 -.0006
30100751781218 -.0003103547229921925 -.000585766629669331 -.0001981003329760195
 -.000538031987779111 -772357967503126e-19 -.000445477272147525 154772721475252e
-19 -.0003536671096181095 .000107444514076001 -.00023189966702398 .0001557666296
693315 -.000119926534503019 .000200201977392451 385763741731416e-34 2e-4 127 19
 325 1 2 2 2 2 2 2 2 2 2 2 2 2 2 2 2 2 2 1 128 19 326 -.0625 0 .0625 .125 .1875
 .25 .3125 .375 .4375 .5 .5625 .625 .6875 .75 .8125 .875 .9375 1 1.0625 141 318
 136 318 318 139 134 319 0 0 0 0 0 0 +327 328 136 327 2 33 2 19 5 TTF1 329 330 3
31 135 328 2 0 45 66 329 0 .00067048720999494 -.0002101554444798415 .00067028461
9667126 -.0004050835199396435 .000593220133322129 -.00061654775074548 .000509618
105810437 -.000778161968796486 .0003481619687964865 -.000939030632008956 .000187
45065736542 -.00102322013332213 -2491648006035615e-20 -.001100385780599698 -.000
219566019068617 -.00110048720999494 -43e-5 -.00110058813509518 -.000639387727972
917 -.00102322013332213 -.000835083519939643 -.000939618105810468 -.001046547750
745426 -.000778161968796487 -.001208161968796486 -.000617450657365521 -.00136903
0632008876 -.000405083519939644 -.00145322013332213 -.000210433980931472 -.00153
03857805997 -336927034805726e-33 -.00153048720999494 .000209387727972957 -.00153
058813509518 .0004050835199396435 -.00145322013332213 .000616547750745381 -.0013
6961810581047 .000778161968796485 -.001208161968796488 .000939030632008897 -.001
047450657365546 .00102322013332213 -.000835083519939644 .001100385780599784 -.00
0640433980931184 .00110048720999494 -43e-5 .001100588135095094 -.000220612272026
7125 .00102322013332213 -2491648006035675e-20 .000939618105810344 .0001865477507
45575 .000778161968796486 .000348161968796487 .000617450657365416 .0005090306320
08958 .000405083519939644 .000593220133322129 .000209668278989807 .0006706893306
94111 0 .00067048720999494 127 19 330 1 2 2 2 2 2 2 2 2 2 2 2 2 2 2 2 2 2 1 128
 19 331 -.0625 0 .0625 .125 .1875 .25 .3125 .375 .4375 .5 .5625 .625 .6875 .75 .
8125 .875 .9375 1 1.0625 15 317 31 0 158 141 0 83 3 290 .2980392156862745 .29803
92156862745 .2980392156862745 81 1 282 1052 75 244 0 273 280 332 333 81 1 271 11
00 60 269 280 0 265 273 334 82 1 283 -1720581838 81 1 280 1051 75 269 0 271 276
 282 335 81 1 265 1099 60 117 332 0 262 271 336 82 1 334 -1720975054 81 1 332 10
53 75 117 0 265 282 261 337 81 1 262 1098 60 258 338 0 257 265 339 82 1 336 -161
0546893 81 1 338 1055 75 258 0 262 261 0 340 82 1 339 -1613430477 81 1 261 1054
 75 256 0 257 332 338 341 83 3 340 .949019607843137 .949019607843137 .9490196078
43137 83 3 341 .949019607843137 .949019607843137 .949019607843137 83 3 337 .9490
19607843137 .949019607843137 .949019607843137 83 3 335 .949019607843137 .9490196
07843137 .949019607843137 83 3 333 .949019607843137 .949019607843137 .9490196078
43137 83 3 281 .949019607843137 .949019607843137 .949019607843137 15 274 904 0 1
10 244 342 17 110 0 274 110 110 103 107 111 0 0 -15 342 905 0 131 244 0 17 131 0
 342 131 131 0 343 123 0 0 +17 343 0 272 343 343 0 131 123 0 0 -15 272 900 0 343
 269 344 15 344 901 0 122 269 0 17 122 0 344 122 122 0 345 119 0 0 +17 345 0 346
 345 345 0 122 119 0 0 -15 346 896 0 345 149 0 17 267 0 259 267 267 0 125 120 0
 0 -17 125 0 347 125 125 0 267 120 0 0 +15 347 967 0 125 258 0 15 118 966 0 115
 258 347 82 1 263 -1613823693 17 252 0 148 252 252 0 99 18 0 0 -15 148 30 0 252
 141 317 15 250 295 0 192 149 346 17 192 0 250 192 192 0 348 188 0 0 +17 348 0 2
05 348 348 0 192 188 0 0 -15 205 302 0 348 201 225 82 1 249 -119406285 15 104 32
2 0 102 90 220 82 1 243 467992821 141 206 199 349 349 91 141 349 212 206 206 91
 31 168 91 0 7 160 177 350 +0 0 -.00185048780342712 0 0 -1 -1 0 0 .0013004866151
13596 141 350 160 350 350 168 141 152 139 351 351 143 141 351 159 152 152 143 19
 89 354 0 7 0 17 13 S0 141 95 94 95 95 15 134 96 0 0 0 0 0 0 +352 353 136 352 1
 2 2 2 5 FFF1 354 355 356 135 353 2 0 45 4 354 1.570796326794895 1.5707963267948
95 1.570796326794895 7.85398163397448 127 2 355 2 2 128 2 356 0 1 141 92 15 92 9
2 14 74 20 87 3 0 0 285 338 10 0 0 0 0 0 0 0 0 0 0 0 0 0 0 0 0 0 74 20 6 1 0 0 2
 0 0 0 0 0 0 0 0 0 0 0 0 0 0 0 0 0 0 0 80 2 5 357 358 9000 0 0 0 0 3 5 0 0 0 TFF
FFFFFFFFFFF9 1 79 18 358 MULTI_BODY_ID_20011 0 
