**ABCDEFGHIJKLMNOPQRSTUVWXYZabcdefghijklmnopqrstuvwxyz**************************
**PARASOLID !"#$%&'()*+,-./:;<=>?@[\]^_`{|}~0123456789**************************
**PART1;
MC=AMD64;
MC_MODEL=Intel64 Family 6 Model 158 Stepping 10, GenuineIntel;
MC_ID=unknown;
OS=Windows_NT;
OS_RELEASE=unknown;
FRU=Parasolid Version 31.1, build 290,  3- 9-2020;
APPL=SOLIDWORKS 2020-2020196;
SITE=;
USER=unknown;
FORMAT=text;
GUISE=transmit;
KEY=TO-92_line_pin_2_5mm_pitch;
FILE=TO-92_line_pin_2_5mm_pitch.x_t;
DATE=Sun Jul 25 21:12:20 2021;
**PART2;
SCH=SCH_3101290_31100;
USFLD_SIZE=0;
**PART3;
**END_OF_HEADER*****************************************************************
T51 : TRANSMIT FILE created by modeller version 310129017 SCH_2800000_280020 12
 1 2832 2 3 0 0 0 0 1e3 1e-8 0 4 0 1 0 1 1 5 6 7 8 9 10 11 0 0 0 0 0 0 0 81 2 2
 2797 12 1 13 0 0 0 0 14 70 3 0 4 T1 0 0 8 20 1 15 15 13 5 1354 0 1 0 16 0 0 17
 0 50 6 1237 0 16 18 0 0 +-225e-6 -.00105 .003 1 0 0 0 0 -1 31 7 1426 0 19 20 0
 0 +-225e-6 -.0023 .00285078105935821 -1 0 0 0 0 1 .00125 29 8 1428 0 21 22 0 -2
25e-6 -.001323913988196212 .00206991224991518 19 9 5 0 1 17 0 23 V0 16 10 21 0 ?
24 0 25 26 0 0 1 18 11 17 0 27 0 28 29 ?1 17 27 0 30 31 31 11 32 33 0 34 -18 28
 13 0 32 11 35 36 ?1 29 29 1360 0 11 36 37 .00185 .0017 .0082 29 36 1359 0 28 38
 29 .00185 -.0017 .0082 29 37 1363 0 39 29 40 .00185 .0017 .003 18 39 7 0 41 35
 42 37 ?1 29 40 1364 0 35 37 43 .00185 -.0017 .003 18 35 9 0 44 28 39 40 ?1 29 4
3 1367 0 45 40 46 225e-6 .00171434839291773 .00238225977369239 18 45 192 0 47 48
 49 43 ?1 29 46 1368 0 48 43 50 225e-6 .00155 .00285078105935821 18 48 191 0 51
 52 45 46 ?1 29 50 1371 0 53 46 54 225e-6 .00275 .000649218940641788 18 53 194 0
 55 49 56 50 ?1 29 54 1372 0 49 50 57 225e-6 .00247608601180379 .001430087750084
82 18 49 193 0 58 45 53 54 ?1 29 57 1375 0 59 54 60 225e-6 .00208565160708227 .0
0111774022630761 18 59 198 0 61 62 63 57 ?1 29 60 1376 0 62 57 64 225e-6 .00225
 .000649218940641788 18 62 197 0 65 66 59 60 ?1 29 64 1379 0 67 60 68 225e-6 .00
105 .00285078105935821 18 67 200 0 69 63 70 64 ?1 29 68 1380 0 63 64 71 225e-6 .
001323913988196212 .00206991224991518 18 63 199 0 72 59 67 68 ?1 29 71 1383 0 73
 68 74 225e-6 -.001323913988196212 .00206991224991518 18 73 318 0 75 76 77 71 ?1
 29 74 1384 0 76 71 78 225e-6 -.00105 .00285078105935821 18 76 317 0 79 80 73 74
 ?1 29 78 1387 0 81 74 82 225e-6 -.00225 .000649218940641788 18 81 320 0 83 77 8
4 78 ?1 29 82 1388 0 77 78 85 225e-6 -.00208565160708227 .001117740226307608 18
 77 319 0 86 73 81 82 ?1 29 85 1391 0 87 82 88 225e-6 -.00247608601180379 .00143
008775008482 18 87 324 0 89 90 91 85 ?1 29 88 1392 0 90 85 92 225e-6 -.00275 .00
0649218940641788 18 90 323 0 93 94 87 88 ?1 29 92 1395 0 95 88 96 225e-6 -.00155
 .00285078105935821 18 95 326 0 97 91 98 92 ?1 29 96 1396 0 91 92 99 225e-6 -.00
171434839291773 .00238225977369239 18 91 325 0 100 87 95 96 ?1 29 99 1399 0 101
 96 102 -225e-6 .00225 .000649218940641788 18 101 575 0 103 104 105 99 ?1 29 102
 1400 0 105 99 106 -225e-6 .00208565160708227 .001117740226307608 18 105 602 0 1
07 101 108 102 ?1 29 106 1403 0 70 102 109 -225e-6 .00105 .00285078105935821 18
 70 268 0 110 67 111 106 ?1 29 109 1404 0 108 106 112 -225e-6 .00132391398819621
 .00206991224991518 18 108 634 0 113 105 114 109 ?1 29 112 1407 0 115 109 116 -2
25e-6 -.00247608601180379 .001430087750084818 18 115 965 0 117 118 119 112 ?1 29
 116 1408 0 118 112 120 -225e-6 -.00275 .000649218940641788 18 118 936 0 121 122
 115 116 ?1 29 120 1411 0 119 116 123 -225e-6 -.00171434839291773 .0023822597736
9239 18 119 995 0 124 115 125 120 ?1 29 123 1412 0 98 120 126 -225e-6 -.00155 .0
0285078105935821 18 98 394 0 127 95 128 123 ?1 29 126 1415 0 125 123 129 -225e-6
 .00247608601180379 .00143008775008482 18 125 1098 0 130 119 131 126 ?1 29 129 1
416 0 128 126 132 -225e-6 .00275 .000649218940641788 18 128 483 0 133 98 134 129
 ?1 29 132 1419 0 135 129 136 -225e-6 .00155 .00285078105935821 18 135 1100 0 13
7 131 138 132 ?1 29 136 1420 0 131 132 139 -225e-6 .00171434839291773 .002382259
77369239 18 131 1099 0 140 125 135 136 ?1 29 139 1423 0 141 136 142 -225e-6 -.00
208565160708227 .001117740226307608 18 141 1232 0 143 144 21 139 ?1 29 142 1424
 0 145 139 22 -225e-6 -.00225 .000649218940641788 18 145 844 0 146 147 148 142 ?
1 29 22 1427 0 149 142 8 -225e-6 -.00105 .00285078105935821 18 149 1234 0 150 21
 151 22 ?1 17 150 0 152 79 153 149 154 19 0 155 -18 21 1233 0 156 141 149 8 ?1 1
8 151 1235 0 157 149 158 159 ?1 17 157 0 160 161 155 151 162 163 0 164 -18 158 1
236 0 165 151 0 38 ?1 29 159 1352 0 151 166 38 -225e-6 -.00105 .003 29 166 1331
 0 144 167 159 -225e-6 .00105 .003 29 38 1353 0 158 159 36 -225e-6 -.00155 .003
 18 144 1102 0 168 138 141 166 ?1 29 167 1330 0 138 169 166 -225e-6 .00155 .003
 18 138 1101 0 170 135 144 167 ?1 29 169 1290 0 122 171 167 -225e-6 -.00275 -.00
3 18 122 906 0 172 148 118 169 ?1 29 171 1285 0 94 173 169 225e-6 -.00275 -.003
 18 94 322 0 174 84 90 171 ?1 29 173 1280 0 148 175 171 -225e-6 -.00225 -.003 18
 148 874 0 176 145 122 173 ?1 29 175 1279 0 84 177 173 225e-6 -.00225 -.003 18 8
4 321 0 178 81 94 175 ?1 29 177 1152 0 104 179 175 -225e-6 .00225 -.003 18 104 5
45 0 180 134 101 177 ?1 29 179 1151 0 66 181 177 225e-6 .00225 -.003 18 66 196 0
 182 56 62 179 ?1 29 181 1146 0 134 183 179 -225e-6 .00275 -.003 18 134 513 0 18
4 128 104 181 ?1 29 183 1145 0 56 185 181 225e-6 .00275 -.003 18 56 195 0 186 53
 66 183 ?1 29 185 1048 0 52 187 183 225e-6 -.00155 .003 18 52 132 0 188 189 48 1
85 ?1 29 187 770 0 189 190 185 225e-6 -.00105 .003 18 189 129 0 161 191 52 187 ?
1 29 190 762 0 147 192 187 -225e-6 -25e-5 .003 18 147 755 0 193 194 145 190 ?1 2
9 192 743 0 194 195 190 -225e-6 -25e-5 -.003 18 194 733 0 196 197 147 192 ?1 29
 195 721 0 197 198 192 -225e-6 25e-5 .003 18 197 714 0 199 114 194 195 ?1 29 198
 723 0 114 200 195 -225e-6 25e-5 -.003 18 114 711 0 201 108 197 198 ?1 29 200 68
8 0 202 203 198 225e-6 .00105 .003 18 202 124 0 204 42 205 200 ?1 29 203 410 0 4
2 206 200 225e-6 .00155 .003 18 42 121 0 207 39 202 203 ?1 29 206 299 0 80 208 2
03 225e-6 -25e-5 -.003 18 80 289 0 209 111 76 206 ?1 29 208 300 0 111 210 206 22
5e-6 25e-5 -.003 18 111 288 0 211 70 80 208 ?1 29 210 157 0 191 212 208 225e-6 -
25e-5 .003 18 191 128 0 213 205 189 210 ?1 29 212 159 0 205 0 210 225e-6 25e-5 .
003 18 205 125 0 214 202 191 212 ?1 17 214 0 215 216 217 205 199 218 0 219 +15 2
15 706 0 220 221 0 17 216 0 215 220 214 111 219 222 0 223 -17 217 0 215 214 220
 197 224 225 0 0 +17 199 0 226 193 227 197 214 218 0 228 -16 218 710 0 ?214 229
 230 231 0 0 1 17 219 0 232 233 223 205 216 222 0 227 +15 232 283 0 223 234 0 17
 233 0 232 235 219 191 227 236 0 0 +17 223 0 232 219 235 111 237 238 0 0 +16 222
 284 0 ?219 239 238 240 0 0 1 17 227 0 226 199 213 205 233 236 0 0 -15 226 104 0
 199 241 242 17 213 0 226 227 193 191 243 244 0 245 -16 236 111 0 ?233 246 247 2
48 0 0 1 16 246 110 0 ?249 250 236 251 0 0 1 16 247 115 0 ?252 236 253 254 0 0 1
 30 248 145 0 236 255 256 0 -225e-6 0 .003 0 1 0 30 255 97 0 257 258 248 0 +.001
85 -.0017 .003 0 1 0 30 256 216 0 259 248 260 0 -225e-6 .00155 .003 0 0 -1 16 25
9 179 0 ?261 262 263 256 0 0 1 30 260 214 0 264 256 265 0 +225e-6 .0024760860118
0379 .00143008775008482 0 -.624695047554426 .780868809443029 16 264 181 0 ?266 2
63 267 260 0 0 1 30 265 212 0 268 260 269 0 -225e-6 .00275 .003 0 0 -1 16 268 18
3 0 ?270 267 271 265 0 0 1 30 269 209 0 272 265 273 0 +225e-6 .00225 .003 0 0 -1
 16 272 185 0 ?274 271 275 269 0 0 1 30 273 207 0 276 269 277 0 +225e-6 .0013239
1398819621 .00206991224991518 0 .624695047554426 -.780868809443029 16 276 187 0
 ?278 275 279 273 0 0 1 30 277 205 0 280 273 240 0 +225e-6 .00105 .003 0 0 -1 16
 280 189 0 ?281 279 282 277 0 0 1 30 240 296 0 222 277 283 0 -225e-6 25e-5 .003
 0 0 -1 30 283 295 0 238 240 284 0 +225e-6 25e-5 -.003 0 1 0 16 238 285 0 ?223 2
22 285 283 0 0 1 30 284 294 0 285 283 286 0 +225e-6 -25e-5 .003 0 0 -1 16 285 28
6 0 ?235 238 287 284 0 0 1 30 286 342 0 287 284 288 0 +225e-6 -.00105 .003 0 0 1
 16 287 305 0 ?289 285 290 286 0 0 1 30 288 340 0 291 286 292 0 +225e-6 -.002085
65160708227 .00111774022630761 0 .624695047554426 .780868809443029 16 291 307 0
 ?293 290 294 288 0 0 1 30 292 338 0 295 288 296 0 +225e-6 -.00225 .003 0 0 1 16
 295 309 0 ?297 294 298 292 0 0 1 30 296 335 0 299 292 300 0 -225e-6 -.00275 .00
3 0 0 1 16 299 311 0 ?301 298 302 296 0 0 1 30 300 333 0 303 296 304 0 +225e-6 -
.00171434839291773 .00238225977369239 0 -.624695047554426 -.780868809443029 16 3
03 313 0 ?305 302 306 300 0 0 1 30 304 331 0 307 300 308 0 -225e-6 -.00155 .003
 0 0 1 16 307 315 0 ?309 306 310 304 0 0 1 30 308 409 0 282 304 311 0 --225e-6 .
00155 .00285078105935821 1 0 0 16 282 243 0 ?312 280 239 308 0 0 1 30 311 412 0
 250 308 313 0 +0 .00155 .003 1 0 0 16 250 108 0 ?207 314 246 311 0 0 1 30 313 4
14 0 314 311 315 0 -225e-6 0 .003 0 1 0 16 314 107 0 ?316 257 250 313 0 0 1 30 3
15 441 0 317 313 318 0 +225e-6 .00171434839291773 .00238225977369239 1 0 0 16 31
7 422 0 ?47 319 320 315 0 0 1 30 318 470 0 320 315 321 0 --225e-6 .0024760860118
0379 .001430087750084818 1 0 0 16 320 451 0 ?322 317 323 318 0 0 1 30 321 502 0
 323 318 324 0 +225e-6 .00275 .000649218940641788 -1 0 0 16 323 480 0 ?325 320 3
26 321 0 0 1 30 324 533 0 327 321 328 0 --225e-6 .00275 -.003 1 0 0 16 327 510 0
 ?329 326 330 324 0 0 1 30 328 535 0 271 324 331 0 +225e-6 .00155 -.003 0 1 0 16
 271 184 0 ?332 268 272 328 0 0 1 30 331 564 0 333 328 334 0 -0 .00225 -.003 1 0
 0 16 333 542 0 ?335 330 336 331 0 0 1 30 334 587 0 337 331 338 0 -225e-6 .00225
 .000649218940641788 1 0 0 16 337 572 0 ?339 336 340 334 0 0 1 30 338 619 0 340
 334 341 0 --225e-6 .00208565160708227 .00111774022630761 -1 0 0 16 340 598 0 ?6
1 337 342 338 0 0 1 30 341 646 0 343 338 344 0 -225e-6 .00132391398819621 .00206
991224991518 1 0 0 16 343 631 0 ?345 346 347 341 0 0 1 30 344 684 0 239 341 251
 0 +225e-6 .00105 .00285078105935821 1 0 0 16 239 264 0 ?69 282 222 344 0 0 1 30
 251 690 0 246 344 348 0 -0 .00105 .003 1 0 0 30 348 719 0 225 251 349 0 +-225e-
6 25e-5 .003 0 0 1 16 225 707 0 ?217 347 229 348 0 0 1 30 349 718 0 229 348 231
 0 --225e-6 25e-5 -.003 1 0 0 16 229 708 0 ?220 225 218 349 0 0 1 30 231 716 0 2
18 349 350 0 +-225e-6 25e-5 .003 1 0 0 30 350 739 0 230 231 351 0 +-225e-6 0 -.0
03 0 1 0 16 230 729 0 ?201 218 352 350 0 0 1 30 351 738 0 352 350 353 0 +0 -25e-
5 -.003 -1 0 0 16 352 730 0 ?354 230 355 351 0 0 1 30 353 759 0 355 351 356 0 +-
225e-6 -25e-5 .003 0 0 -1 16 355 751 0 ?196 352 244 353 0 0 1 30 356 758 0 244 3
53 357 0 -225e-6 -25e-5 .003 1 0 0 16 244 752 0 ?243 355 358 356 0 0 1 30 357 76
7 0 310 356 359 0 -225e-6 -.00105 .00285078105935821 1 0 0 16 310 369 0 ?155 307
 319 357 0 0 1 30 359 772 0 253 357 254 0 +0 -.00105 .003 1 0 0 16 253 116 0 ?16
1 247 262 359 0 0 1 30 254 774 0 247 359 360 0 -225e-6 0 .003 0 1 0 30 360 803 0
 358 254 361 0 +-225e-6 -.00132391398819621 .00206991224991518 -1 0 0 16 358 782
 0 ?153 244 362 360 0 0 1 30 361 828 0 362 360 363 0 -225e-6 -.00208565160708227
 .00111774022630761 1 0 0 16 362 812 0 ?364 358 365 361 0 0 1 30 363 860 0 365 3
61 366 0 +-225e-6 -.00225 .000649218940641788 1 0 0 16 365 840 0 ?83 362 367 363
 0 0 1 30 366 893 0 368 363 369 0 -225e-6 -.00225 -.003 1 0 0 16 368 871 0 ?370
 367 371 366 0 0 1 30 369 895 0 298 366 372 0 +225e-6 -.00155 -.003 0 1 0 16 298
 310 0 ?373 295 299 369 0 0 1 30 372 924 0 374 369 375 0 -0 -.00275 -.003 1 0 0
 16 374 903 0 ?376 371 377 372 0 0 1 30 375 949 0 377 372 378 0 --225e-6 -.00275
 .000649218940641788 1 0 0 16 377 929 0 ?379 374 380 375 0 0 1 30 378 981 0 381
 375 382 0 -225e-6 -.00247608601180379 .001430087750084818 1 0 0 16 381 958 0 ?3
83 380 384 378 0 0 1 30 382 1008 0 385 378 386 0 --225e-6 -.00171434839291773 .0
0238225977369239 1 0 0 16 385 988 0 ?387 384 388 382 0 0 1 30 386 1044 0 319 382
 389 0 +-225e-6 -.00155 .00285078105935821 1 0 0 16 319 390 0 ?97 310 317 386 0
 0 1 30 389 1050 0 262 386 390 0 -0 -.00155 .003 1 0 0 16 262 118 0 ?391 253 259
 389 0 0 1 30 390 1073 0 326 389 392 0 +-225e-6 .00275 .000649218940641788 0 0 1
 16 326 509 0 ?393 323 327 390 0 0 1 30 392 1116 0 394 390 395 0 +-225e-6 .00105
 .003 0 0 1 16 394 1079 0 ?396 397 398 392 0 0 1 30 395 1107 0 399 392 400 0 +-2
25e-6 .00171434839291773 .00238225977369239 0 .624695047554426 -.780868809443029
 16 399 1087 0 ?401 398 402 395 0 0 1 30 400 1105 0 403 395 404 0 --225e-6 .0015
5 .003 0 0 1 16 403 1089 0 ?405 402 406 400 0 0 1 30 404 1143 0 330 400 407 0 +-
225e-6 .0012 -.003 0 1 222044604925031e-30 16 330 541 0 ?184 327 333 404 0 0 1 3
0 407 1149 0 336 404 408 0 +-225e-6 .00225 .000649218940641788 0 0 -1 16 336 571
 0 ?180 333 337 407 0 0 1 30 408 1161 0 346 407 409 0 +-225e-6 .0013239139881962
1 .00206991224991518 0 .624695047554425 -.78086880944303 16 346 630 0 ?410 342 3
43 408 0 0 1 30 409 1189 0 411 408 412 0 +-225e-6 -25e-5 .003 0 1 0 16 411 1183
 0 ?228 406 413 409 0 0 1 30 412 1208 0 367 409 414 0 --225e-6 -.00225 .00064921
8940641788 0 0 -1 16 367 870 0 ?415 365 368 412 0 0 1 30 414 1250 0 413 412 416
 0 --225e-6 -.00155 .003 0 0 -1 16 413 1213 0 ?417 411 418 414 0 0 1 30 416 1241
 0 419 414 420 0 +-225e-6 -.00132391398819621 .00206991224991518 0 -.62469504755
4426 -.780868809443029 16 419 1221 0 ?421 418 19 416 0 0 1 30 420 1239 0 163 416
 422 0 +-225e-6 -.00105 .003 0 0 -1 16 163 1223 0 ?162 19 423 420 0 0 1 30 422 1
277 0 371 420 424 0 --225e-6 -.0012 -.003 0 -1 222044604925031e-30 16 371 902 0
 ?176 368 374 422 0 0 1 30 424 1283 0 380 422 425 0 --225e-6 -.00275 .0006492189
40641788 0 0 1 16 380 932 0 ?172 377 381 424 0 0 1 30 425 1294 0 388 424 426 0 -
-225e-6 -.00171434839291773 .00238225977369239 0 .624695047554424 .7808688094430
3 16 388 991 0 ?427 385 397 425 0 0 1 30 426 1314 0 406 425 428 0 +-225e-6 .0010
5 .003 0 1 0 16 406 1090 0 ?429 403 411 426 0 0 1 30 428 1336 0 423 426 430 0 +-
225e-6 -.00105 .003 0 1 0 16 423 1224 0 ?431 163 0 428 0 0 1 31 430 1358 0 25 42
8 432 0 -0 0 .0082 0 0 1 1 0 0 .00251246890528022 16 25 18 0 ?433 10 434 430 0 0
 1 31 432 1362 0 435 430 436 0 +0 0 .003 0 0 1 1 0 0 .00251246890528022 16 435 1
0 0 ?437 434 33 432 0 0 1 31 436 1366 0 263 432 438 0 -225e-6 .0023 .00285078105
935821 1 0 0 0 0 -1 75e-5 16 263 180 0 ?439 259 264 436 0 0 1 31 438 1370 0 267
 436 440 0 -225e-6 .0015 .000649218940641788 -1 0 0 0 0 1 .00125 16 267 182 0 ?4
41 264 268 438 0 0 1 31 440 1374 0 275 438 442 0 +225e-6 .0015 .0006492189406417
88 -1 0 0 0 0 1 75e-5 16 275 186 0 ?443 272 276 440 0 0 1 31 442 1378 0 279 440
 444 0 +225e-6 .0023 .00285078105935821 1 0 0 0 0 -1 .00125 16 279 188 0 ?445 27
6 280 442 0 0 1 31 444 1382 0 290 442 446 0 -225e-6 -.0023 .00285078105935821 -1
 0 0 0 0 1 .00125 16 290 306 0 ?447 287 291 444 0 0 1 31 446 1386 0 294 444 448
 0 -225e-6 -.0015 .000649218940641788 1 0 0 0 0 -1 75e-5 16 294 308 0 ?449 291 2
95 446 0 0 1 31 448 1390 0 302 446 450 0 +225e-6 -.0015 .000649218940641788 1 0
 0 0 0 -1 .00125 16 302 312 0 ?451 299 303 448 0 0 1 31 450 1394 0 306 448 452 0
 +225e-6 -.0023 .00285078105935821 -1 0 0 0 0 1 75e-5 16 306 314 0 ?453 303 307
 450 0 0 1 31 452 1398 0 342 450 454 0 --225e-6 .0015 .000649218940641788 -1 0 0
 0 0 1 75e-5 16 342 599 0 ?107 340 346 452 0 0 1 31 454 1402 0 347 452 455 0 +-2
25e-6 .0023 .00285078105935821 1 0 0 0 0 -1 .00125 16 347 659 0 ?113 343 225 454
 0 0 1 31 455 1406 0 384 454 456 0 +-225e-6 -.0015 .000649218940641788 1 0 0 0 0
 -1 .00125 16 384 961 0 ?457 381 385 455 0 0 1 31 456 1410 0 397 455 458 0 --225
e-6 -.0023 .00285078105935821 -1 0 0 0 0 1 75e-5 16 397 1017 0 ?459 388 394 456
 0 0 1 31 458 1414 0 398 456 460 0 +-225e-6 .0015 .000649218940641788 -1 0 0 0 0
 1 .00125 16 398 1086 0 ?133 394 399 458 0 0 1 31 460 1418 0 402 458 20 0 +-225e
-6 .0023 .00285078105935821 1 0 0 0 0 -1 75e-5 16 402 1088 0 ?461 399 403 460 0
 0 1 31 20 1422 0 418 460 7 0 +-225e-6 -.0015 .000649218940641788 1 0 0 0 0 -1 7
5e-5 16 418 1220 0 ?146 413 419 20 0 0 1 17 146 0 462 463 421 145 143 418 0 415
 +15 462 1212 0 459 16 0 17 463 0 462 464 146 148 415 367 0 370 -17 421 0 462 14
6 154 141 156 419 0 0 +17 143 0 465 86 466 141 146 418 0 364 -17 415 0 467 83 37
0 145 463 367 0 466 +15 467 868 0 415 468 0 17 83 0 467 469 415 81 466 365 0 470
 +17 370 0 467 415 469 148 178 368 0 0 +17 466 0 465 143 470 145 83 365 0 0 -15
 465 838 0 466 471 0 17 470 0 465 466 86 81 449 294 0 297 -17 86 0 465 470 143 7
7 364 362 0 472 -17 449 0 473 293 297 77 470 294 0 0 +17 297 0 473 449 373 81 46
9 295 0 0 +15 473 304 0 447 474 0 17 373 0 473 297 301 84 475 298 0 0 +17 469 0
 467 370 83 84 297 295 0 373 -17 301 0 473 373 451 94 476 299 0 0 +17 475 0 477
 376 178 94 373 298 0 301 -15 477 899 0 178 478 0 17 376 0 477 176 475 122 174 3
74 0 0 +17 178 0 477 475 176 84 370 368 0 469 -17 176 0 477 178 376 148 464 371
 0 463 +17 464 0 462 121 463 122 176 371 0 376 -17 121 0 462 117 464 118 172 380
 0 457 -17 117 0 462 124 121 115 457 384 0 427 -17 172 0 479 174 379 122 121 380
 0 464 +17 457 0 480 93 383 118 117 384 0 379 +15 480 957 0 481 482 0 17 93 0 48
0 481 457 90 379 377 0 476 -17 383 0 480 457 481 115 89 381 0 0 +17 379 0 479 17
2 476 118 93 377 0 0 +15 479 928 0 476 483 0 17 476 0 479 379 174 90 301 299 0 4
51 -17 174 0 479 476 172 94 376 374 0 475 -17 451 0 473 301 305 90 481 302 0 0 +
17 305 0 473 451 453 87 484 303 0 0 +17 481 0 480 383 93 87 451 302 0 305 -17 45
3 0 473 305 309 91 485 306 0 0 +17 484 0 486 387 89 91 305 303 0 453 -15 486 987
 0 484 487 0 17 387 0 486 427 484 119 100 385 0 0 +17 89 0 486 484 427 87 383 38
1 0 481 -17 427 0 486 89 387 115 124 388 0 383 +17 124 0 462 459 117 119 427 388
 0 488 -17 459 0 462 417 124 98 488 397 0 489 +17 488 0 490 100 489 119 459 397
 0 387 -15 490 1016 0 100 491 0 17 100 0 490 485 488 91 387 385 0 484 -17 489 0
 490 488 485 98 97 319 0 0 -17 485 0 490 489 100 95 453 306 0 309 -17 97 0 492 1
88 127 95 489 319 0 485 +15 492 388 0 97 493 0 17 188 0 492 391 97 52 309 307 0
 252 -17 127 0 492 97 391 98 417 413 0 459 -17 391 0 492 127 188 158 494 262 0 4
17 +17 417 0 462 431 459 158 127 413 0 0 +17 431 0 462 162 417 151 165 423 0 0 +
17 162 0 462 154 431 149 157 163 0 0 +17 165 0 242 494 164 158 431 423 0 391 -15
 242 105 0 164 241 495 17 494 0 242 496 165 52 391 262 0 0 -17 164 0 242 165 496
 151 161 253 0 431 -17 496 0 242 164 494 189 252 247 0 0 -17 161 0 160 497 157 1
89 164 253 0 289 +15 160 367 0 155 498 0 17 497 0 160 155 161 76 289 287 0 447 -
17 289 0 473 252 447 189 497 287 0 496 +17 252 0 473 309 289 52 496 247 0 494 +1
7 447 0 473 289 293 76 499 290 0 0 +17 293 0 473 447 449 73 472 291 0 0 +17 499
 0 152 153 79 73 447 290 0 293 -15 152 779 0 150 500 0 17 153 0 152 150 499 21 7
5 358 0 154 +17 79 0 152 499 150 76 155 310 0 497 -17 155 0 160 157 497 149 79 3
10 0 162 +17 75 0 501 472 156 73 153 358 0 499 -17 154 0 462 421 162 21 150 19 0
 0 +16 19 1222 0 ?154 419 163 7 0 0 1 15 501 809 0 156 502 0 17 472 0 501 364 75
 77 293 291 0 449 -17 156 0 501 75 364 21 421 419 0 153 -17 364 0 501 156 472 14
1 86 362 0 421 +14 502 807 503 ?500 471 501 5 504 -0 0 471 500 23 81 1 503 2798
 505 502 506 0 0 507 508 14 500 777 507 ?509 502 152 5 510 +0 0 502 509 23 14 47
1 836 511 ?502 468 465 5 512 -0 0 468 502 23 50 504 818 0 502 510 512 0 +225e-6
 -.00132391398819621 .00206991224991518 0 -.78086880944303 .624695047554425 0 -.
624695047554425 -.78086880944303 13 23 3 0 0 0 0 0 0 9 513 14 513 2 514 ?0 515 5
16 5 517 +0 0 515 0 23 81 1 514 2801 505 513 518 0 511 519 520 14 515 46 519 ?51
3 521 522 5 523 +0 0 521 513 23 15 516 8 0 433 513 0 51 517 6 0 513 0 523 0 +0 0
 .003 0 0 1 .00251246890528022 1 0 0 50 523 57 0 515 517 524 0 +.00185 -.0017 .0
03 1 0 0 0 0 -1 50 524 74 0 521 523 525 0 +0 0 .0082 0 0 1 1 0 0 14 521 67 526 ?
515 241 30 5 524 +0 0 241 515 23 50 525 135 0 241 524 527 0 +0 0 .003 0 0 1 1 0
 0 14 241 101 528 ?521 529 530 5 525 -0 0 529 521 23 50 527 203 0 529 525 531 0
 +225e-6 .00155 .003 1 0 0 0 0 -1 14 529 176 532 ?241 533 534 5 527 +0 0 533 241
 23 50 531 250 0 533 527 535 0 +-225e-6 .00155 .003 0 1 0 0 0 1 14 533 239 536 ?
529 537 538 5 531 +0 0 537 529 23 50 535 271 0 537 531 539 0 +225e-6 .00105 .003
 0 -1 0 0 0 -1 14 537 260 540 ?533 234 541 5 535 +0 0 234 533 23 50 539 292 0 23
4 535 542 0 +225e-6 25e-5 .003 1 0 0 0 0 -1 14 234 281 543 ?537 474 232 5 539 +0
 0 474 537 23 50 542 329 0 474 539 544 0 +225e-6 -.00155 .003 -1 0 0 0 0 1 14 47
4 302 545 ?234 498 473 5 542 -0 0 498 234 23 50 544 376 0 498 542 546 0 +225e-6
 -.00105 .003 0 -1 0 0 0 -1 14 498 365 547 ?474 493 160 5 544 -0 0 493 474 23 50
 546 397 0 493 544 548 0 +-225e-6 -.00155 .003 0 1 0 0 0 1 14 493 386 549 ?498 5
50 492 5 546 -0 0 550 498 23 51 548 428 0 550 546 551 0 +225e-6 .0023 .002850781
05935821 1 0 0 75e-5 0 0 -1 14 550 417 552 ?493 553 554 5 548 -0 0 553 493 23 50
 551 458 0 553 548 555 0 +-225e-6 .00171434839291773 .00238225977369239 0 .78086
880944303 .624695047554424 0 -.624695047554424 .78086880944303 14 553 447 556 ?5
50 557 558 5 551 +0 0 557 550 23 51 555 487 0 557 551 559 0 +225e-6 .0015 .00064
9218940641788 -1 0 0 .00125 0 0 1 14 557 476 560 ?553 561 562 5 555 +0 0 561 553
 23 50 559 517 0 561 555 563 0 +-225e-6 .00275 .000649218940641788 0 1 0 0 0 1 1
4 561 506 564 ?557 565 566 5 559 +0 0 565 557 23 50 563 548 0 565 559 567 0 +0 .
0012 -.003 0 222044604925031e-30 -1 0 1 222044604925031e-30 14 565 537 568 ?561
 569 570 5 563 +0 0 569 561 23 50 567 577 0 569 563 571 0 +225e-6 .00225 .000649
218940641788 0 -1 0 0 0 -1 14 569 566 572 ?565 573 574 5 567 +0 0 573 565 23 51
 571 606 0 573 567 575 0 +-225e-6 .0015 .000649218940641788 -1 0 0 75e-5 0 0 1 1
4 573 595 576 ?569 577 578 5 571 -0 0 577 569 23 50 575 636 0 577 571 579 0 +225
e-6 .00132391398819621 .00206991224991518 0 -.78086880944303 -.624695047554425 0
 .624695047554425 -.78086880944303 14 577 625 580 ?573 581 582 5 575 +0 0 581 57
3 23 51 579 665 0 581 575 583 0 +-225e-6 .0023 .00285078105935821 1 0 0 .00125 0
 0 -1 14 581 654 584 ?577 221 585 5 579 +0 0 221 577 23 50 583 715 0 221 579 586
 0 +-225e-6 25e-5 .003 0 1 0 0 0 1 14 221 704 587 ?581 588 215 5 583 +0 0 588 58
1 23 50 586 736 0 588 583 589 0 +0 0 -.003 0 0 -1 -1 0 0 14 588 725 590 ?221 509
 591 5 586 +0 0 509 221 23 50 589 757 0 509 586 510 0 +225e-6 -25e-5 .003 0 -1 0
 0 0 -1 14 509 746 592 ?588 500 593 5 589 +0 0 500 588 23 51 510 788 0 500 589 5
04 0 +-225e-6 -.0023 .00285078105935821 -1 0 0 .00125 0 0 1 81 1 592 2823 505 50
9 594 0 590 595 596 15 593 748 0 209 509 0 17 209 0 593 245 196 80 354 352 0 237
 -17 245 0 593 243 209 191 235 285 0 233 -17 196 0 593 209 243 194 597 355 0 598
 +17 354 0 591 201 237 194 209 352 0 0 +17 237 0 591 354 211 80 223 238 0 235 -1
5 591 727 0 201 588 0 17 211 0 591 237 201 111 220 229 0 216 -17 235 0 232 223 2
33 80 245 285 0 0 +17 201 0 591 211 354 114 598 230 0 224 +17 220 0 215 217 216
 114 211 229 0 0 +17 598 0 599 597 224 194 201 230 0 354 -17 224 0 599 598 228 1
14 217 225 0 220 -15 599 1179 0 598 600 0 17 228 0 599 224 597 197 193 411 0 217
 +17 597 0 599 228 598 147 196 355 0 243 -17 193 0 226 213 199 147 228 411 0 597
 -17 243 0 593 196 245 147 213 244 0 0 +14 600 1177 595 ?601 16 599 5 18 +0 0 16
 601 23 81 1 595 2824 505 600 602 0 592 603 604 14 601 1076 603 ?491 600 605 5 6
06 +0 0 600 491 23 14 16 1210 607 ?600 0 462 5 6 -0 0 0 600 23 50 18 1188 0 600
 606 6 0 +-225e-6 -25e-5 .003 -1 0 0 0 0 1 50 606 1103 0 601 608 18 0 +-225e-6 .
00105 .003 -1 0 0 0 0 1 51 608 1025 0 491 609 606 0 +225e-6 -.0023 .002850781059
35821 -1 0 0 75e-5 0 0 1 14 491 1014 610 ?487 601 490 5 608 -0 0 601 487 23 50 6
09 996 0 487 611 608 0 +-225e-6 -.00171434839291773 .00238225977369239 0 .780868
80944303 -.624695047554424 0 .624695047554424 .78086880944303 14 487 985 612 ?48
2 491 486 5 609 -0 0 491 482 23 51 611 966 0 482 613 609 0 +225e-6 -.0015 .00064
9218940641788 1 0 0 .00125 0 0 -1 14 482 955 614 ?483 487 480 5 611 +0 0 487 483
 23 50 613 937 0 483 615 611 0 +-225e-6 -.00275 .000649218940641788 0 1 0 0 0 1
 14 483 926 616 ?478 482 479 5 613 -0 0 482 478 23 50 615 908 0 478 617 613 0 +0
 -.0012 -.003 0 222044604925031e-30 1 0 -1 222044604925031e-30 14 478 897 618 ?4
68 483 477 5 615 -0 0 483 468 23 50 617 877 0 468 512 615 0 +225e-6 -.00225 .000
649218940641788 0 -1 0 0 0 -1 14 468 866 619 ?471 478 467 5 617 -0 0 478 471 23
 51 512 847 0 471 504 617 0 +-225e-6 -.0015 .000649218940641788 1 0 0 75e-5 0 0
 -1 81 1 619 2832 505 468 620 0 618 0 621 80 1 505 622 623 9000 1 1 1 1 1 1 1 1
 0 FFFFTFTFFFFFFF1 81 1 620 2692 624 468 0 619 625 626 627 81 1 618 2831 505 478
 625 0 616 619 628 82 1 621 -1336999719 81 1 625 2691 624 478 0 618 629 620 630
 81 1 616 2830 505 483 629 0 614 618 631 82 1 628 -1336868647 81 1 629 2690 624
 483 0 616 632 625 633 81 1 614 2829 505 482 632 0 612 616 634 82 1 631 -1336737
575 81 1 632 2689 624 482 0 614 635 629 636 81 1 612 2828 505 487 635 0 610 614
 637 82 1 634 -1374355239 81 1 635 2688 624 487 0 612 638 632 639 81 1 610 2827
 505 491 638 0 607 612 640 82 1 637 -1336540967 81 1 638 2687 624 491 0 610 641
 635 642 81 1 607 2826 505 16 643 0 603 610 644 82 1 640 -1373175591 81 1 643 26
84 624 16 0 607 0 602 645 81 1 603 2825 505 601 641 0 595 607 646 82 1 644 -1336
082215 81 1 641 2686 624 601 0 603 602 638 647 82 1 646 -1336344359 80 1 624 0 6
48 8001 0 0 0 0 3 5 0 0 0 FFFFTFTFFFFFFF2 81 1 602 2685 624 600 0 595 643 641 64
9 83 3 647 .749019607843137 .749019607843137 .749019607843137 83 3 649 .74901960
7843137 .749019607843137 .749019607843137 79 15 648 SDL/TYSA_COLOUR83 3 645 .749
019607843137 .749019607843137 .749019607843137 83 3 642 .749019607843137 .749019
607843137 .749019607843137 83 3 639 .749019607843137 .749019607843137 .749019607
843137 83 3 636 .749019607843137 .749019607843137 .749019607843137 83 3 633 .749
019607843137 .749019607843137 .749019607843137 83 3 630 .749019607843137 .749019
607843137 .749019607843137 81 1 626 2693 624 471 0 511 620 506 650 83 3 627 .749
019607843137 .749019607843137 .749019607843137 81 1 511 2800 505 471 626 0 507 5
14 651 81 1 506 2694 624 502 0 503 626 652 653 83 3 650 .749019607843137 .749019
607843137 .749019607843137 81 1 652 2695 624 500 0 507 506 594 654 83 3 653 .749
019607843137 .749019607843137 .749019607843137 81 1 507 2799 505 500 652 0 503 5
11 655 81 1 594 2696 624 509 0 592 652 656 657 83 3 654 .749019607843137 .749019
607843137 .749019607843137 81 1 656 2697 624 588 0 590 594 658 659 83 3 657 .749
019607843137 .749019607843137 .749019607843137 81 1 590 2822 505 588 656 0 587 5
92 660 81 1 658 2698 624 221 0 587 656 661 662 83 3 659 .749019607843137 .749019
607843137 .749019607843137 81 1 587 2821 505 221 658 0 584 590 663 81 1 661 2699
 624 581 0 584 658 664 665 83 3 662 .749019607843137 .749019607843137 .749019607
843137 81 1 584 2820 505 581 661 0 580 587 666 81 1 664 2700 624 577 0 580 661 6
67 668 83 3 665 .749019607843137 .749019607843137 .749019607843137 81 1 580 2819
 505 577 664 0 576 584 669 81 1 667 2701 624 573 0 576 664 670 671 83 3 668 .749
019607843137 .749019607843137 .749019607843137 81 1 576 2818 505 573 667 0 572 5
80 672 81 1 670 2702 624 569 0 572 667 673 674 83 3 671 .749019607843137 .749019
607843137 .749019607843137 81 1 572 2817 505 569 670 0 568 576 675 81 1 673 2703
 624 565 0 568 670 676 677 83 3 674 .749019607843137 .749019607843137 .749019607
843137 81 1 568 2816 505 565 673 0 564 572 678 81 1 676 2704 624 561 0 564 673 6
79 680 83 3 677 .749019607843137 .749019607843137 .749019607843137 81 1 564 2815
 505 561 676 0 560 568 681 81 1 679 2705 624 557 0 560 676 682 683 83 3 680 .749
019607843137 .749019607843137 .749019607843137 81 1 560 2814 505 557 679 0 556 5
64 684 81 1 682 2706 624 553 0 556 679 685 686 83 3 683 .749019607843137 .749019
607843137 .749019607843137 81 1 556 2813 505 553 682 0 552 560 687 81 1 685 2707
 624 550 0 552 682 688 689 83 3 686 .749019607843137 .749019607843137 .749019607
843137 81 1 552 2812 505 550 685 0 549 556 690 81 1 688 2708 624 493 0 549 685 6
91 692 83 3 689 .749019607843137 .749019607843137 .749019607843137 81 1 549 2811
 505 493 688 0 547 552 693 81 1 691 2709 624 498 0 547 688 694 695 83 3 692 .749
019607843137 .749019607843137 .749019607843137 81 1 547 2810 505 498 691 0 545 5
49 696 81 1 694 2710 624 474 0 545 691 697 698 83 3 695 .749019607843137 .749019
607843137 .749019607843137 81 1 545 2809 505 474 694 0 543 547 699 81 1 697 2711
 624 234 0 543 694 700 701 83 3 698 .749019607843137 .749019607843137 .749019607
843137 81 1 543 2808 505 234 697 0 540 545 702 81 1 700 2712 624 537 0 540 697 7
03 704 83 3 701 .749019607843137 .749019607843137 .749019607843137 81 1 540 2807
 505 537 700 0 536 543 705 81 1 703 2713 624 533 0 536 700 706 707 83 3 704 .749
019607843137 .749019607843137 .749019607843137 81 1 536 2806 505 533 703 0 532 5
40 708 81 1 706 2714 624 529 0 532 703 709 710 83 3 707 .749019607843137 .749019
607843137 .749019607843137 81 1 532 2805 505 529 706 0 528 536 711 81 1 709 2715
 624 241 0 528 706 712 713 83 3 710 .749019607843137 .749019607843137 .749019607
843137 81 1 528 2804 505 241 709 0 526 532 714 81 1 712 2716 624 521 0 526 709 7
15 716 83 3 713 .1529411764705885 .1529411764705885 .1529411764705885 81 1 526 2
803 505 521 712 0 519 528 717 81 1 715 2717 624 515 0 519 712 518 718 83 3 716 .
1529411764705885 .1529411764705885 .1529411764705885 81 1 519 2802 505 515 715 0
 514 526 719 81 1 518 2718 624 513 0 514 715 0 720 83 3 718 .1529411764705885 .1
529411764705885 .1529411764705885 83 3 720 .1529411764705885 .1529411764705885 .
1529411764705885 82 1 719 -1361313575 82 1 717 -1338965799 82 1 714 -1343618855
 82 1 711 -1360396071 82 1 708 -1338572583 82 1 705 -1338441511 82 1 702 -133831
0439 82 1 699 -1364852519 82 1 696 -1361575719 82 1 693 -1361706791 82 1 690 -13
62100007 82 1 687 -1345716007 82 1 684 -1372323623 82 1 681 -1346043687 82 1 678
 -1346174759 82 1 675 -1346305831 82 1 672 -1370554151 82 1 669 -1337392935 82 1
 666 -1369767719 82 1 663 -1337720615 82 1 660 -1337851687 82 1 655 -1367146279
 82 1 651 -1366818599 79 14 623 SWEntUnchanged15 605 1078 0 721 601 0 17 721 0 6
05 396 722 70 113 347 0 723 -17 396 0 605 429 721 144 110 394 0 0 +17 722 0 605
 721 107 108 410 346 0 345 -17 113 0 585 72 723 108 721 347 0 722 +17 723 0 585
 113 724 70 69 239 0 0 -15 585 656 0 72 581 0 17 724 0 585 723 72 67 445 279 0 2
81 -17 69 0 541 204 110 67 723 239 0 724 +15 541 262 0 69 537 0 17 204 0 541 249
 69 202 281 280 0 316 -17 110 0 541 69 249 70 396 394 0 721 -17 249 0 541 110 20
4 144 725 246 0 396 +17 725 0 530 726 168 202 249 246 0 0 -15 530 103 0 727 241
 226 17 726 0 530 727 725 42 316 314 0 0 -17 168 0 530 725 727 144 429 406 0 249
 -17 727 0 530 168 726 138 207 250 0 429 -17 429 0 605 405 396 138 168 406 0 0 +
17 405 0 605 461 429 135 170 403 0 0 +17 461 0 605 401 405 131 137 402 0 0 +17 1
70 0 538 207 312 138 405 403 0 727 -15 538 241 0 312 533 0 17 207 0 538 728 170
 42 727 250 0 261 +17 312 0 538 170 728 135 51 282 0 405 +17 728 0 538 312 207 4
8 261 259 0 439 -17 51 0 554 729 137 48 312 282 0 728 -15 554 419 0 729 550 0 17
 729 0 554 730 51 45 439 263 0 266 -17 137 0 554 51 730 135 461 402 0 312 -17 73
0 0 554 137 729 131 47 317 0 461 -17 47 0 558 731 140 45 730 317 0 729 +15 558 4
49 0 322 553 0 17 731 0 558 322 47 49 266 264 0 441 -17 140 0 558 47 322 131 401
 399 0 730 -17 322 0 558 140 731 125 58 320 0 401 +17 401 0 605 133 461 125 140
 399 0 0 +17 133 0 605 732 401 128 130 398 0 393 +17 732 0 605 733 133 134 393 3
26 0 329 -17 130 0 562 58 325 125 133 398 0 322 -17 393 0 566 55 329 128 732 326
 0 325 +15 566 508 0 329 561 0 17 55 0 566 734 393 53 325 323 0 735 -17 329 0 56
6 393 734 134 186 327 0 0 +17 325 0 562 130 735 128 55 323 0 0 +15 562 478 0 325
 557 0 17 735 0 562 325 58 53 441 267 0 270 -17 58 0 562 735 130 49 322 320 0 73
1 -17 441 0 534 266 270 49 735 267 0 0 +17 270 0 534 441 332 53 734 268 0 0 +15
 534 178 0 439 529 0 17 332 0 534 270 274 56 736 271 0 0 +17 734 0 566 329 55 56
 270 268 0 332 -17 274 0 534 332 443 66 737 272 0 0 +17 736 0 570 335 186 66 332
 271 0 274 -15 570 539 0 184 565 0 17 335 0 570 184 736 104 182 333 0 0 +17 186
 0 570 736 184 56 329 327 0 734 -17 184 0 570 186 335 134 733 330 0 732 +17 733
 0 605 738 732 104 184 330 0 335 -17 738 0 605 107 733 101 180 336 0 339 -17 107
 0 605 722 738 105 103 342 0 410 +17 180 0 574 182 339 104 738 336 0 733 +17 339
 0 574 180 737 101 65 337 0 0 +15 574 568 0 182 569 0 17 737 0 574 339 182 62 27
4 272 0 443 -17 65 0 578 739 103 62 339 337 0 737 -15 578 597 0 103 573 0 17 739
 0 578 740 65 59 443 275 0 278 -17 103 0 578 65 740 101 107 342 0 738 -17 740 0
 578 103 739 105 61 340 0 0 -17 61 0 582 741 410 59 740 340 0 739 +15 582 627 0
 61 577 0 17 741 0 582 345 61 63 278 276 0 445 -17 410 0 582 61 345 105 722 346
 0 740 +17 345 0 582 410 741 108 72 343 0 0 +17 72 0 585 724 113 63 345 343 0 74
1 -17 278 0 534 443 445 59 741 276 0 0 +17 445 0 534 278 281 63 724 279 0 0 +17
 281 0 534 445 316 67 204 280 0 0 +17 316 0 534 281 261 202 726 314 0 725 +17 26
1 0 534 316 439 42 728 259 0 726 +17 439 0 534 261 266 48 729 263 0 0 +17 266 0
 534 439 441 45 731 264 0 0 +17 443 0 534 274 278 62 739 275 0 0 +17 182 0 574 7
37 180 66 335 333 0 736 -82 1 604 -1336213287 82 1 596 -1337982759 15 30 69 0 27
 521 0 17 433 0 516 24 742 11 31 25 0 0 +17 24 0 516 437 433 39 34 10 0 0 +17 74
2 0 516 433 437 28 743 434 0 0 +17 31 0 30 27 27 28 433 25 0 742 -17 437 0 516 7
42 24 35 41 435 0 0 +17 743 0 522 744 32 35 742 434 0 437 -16 434 14 0 ?742 25 4
35 745 0 0 1 30 745 85 0 434 0 26 0 +.00185 -.0017 .003 0 0 1 30 26 87 0 10 745
 258 0 -.00185 .0017 .003 0 0 1 30 258 89 0 33 26 255 0 -.00185 -.0017 .0082 0 1
 0 16 33 50 0 ?32 435 257 258 0 0 1 17 32 0 522 743 34 28 27 33 0 31 +16 257 52
 0 ?744 33 314 255 0 0 1 17 744 0 522 34 743 39 44 257 0 24 +15 522 48 0 32 515
 0 17 34 0 522 32 744 11 24 10 0 433 -17 44 0 495 41 41 35 744 257 0 743 -15 495
 106 0 44 241 0 17 41 0 495 44 44 39 437 435 0 744 -82 1 520 -1361444647 82 1 50
8 -1366949671 17 309 0 473 453 252 95 188 307 0 0 +19 17 1355 0 1 0 9 5 S0 74 20
 15 8 0 0 746 747 619 748 749 518 13 2 0 0 0 0 0 0 0 0 0 0 0 0 81 2 746 1430 750
 1 0 747 0 0 0 751 81 2 747 1431 752 1 746 748 0 0 0 753 81 1 748 2214 754 1 747
 749 0 0 755 81 2 749 2645 756 1 748 13 0 0 0 757 81 2 13 2724 758 1 749 2 0 0 0
 0 80 2 758 759 760 9000 0 0 0 0 3 5 0 0 0 FFTFFFFFFFFFFF9 1 79 16 760 BODY_RECI
PE_200180 2 756 761 762 9000 0 0 0 0 3 5 0 0 0 FFTFFFFFFFFFFF9 1 82 1 757 1 79 2
4 762 BODY_IN_LIGHTWEIGHT_PERM80 1 754 763 764 9000 1 1 1 1 1 1 1 1 0 FFTFFFFFFF
FFFF1 82 1 755 372078 79 10 764 BODY_MATCH80 2 752 765 766 9000 0 0 0 0 3 5 0 0
 0 FFTFFFFFFFFFFT9 1 82 1 753 172 79 19 766 ENT_TIME_STAMP_200180 2 750 767 768
 9000 0 0 0 0 3 5 0 0 0 FFTFFFFFFFFFFF9 1 82 1 751 110 79 30 768 LAST_BODY_MODIF
YING_FEATURE_ID80 2 12 769 770 9000 0 0 0 0 3 5 0 0 0 FFTFFFFFFFFFFF9 1 82 1 14
 106 79 12 770 ATOM_ID_20011 0 
