**ABCDEFGHIJKLMNOPQRSTUVWXYZabcdefghijklmnopqrstuvwxyz**************************
**PARASOLID !"#$%&'()*+,-./:;<=>?@[\]^_`{|}~0123456789**************************
**PART1;
MC=AMD64;
MC_MODEL=Intel64 Family 6 Model 158 Stepping 10, GenuineIntel;
MC_ID=unknown;
OS=Windows_NT;
OS_RELEASE=unknown;
FRU=Parasolid Version 31.1, build 290,  3- 9-2020;
APPL=SOLIDWORKS 2020-2020196;
SITE=;
USER=unknown;
FORMAT=text;
GUISE=transmit;
KEY=Trimmer 3296;
FILE=Trimmer 3296.x_t;
DATE=Sat Apr 17 03:35:35 2021;
**PART2;
SCH=SCH_3101290_31100;
USFLD_SIZE=0;
**PART3;
**END_OF_HEADER*****************************************************************
T51 : TRANSMIT FILE created by modeller version 310129017 SCH_2800000_280020 10
 1 5 2 3 0 0 0 0 0 1e3 1e-8 0 0 0 1 0 1 4 81 2 2 5 5 1 0 0 0 0 0 0 70 3 0 4 T1 0
 0 1 20 1 6 6 11 4 3 0 1 7 8 1 9 0 0 0 12 7 259 10 11 0 0 0 0 1e3 1e-8 4 12 0 1
 0 1 1 13 14 15 16 17 18 19 0 0 0 0 0 0 0 100 8 4 4 0 0 1 0 0 0 1 0 0 0 1 0 0 0
 1 0 ?11 9 1 0 1 12 20 1 0 4 0 0 12 12 1207 21 22 0 0 0 0 1e3 1e-8 9 23 7 1 0 1
 1 24 25 26 27 28 29 30 0 0 0 0 0 0 0 100 20 2 9 0 0 1 0 0 0 1 0 0 0 1 0 0 0 1 0
 ?81 1 21 1207 31 12 0 0 0 0 0 70 22 0 4 T12 0 0 3 20 1 32 32 13 24 94 0 12 0 33
 0 0 34 0 50 25 93 0 35 36 0 0 +.0022 .01 -.002 -1 0 0 0 0 1 31 26 988 0 29 37 0
 0 --.00508 25e-5 -622120573966856e-33 0 1 0 0 0 1 3e-4 29 27 70 0 38 39 0 .0022
 0 .003 19 28 28 0 12 34 0 40 V0 16 29 985 0 ?41 0 42 26 0 0 12 18 30 25 0 43 0
 44 45 ?12 17 43 0 46 47 48 30 49 50 0 51 +18 44 22 0 48 30 52 53 ?12 29 45 27 0
 30 53 54 .0022 .01 .003 29 53 24 0 44 55 45 -.0074 .01 .003 29 54 73 0 56 45 57
 .0022 0 -.002 18 56 64 0 58 59 60 54 ?12 29 57 72 0 59 54 39 -.0074 0 -.002 18
 59 63 0 61 62 56 57 ?12 29 39 71 0 62 57 27 -.0074 0 .003 18 62 62 0 63 38 59 3
9 ?12 17 63 0 64 65 61 62 66 67 0 68 +18 38 61 0 69 70 62 27 ?12 17 69 0 71 51 7
2 38 73 74 0 75 +18 70 16 0 47 52 38 76 ?12 17 47 0 46 77 43 70 78 79 0 80 +18 5
2 19 0 81 44 70 55 ?12 29 76 18 0 70 82 55 .0022 .01 -.002 29 82 670 0 60 83 76
 -.0069 5e-4 -.0016 29 55 21 0 52 76 53 -.0074 .01 -.002 18 60 483 0 84 56 85 82
 ?12 29 83 671 0 85 86 82 -.0074 5e-4 -.002 18 85 466 0 87 60 88 83 ?12 29 86 67
4 0 88 89 83 .0017 .0095 -.0016 18 88 475 0 90 85 91 86 ?12 29 89 675 0 91 92 86
 .0022 .0095 -.002 18 91 464 0 93 88 94 89 ?12 29 92 676 0 94 95 89 -.0069 .01 -
.0016 18 94 446 0 96 91 97 92 ?12 29 95 686 0 98 99 92 -.0074 .0095 -.002 18 98
 451 0 100 101 102 95 ?12 29 99 687 0 102 103 95 -.0069 .0095 -.002 18 102 471 0
 104 98 105 99 ?12 29 103 688 0 105 106 99 -.0069 .01 -.002 18 105 465 0 107 102
 108 103 ?12 29 106 689 0 97 109 103 -.0074 .0095 -.0016 18 97 459 0 110 94 101
 106 ?12 29 109 690 0 101 111 106 -.0069 .0095 -.0016 18 101 472 0 112 97 98 109
 ?12 29 111 693 0 113 114 109 .0017 .01 -.002 18 113 452 0 115 116 117 111 ?12 2
9 114 694 0 117 118 111 .0017 .0095 -.002 18 117 476 0 119 113 120 114 ?12 29 11
8 696 0 108 121 114 .0017 .01 -.0016 18 108 460 0 122 105 116 118 ?12 29 121 697
 0 116 123 118 .0022 .0095 -.0016 18 116 445 0 124 108 113 121 ?12 29 123 698 0
 125 126 121 .0022 5e-4 -.002 18 125 449 0 127 128 129 123 ?12 29 126 699 0 129
 130 123 .0017 5e-4 -.002 18 129 479 0 131 125 132 126 ?12 29 130 700 0 132 133
 126 .0017 0 -.002 18 132 467 0 134 129 135 130 ?12 29 133 701 0 120 136 130 .00
22 5e-4 -.0016 18 120 457 0 137 117 128 133 ?12 29 136 702 0 128 138 133 .0017 5
e-4 -.0016 18 128 480 0 139 120 125 136 ?12 29 138 705 0 140 141 136 -.0069 -857
252759403146e-34 -.002 18 140 450 0 142 135 143 138 ?12 29 141 706 0 143 144 138
 -.0069 5e-4 -.002 18 143 484 0 145 140 146 141 ?12 29 144 709 0 135 147 141 -.0
074 5e-4 -.0016 18 135 447 0 148 132 140 144 ?12 29 147 887 0 149 150 144 -.0069
 0 .003 18 149 840 0 151 152 153 147 ?12 29 150 888 0 153 154 147 .0017 0 .003 1
8 153 842 0 155 149 0 150 ?12 29 154 891 0 146 156 150 -.0069 25e-5 .003 18 146
 837 0 157 143 158 154 ?12 29 156 892 0 158 159 154 .0017 25e-5 .003 18 158 839
 0 160 146 161 156 ?12 29 159 893 0 161 162 156 .0017 25e-5 -.0016 18 161 841 0
 163 158 152 159 ?12 29 162 894 0 152 0 159 -.0069 25e-5 -.0016 18 152 843 0 164
 161 149 162 ?12 17 164 0 165 166 167 152 157 168 0 169 +15 165 863 0 164 33 170
 17 166 0 165 171 164 161 169 172 0 173 +17 167 0 165 164 171 146 174 175 0 176
 +17 157 0 177 178 179 146 164 168 0 167 -16 168 809 0 ?164 172 180 181 0 0 12 1
7 169 0 182 84 173 152 166 172 0 179 -15 182 774 0 169 183 0 17 84 0 182 184 169
 60 179 185 0 186 -17 173 0 182 169 187 161 139 188 0 0 -16 172 821 0 ?166 189 1
68 190 0 0 12 17 179 0 177 157 186 152 84 185 0 0 +15 177 574 0 191 192 0 17 186
 0 177 179 191 60 145 193 0 194 -16 185 304 0 ?179 195 196 197 0 0 12 16 195 444
 0 ?198 193 185 199 0 0 12 16 196 301 0 ?194 185 200 201 0 0 12 30 197 667 0 185
 201 202 0 +-.0069 -857252759403146e-34 -.0016 0 -1 0 30 201 668 0 196 203 197 0
 +-.0074 5e-4 -.0016 1 -2168404344971005e-31 0 30 202 664 0 204 197 205 0 +-.007
4 5e-4 -.002 1 -2168404344971005e-31 0 16 204 441 0 ?206 200 207 202 0 0 12 30 2
05 663 0 200 202 208 0 +-.0069 -857252759403146e-34 -.002 0 -1 0 16 200 437 0 ?2
09 196 204 205 0 0 12 30 208 660 0 210 205 211 0 +-.0069 -857252759403146e-34 -.
0016 -135525271560688e-30 0 -1 16 210 436 0 ?142 212 193 208 0 0 12 30 211 659 0
 193 208 199 0 +-.0069 5e-4 -.0016 -135525271560688e-30 0 -1 16 193 440 0 ?145 2
10 195 211 0 0 12 30 199 658 0 195 211 213 0 +-.0074 5e-4 -.0016 -13552527156068
8e-30 0 -1 30 213 655 0 188 199 214 0 +.0017 0 -.0016 0 1 0 16 188 771 0 ?139 21
5 216 213 0 0 12 30 214 654 0 215 213 217 0 +.0022 5e-4 -.0016 1 0 0 16 215 311
 0 ?218 219 188 214 0 0 12 30 217 651 0 212 214 220 0 +.0017 0 -.002 0 1 0 16 21
2 421 0 ?221 216 210 217 0 0 12 30 220 650 0 216 217 222 0 +.0022 5e-4 -.002 1 0
 0 16 216 417 0 ?223 188 212 220 0 0 12 30 222 649 0 224 220 225 0 +.0022 5e-4 -
.0016 -135525271560688e-30 0 -1 16 224 416 0 ?127 226 227 222 0 0 12 30 225 648
 0 227 222 228 0 +.0017 5e-4 -.0016 -135525271560688e-30 0 -1 16 227 420 0 ?131
 224 219 225 0 0 12 30 228 647 0 219 225 229 0 +.0017 0 -.0016 -135525271560688e
-30 0 -1 16 219 424 0 ?230 227 215 228 0 0 12 30 229 644 0 231 228 232 0 +.0022
 .0095 -.0016 -1 0 0 16 231 289 0 ?233 234 235 229 0 0 12 30 232 643 0 234 229 2
36 0 +.0017 .01 -.0016 0 1 0 16 234 292 0 ?237 238 231 232 0 0 12 30 236 640 0 2
26 232 239 0 +.0022 .0095 -.002 -1 0 0 16 226 409 0 ?240 235 224 236 0 0 12 30 2
39 639 0 235 236 241 0 +.0017 .01 -.002 0 1 0 16 235 405 0 ?242 231 226 239 0 0
 12 30 241 636 0 243 239 244 0 +.0017 .01 -.0016 -135525271560688e-30 0 -1 16 24
3 404 0 ?115 245 246 241 0 0 12 30 244 635 0 246 241 247 0 +.0017 .0095 -.0016 -
135525271560688e-30 0 -1 16 246 408 0 ?119 243 238 244 0 0 12 30 247 634 0 238 2
44 248 0 +.0022 .0095 -.0016 -135525271560688e-30 0 -1 16 238 412 0 ?249 246 234
 247 0 0 12 30 248 631 0 250 247 251 0 +-.0069 .01 -.0016 173472347597681e-29 -1
 0 16 250 295 0 ?252 253 254 248 0 0 12 30 251 630 0 253 248 255 0 +-.0074 .0095
 -.0016 -1 3469446951953605e-30 0 16 253 298 0 ?256 257 250 251 0 0 12 30 255 62
7 0 245 251 258 0 +-.0069 .01 -.002 173472347597681e-29 -1 0 16 245 389 0 ?259 2
54 243 255 0 0 12 30 258 626 0 254 255 260 0 +-.0074 .0095 -.002 -1 346944695195
3605e-30 0 16 254 385 0 ?261 250 245 258 0 0 12 30 260 625 0 262 258 263 0 +-.00
74 .0095 -.0016 -135525271560688e-30 0 -1 16 262 384 0 ?100 264 265 260 0 0 12 3
0 263 624 0 265 260 266 0 +-.0069 .0095 -.0016 -135525271560688e-30 0 -1 16 265
 388 0 ?104 262 257 263 0 0 12 30 266 623 0 257 263 267 0 +-.0069 .01 -.0016 -13
5525271560688e-30 0 -1 16 257 392 0 ?268 265 253 266 0 0 12 30 267 605 0 264 266
 269 0 +.0022 .01 -.0016 1 0 -135525271560688e-30 16 264 360 0 ?122 270 262 267
 0 0 12 30 269 604 0 270 267 271 0 +-.0074 .01 -.0016 0 1 0 16 270 353 0 ?110 27
2 264 269 0 0 12 30 271 603 0 272 269 273 0 +.0022 .01 -.0016 0 -1 0 16 272 340
 0 ?137 274 270 271 0 0 12 30 273 5 0 79 271 275 0 +.0022 .01 -.002 0 0 -1 16 79
 4 0 ?47 276 277 273 0 0 12 30 275 8 0 278 273 279 0 +.0022 .01 -.002 -1 0 13552
5271560688e-30 16 278 7 0 ?77 280 276 275 276 276 12 30 279 11 0 280 275 281 0 +
-.0074 .01 -.002 0 0 1 16 280 10 0 ?48 50 278 279 0 0 12 30 281 14 0 50 279 282
 0 +.0022 .01 .003 1 0 -135525271560688e-30 16 50 13 0 ?43 283 280 281 0 0 12 30
 282 69 0 274 281 284 0 +.0022 0 -.002 0 0 -1 16 274 57 0 ?58 285 272 282 0 0 12
 30 284 68 0 286 282 287 0 +.0022 0 -.002 -1 0 135525271560688e-30 16 286 53 0 ?
288 67 285 284 285 285 12 30 287 67 0 67 284 289 0 +-.0074 0 -.002 0 0 1 16 67 4
9 0 ?63 74 286 287 0 0 12 30 289 66 0 277 287 290 0 +.0022 0 .003 1 0 -135525271
560688e-30 16 277 45 0 ?291 79 74 289 74 74 12 30 290 86 0 283 289 292 0 +.0022
 .01 .003 0 -1 0 16 283 74 0 ?75 293 50 290 0 0 12 30 292 87 0 293 290 294 0 +-.
0074 .01 .003 0 -1 0 16 293 75 0 ?68 295 283 292 0 0 12 30 294 88 0 296 292 297
 0 +-.0074 .01 -.002 0 -1 0 16 296 76 0 ?298 299 295 294 295 295 12 30 297 89 0
 300 294 301 0 +.0022 .01 -.002 0 -1 0 16 300 77 0 ?302 303 299 297 299 299 12 3
1 301 922 0 303 297 37 0 -0 25e-5 0 0 1 0 0 0 1 3e-4 16 303 919 0 ?304 42 300 30
1 0 0 12 31 37 955 0 42 301 26 0 --.00254 25e-5 -311060286983428e-33 0 1 0 0 0 1
 3e-4 16 42 952 0 ?305 29 303 37 0 0 12 17 305 0 306 305 305 0 307 42 0 0 +15 30
6 969 0 305 308 0 17 307 0 309 307 307 0 305 42 0 0 -15 309 954 0 307 33 165 14
 33 989 310 ?311 0 309 24 312 -0 0 311 0 40 81 1 310 1181 313 33 314 0 0 315 316
 14 311 801 315 ?317 33 318 24 319 +320 320 317 33 40 50 312 874 0 33 321 322 0
 +-.0069 25e-5 .003 0 1 0 0 0 1 13 40 29 0 0 0 0 0 0 28 33 51 321 945 0 323 324
 312 0 -0 -.00275 0 0 1 0 3e-4 0 0 1 50 322 601 0 192 312 325 0 +-.0069 -8572527
59403146e-34 -.0016 1 0 -135525271560688e-30 -135525271560688e-30 0 -1 14 192 57
1 326 ?327 328 177 24 322 +0 0 327 328 40 50 325 600 0 327 322 329 0 +-.0074 5e-
4 -.0016 2168404344971005e-31 1 -293873587705571e-46 -1 2168404344971005e-31 0 1
4 327 575 330 ?323 192 331 24 325 +0 0 323 192 40 50 329 598 0 332 325 333 0 +.0
022 5e-4 -.0016 0 1 0 0 0 1 14 332 551 334 ?328 335 336 24 329 +0 0 328 335 40 5
0 333 597 0 328 329 337 0 +.0017 0 -.0016 -1 0 135525271560688e-30 1355252715606
88e-30 0 1 14 328 555 338 ?192 332 339 24 333 +0 0 192 332 40 50 337 593 0 340 3
33 341 0 +.0017 .01 -.0016 -1 0 135525271560688e-30 135525271560688e-30 0 1 14 3
40 539 342 ?335 343 344 24 337 +0 0 335 343 40 50 341 592 0 335 337 345 0 +.0022
 .0095 -.0016 0 -1 0 0 0 -1 14 335 543 346 ?332 340 347 24 341 +0 0 332 340 40 5
0 345 590 0 348 341 349 0 +-.0074 .0095 -.0016 -3469446951953605e-30 -1 47019774
0328914e-45 1 -3469446951953605e-30 0 14 348 519 350 ?343 183 351 24 345 +0 0 34
3 183 40 50 349 589 0 343 345 352 0 +-.0069 .01 -.0016 1 173472347597681e-29 -13
5525271560688e-30 -173472347597681e-29 1 0 14 343 523 353 ?340 348 354 24 349 +0
 0 340 348 40 50 352 586 0 183 349 355 0 +-.0026 .005 -.0016 -135525271560688e-3
0 0 -1 -1 0 135525271560688e-30 14 183 485 356 ?348 357 182 24 352 +0 0 348 357
 40 50 355 2 0 357 352 319 0 +.0022 .01 .003 0 -1 0 0 0 -1 14 357 1 358 ?183 359
 46 24 355 -0 0 183 359 40 50 319 65 0 320 355 360 0 +.0022 0 .003 0 -1 0 0 0 -1
 14 320 158 361 ?35 362 363 24 319 +311 311 35 362 40 50 360 90 0 359 319 364 0
 +.0022 .01 .003 -135525271560688e-30 0 -1 -1 0 135525271560688e-30 14 359 79 36
5 ?357 35 71 24 360 -0 0 357 35 40 50 364 91 0 362 360 36 0 +-.0074 .01 -.002 1
 0 0 0 0 -1 14 362 216 366 ?320 367 64 24 364 -0 0 320 367 40 50 36 92 0 317 364
 25 0 +.0022 .01 -.002 135525271560688e-30 0 1 1 0 -135525271560688e-30 14 317 2
66 368 ?369 311 370 24 36 -369 367 369 311 40 81 1 368 1196 313 317 371 0 366 37
2 373 14 369 257 372 ?374 317 375 24 36 -374 317 374 317 40 15 370 264 0 261 317
 0 14 367 239 376 ?362 374 377 24 36 -317 374 362 374 40 81 1 376 1198 313 367 3
78 0 372 379 380 14 374 248 379 ?367 369 381 24 36 -367 369 367 369 40 15 377 23
7 0 209 367 0 17 209 0 377 382 206 140 191 200 0 383 +17 382 0 377 384 209 59 38
3 285 0 66 +17 206 0 377 209 384 143 87 204 0 0 +17 191 0 177 186 142 143 209 20
0 0 206 -17 383 0 318 151 66 140 382 285 0 0 -15 318 804 0 151 311 0 17 151 0 31
8 385 383 149 142 210 0 178 -17 66 0 318 383 385 59 63 67 0 0 -16 285 145 0 ?382
 286 274 284 286 286 12 17 385 0 318 66 151 62 291 277 0 0 -17 291 0 71 176 68 1
49 385 277 0 0 +15 71 785 0 291 359 0 17 176 0 71 174 291 146 178 207 0 0 -17 68
 0 71 291 49 62 65 293 0 385 +17 49 0 71 68 51 44 43 50 0 0 -17 65 0 64 386 63 4
4 68 293 0 49 -15 64 214 0 387 362 0 17 386 0 64 298 65 52 48 280 0 0 -17 298 0
 64 387 386 98 388 296 0 0 +17 48 0 46 43 81 44 386 280 0 65 +15 46 3 0 389 357
 0 17 81 0 46 48 268 52 390 276 0 388 +17 268 0 46 81 391 105 392 257 0 390 +17
 390 0 370 259 388 105 81 276 0 0 -16 276 175 0 ?81 278 79 275 278 278 12 17 388
 0 370 390 261 52 298 296 0 386 -17 261 0 370 388 259 98 393 254 0 298 +17 259 0
 370 261 390 102 107 245 0 0 +17 393 0 351 112 100 102 261 254 0 259 -15 351 522
 0 393 348 0 17 112 0 351 256 393 101 104 265 0 394 -17 100 0 351 393 256 98 387
 262 0 261 +17 256 0 351 100 112 97 394 253 0 387 +17 387 0 64 395 298 97 100 26
2 0 0 -17 395 0 64 198 387 135 110 270 0 0 -17 198 0 64 61 395 85 148 195 0 384
 +17 110 0 182 394 184 97 395 270 0 256 +17 394 0 182 96 110 101 256 253 0 252 -
17 184 0 182 110 84 135 194 196 0 395 -17 194 0 331 145 148 60 184 196 0 0 +15 3
31 578 0 87 327 0 17 145 0 331 87 194 143 186 193 0 191 +17 148 0 331 194 87 135
 198 195 0 184 -17 87 0 331 148 145 85 206 204 0 198 -17 96 0 182 122 394 94 252
 250 0 392 -17 252 0 354 104 392 101 96 250 0 0 +15 354 526 0 107 343 0 17 104 0
 354 107 252 102 112 265 0 393 +17 392 0 354 252 107 94 268 257 0 391 -17 107 0
 354 392 104 105 259 245 0 268 -17 391 0 46 268 389 94 122 264 0 0 -17 389 0 46
 391 77 108 115 243 0 0 -17 122 0 182 90 96 108 391 264 0 237 +17 90 0 182 396 1
22 88 237 234 0 397 -17 237 0 344 115 397 108 90 234 0 389 +15 344 542 0 398 340
 0 17 115 0 344 398 237 113 389 243 0 242 +17 397 0 344 237 398 88 119 246 0 233
 -17 398 0 344 397 115 117 242 235 0 240 -17 119 0 347 93 233 117 397 246 0 398
 +17 233 0 347 119 124 88 396 231 0 0 +15 347 546 0 93 335 0 17 124 0 347 233 93
 116 249 238 0 396 -17 396 0 182 137 90 116 233 231 0 399 -17 137 0 182 187 396
 120 399 272 0 218 +17 399 0 400 249 401 116 137 272 0 0 -15 400 84 0 401 35 0 1
7 249 0 400 402 399 91 124 238 0 302 +17 401 0 400 399 403 120 127 224 0 0 -17 4
03 0 400 401 58 125 404 299 0 0 -17 127 0 336 405 218 125 401 224 0 223 +15 336
 554 0 405 332 0 17 405 0 336 406 127 129 223 216 0 221 -17 218 0 336 127 406 12
0 187 215 0 401 +17 223 0 381 404 221 125 405 216 0 403 +15 381 246 0 223 374 0
 17 404 0 381 288 223 56 403 299 0 407 +17 221 0 381 223 288 129 134 212 0 0 +17
 288 0 381 221 404 132 407 286 0 0 +17 134 0 339 155 131 132 221 212 0 230 -15 3
39 558 0 134 328 0 17 155 0 339 160 134 153 230 219 0 72 -17 131 0 339 134 139 1
29 406 227 0 405 +17 230 0 363 407 73 132 155 219 0 288 +15 363 799 0 73 320 0 1
7 407 0 363 408 230 56 288 286 0 0 -17 73 0 363 230 408 153 69 74 0 0 -17 408 0
 363 73 407 38 58 274 0 0 -16 74 782 0 ?69 277 67 289 277 277 12 17 58 0 400 403
 75 56 408 274 0 404 +17 75 0 400 58 78 38 51 283 0 408 +17 78 0 400 75 402 30 4
7 79 0 0 -17 51 0 71 49 69 30 75 283 0 78 -17 402 0 400 78 249 70 302 300 0 0 -1
7 302 0 375 240 80 91 402 300 0 0 +15 375 255 0 242 369 0 17 240 0 375 242 302 1
17 93 226 0 0 +17 80 0 375 302 242 70 77 278 0 402 -17 242 0 375 80 240 113 398
 235 0 77 +17 77 0 46 389 47 113 80 278 0 0 +17 93 0 347 124 119 91 240 226 0 24
9 -17 139 0 339 131 163 128 173 188 0 406 +17 406 0 336 218 405 128 131 227 0 18
7 -17 187 0 182 173 137 128 218 215 0 0 -17 163 0 339 139 160 161 171 189 0 166
 -17 160 0 339 163 155 158 72 409 0 171 -17 171 0 165 167 166 158 163 189 0 174
 +16 189 817 0 ?171 175 172 410 0 0 12 16 175 813 0 ?167 409 189 411 0 0 12 30 4
10 884 0 189 190 411 0 +.0017 25e-5 -.0016 942784497813482e-31 0 1 30 190 885 0
 172 181 410 0 +-.0069 25e-5 -.0016 1 0 -2017120320903265e-31 30 411 883 0 175 4
10 412 0 +-.0069 25e-5 .003 -1 0 0 30 412 878 0 207 411 203 0 +-.0069 25e-5 .003
 0 -1 0 16 207 816 0 ?178 204 409 412 0 0 12 30 203 877 0 409 412 201 0 +.0017 2
5e-5 .003 0 -1 0 16 409 820 0 ?72 207 175 203 0 0 12 17 72 0 71 69 174 153 160 4
09 0 73 +17 174 0 71 72 176 158 167 175 0 0 -17 178 0 177 142 157 149 176 207 0
 291 +17 142 0 177 191 178 140 151 210 0 209 +30 181 886 0 168 413 190 0 +-.0069
 25e-5 -.0016 0 0 -1 31 413 949 0 180 414 181 0 +0 -.00275 0 0 -1 0 0 0 -1 3e-4
 16 180 929 0 ?415 168 416 413 0 0 12 31 414 982 0 416 417 413 0 +-.00254 -.0027
5 -311060286983428e-33 0 -1 0 0 0 -1 3e-4 16 416 962 0 ?418 180 419 414 0 0 12 3
1 417 1015 0 419 0 414 0 +-.00508 -.00275 -622120573966856e-33 0 -1 0 0 0 -1 3e-
4 16 419 995 0 ?420 416 0 417 0 0 12 17 420 0 421 420 420 0 422 419 0 0 +15 421
 1005 0 420 423 0 17 422 0 424 422 422 0 420 419 0 0 -15 424 1001 0 422 425 426
 14 425 998 427 ?423 428 424 24 429 -0 0 423 428 40 15 426 1002 0 41 425 0 17 41
 0 426 41 41 0 430 29 0 0 +17 430 0 431 430 430 0 41 29 0 0 -15 431 987 0 430 33
 0 81 1 427 1200 313 425 432 0 379 433 434 14 423 1003 433 ?0 425 421 24 435 +0
 0 0 425 40 14 428 970 436 ?425 308 437 24 438 +0 0 425 308 40 51 429 1011 0 425
 435 438 0 --.00508 -.00275 -622120573966856e-33 0 1 0 3e-4 0 0 1 50 435 1013 0
 423 0 429 0 +-.00508 -.00275 -622120573966856e-33 0 -1 0 0 0 -1 50 438 980 0 42
8 429 439 0 +-.00254 -.00275 -311060286983428e-33 0 -1 0 0 0 -1 51 439 978 0 308
 438 324 0 --.00254 -.00275 -311060286983428e-33 0 1 0 3e-4 0 0 1 14 308 965 440
 ?428 441 442 24 439 -0 0 428 441 40 50 324 947 0 441 439 321 0 +0 -.00275 0 0 -
1 0 0 0 -1 14 441 937 443 ?308 323 444 24 324 +0 0 308 323 40 81 1 443 1204 313
 441 445 0 440 446 447 14 323 932 446 ?441 327 448 24 321 -0 0 441 327 40 15 444
 939 0 415 441 0 17 415 0 444 415 415 0 449 180 0 0 +17 449 0 448 449 449 0 415
 180 0 0 -15 448 935 0 449 323 450 15 450 936 0 304 323 0 17 304 0 450 304 304 0
 451 303 0 0 +17 451 0 170 451 451 0 304 303 0 0 -15 170 921 0 451 33 431 81 1 4
46 1205 313 323 452 0 443 453 454 80 1 313 455 456 9000 1 1 1 1 1 1 1 1 0 FFFFTF
TFFFFFFF1 81 1 452 1119 457 323 0 446 458 445 459 81 1 453 1206 313 35 460 0 446
 0 461 82 1 454 1056571524 14 35 85 453 ?359 320 400 24 25 -0 0 359 320 40 81 1
 460 1107 457 35 0 453 462 463 464 82 1 461 416219261 80 1 457 0 465 8001 0 0 0
 0 3 5 0 0 0 FFFFTFTFFFFFFF2 81 1 462 1106 457 320 0 361 466 460 467 81 1 463 11
08 457 359 0 365 460 468 469 83 3 464 .00392156862745098 .235294117647059 .82352
9411764706 81 1 365 1194 313 359 463 0 361 366 470 81 1 468 1109 457 357 0 358 4
63 471 472 83 3 469 .00392156862745098 .235294117647059 .823529411764706 81 1 35
8 1192 313 357 468 0 356 361 473 81 1 471 1110 457 183 0 356 468 474 475 83 3 47
2 .00392156862745098 .235294117647059 .823529411764706 81 1 356 1191 313 183 471
 0 353 358 476 81 1 474 1111 457 348 0 350 471 477 478 83 3 475 .003921568627450
98 .235294117647059 .823529411764706 81 1 350 1189 313 348 474 0 346 353 479 81
 1 477 1112 457 343 0 353 474 480 481 83 3 478 .00392156862745098 .2352941176470
59 .823529411764706 81 1 353 1190 313 343 477 0 350 356 482 81 1 480 1113 457 34
0 0 342 477 483 484 83 3 481 .00392156862745098 .235294117647059 .82352941176470
6 81 1 342 1187 313 340 480 0 338 346 485 81 1 483 1114 457 335 0 346 480 486 48
7 83 3 484 .00392156862745098 .235294117647059 .823529411764706 81 1 346 1188 31
3 335 483 0 342 350 488 81 1 486 1115 457 332 0 334 483 489 490 83 3 487 .003921
56862745098 .235294117647059 .823529411764706 81 1 334 1185 313 332 486 0 330 33
8 491 81 1 489 1116 457 328 0 338 486 492 493 83 3 490 .00392156862745098 .23529
4117647059 .823529411764706 81 1 338 1186 313 328 489 0 334 342 494 81 1 492 111
7 457 192 0 326 489 458 495 83 3 493 .00392156862745098 .235294117647059 .823529
411764706 81 1 326 1183 313 192 492 0 315 330 496 81 1 458 1118 457 327 0 330 49
2 452 497 83 3 495 .00392156862745098 .235294117647059 .823529411764706 81 1 330
 1184 313 327 458 0 326 334 498 83 3 497 .00392156862745098 .235294117647059 .82
3529411764706 82 1 498 504692861 81 1 315 1182 313 311 499 0 310 326 500 82 1 49
6 504561792 81 1 499 1100 457 311 0 315 314 371 501 82 1 500 590151808 81 1 314
 1099 457 33 0 310 0 499 502 81 1 371 1101 457 317 0 368 499 503 504 83 3 501 .0
0392156862745098 .235294117647059 .823529411764706 81 1 503 1102 457 369 0 372 3
71 505 506 83 3 504 .00392156862745098 .235294117647059 .823529411764706 81 1 37
2 1197 313 369 503 0 368 376 507 81 1 505 1103 457 374 0 379 503 378 508 83 3 50
6 .00392156862745098 .235294117647059 .823529411764706 81 1 379 1199 313 374 505
 0 376 427 509 81 1 378 1104 457 367 0 376 505 466 510 83 3 508 .003921568627450
98 .235294117647059 .823529411764706 81 1 466 1105 457 362 0 366 378 462 511 83
 3 510 .00392156862745098 .235294117647059 .823529411764706 81 1 366 1195 313 36
2 466 0 365 368 512 83 3 511 .00392156862745098 .235294117647059 .82352941176470
6 82 1 512 548733053 82 1 509 551878781 82 1 507 552730749 83 3 502 .00392156862
745098 .235294117647059 .823529411764706 82 1 494 493420672 82 1 491 493289597 8
2 1 488 482410621 82 1 485 482279549 82 1 482 471072893 82 1 479 470941821 82 1
 476 543621248 81 1 361 1193 313 320 462 0 358 365 513 82 1 473 408879229 82 1 5
13 540409984 82 1 470 415432832 83 3 467 .00392156862745098 .235294117647059 .82
3529411764706 79 15 465 SDL/TYSA_COLOUR81 1 445 1120 457 441 0 443 452 514 515 8
3 3 459 .517647058823529 .529411764705882 .549019607843137 81 1 514 1121 457 308
 0 440 445 516 517 83 3 515 .517647058823529 .529411764705882 .549019607843137 8
1 1 440 1203 313 308 514 0 436 443 518 81 1 516 1122 457 428 0 436 514 432 519 8
3 3 517 .517647058823529 .529411764705882 .549019607843137 81 1 436 1202 313 428
 516 0 433 440 520 81 1 432 1123 457 425 0 427 516 521 522 83 3 519 .51764705882
3529 .529411764705882 .549019607843137 81 1 521 1124 457 423 0 433 432 0 523 83
 3 522 .517647058823529 .529411764705882 .549019607843137 81 1 433 1201 313 423
 521 0 427 436 524 83 3 523 .517647058823529 .529411764705882 .549019607843137 8
2 1 524 1062797444 82 1 520 1058734212 82 1 518 1060700292 79 14 456 SWEntUnchan
ged82 1 447 1054605444 15 442 968 0 525 308 306 17 525 0 442 525 525 0 418 416 0
 0 -17 418 0 437 418 418 0 525 416 0 0 +15 437 972 0 418 428 0 82 1 434 10647635
24 16 299 230 0 ?404 300 296 297 300 300 12 17 61 0 64 63 198 59 384 295 0 382 +
17 384 0 377 206 382 85 61 295 0 0 -16 295 204 0 ?61 296 293 294 296 296 12 82 1
 380 551026813 82 1 373 553582717 82 1 316 1069154436 19 34 95 0 12 0 28 24 S0 7
4 20 32 3 0 0 453 521 21 0 0 0 0 0 0 0 0 0 0 0 0 0 0 0 0 0 80 1 31 526 527 8017
 0 0 0 0 0 0 0 0 0 TTTTTTTTTTTTTF3 79 13 527 SDL/TYSA_NAME81 1 10 259 31 7 0 0 0
 0 0 70 11 0 4 T7 0 0 3 20 1 528 528 13 13 29 0 7 0 529 0 0 530 0 51 14 28 0 531
 532 0 0 -.0011 .0116 .0019 0 -1 0 .0011 0 0 -1 31 15 23 0 533 534 0 0 +.0011 .0
1 .0019 0 1 0 0 0 1 .0011 29 16 64 0 19 535 0 .000519313824919481 .0116 .0028342
39565673795 19 17 7 0 7 530 0 536 V0 16 18 57 0 ?537 0 538 534 538 538 7 18 19 6
2 0 539 0 540 16 ?7 17 539 0 541 542 543 19 544 545 0 546 +18 540 131 0 547 19 5
48 549 ?7 17 547 0 550 551 552 540 553 554 0 555 -18 548 133 0 556 540 557 558 ?
7 29 549 185 0 540 558 559 .000165760434326207 .0111 .00248068617508052 29 558 1
86 0 548 560 549 .00168068617508052 .0111 .000965760434326207 29 559 183 0 561 5
49 562 .002034239565673795 .0116 .00131931382491948 18 561 138 0 542 563 0 559 ?
7 29 562 182 0 563 559 535 .00168068617508052 .0116 .000965760434326207 18 563 1
36 0 564 565 561 562 ?7 29 535 181 0 565 562 16 .000165760434326207 .0116 .00248
068617508052 18 565 134 0 552 566 563 535 ?7 17 552 0 550 547 564 565 567 568 0
 553 +18 566 137 0 543 557 565 569 ?7 17 543 0 541 539 570 566 571 572 0 573 -18
 557 135 0 570 548 566 560 ?7 29 569 188 0 566 0 560 .000519313824919481 .0111 .
002834239565673795 29 560 187 0 557 569 558 .002034239565673795 .0111 .001319313
82491948 17 570 0 541 543 542 557 574 575 0 571 -15 541 154 0 542 576 0 17 542 0
 541 570 539 561 546 577 0 574 +17 574 0 578 579 580 561 570 575 0 581 +16 575 1
18 0 ?574 582 545 583 0 0 7 17 571 0 584 556 573 557 543 572 0 580 +15 584 157 0
 573 585 0 17 556 0 584 555 571 548 580 586 0 551 +17 573 0 584 571 555 566 587
 588 0 544 +16 572 115 0 ?571 586 588 589 0 0 7 17 580 0 578 574 590 557 556 586
 0 0 -15 578 90 0 591 531 592 17 590 0 578 580 591 548 564 582 0 0 -16 586 111 0
 ?556 593 572 594 0 0 7 16 593 107 0 ?555 545 586 595 0 0 7 31 594 178 0 586 589
 595 0 +.0011 .0111 .0019 0 1 0 0 0 1 .0011 30 589 179 0 572 596 594 0 +.0020342
39565673795 .0111 .00131931382491948 .707106781186547 0 -.707106781186548 30 595
 177 0 593 594 597 0 +.000165760434326207 .0111 .00248068617508052 -.70710678118
6547 0 .707106781186548 30 597 175 0 577 595 598 0 +.002034239565673795 .0116 .0
0131931382491948 .707106781186547 0 -.707106781186548 16 577 122 0 ?542 568 0 59
7 0 0 7 30 598 173 0 568 597 599 0 +.000165760434326207 .0116 .00248068617508052
 -.707106781186547 0 .707106781186548 16 568 128 0 ?552 588 577 598 0 0 7 30 599
 172 0 554 598 600 0 +.000165760434326207 .0111 .00248068617508052 0 1 0 16 554
 110 0 ?553 533 582 599 0 0 7 30 600 171 0 582 599 583 0 +.00168068617508052 .01
11 .000965760434326207 0 1 0 16 582 114 0 ?564 554 575 600 0 0 7 30 583 170 0 57
5 600 601 0 +.002034239565673795 .0111 .00131931382491948 0 1 0 30 601 169 0 545
 583 534 0 +.000519313824919481 .0111 .002834239565673795 0 1 0 16 545 106 0 ?53
9 575 593 601 0 0 7 31 534 5 0 538 601 15 0 +.0011 .0116 .0019 0 1 0 0 0 1 .0011
 16 538 63 0 ?581 18 533 534 18 18 7 17 581 0 602 546 546 561 579 538 0 0 +16 53
3 18 0 ?603 538 554 15 0 0 7 17 603 0 592 603 603 0 604 533 0 0 +15 592 26 0 603
 531 0 17 604 0 605 604 604 0 603 533 0 0 -15 605 17 0 604 606 0 14 606 16 607 ?
608 609 605 13 532 -0 0 608 609 536 81 1 607 252 313 606 610 0 0 611 612 14 608
 143 611 ?576 606 550 13 613 -0 0 576 606 536 14 609 1 614 ?606 531 602 13 615 +
529 529 606 531 536 50 532 22 0 606 615 14 0 +.0011 .01 .0019 0 1 0 0 0 1 13 536
 8 0 0 0 0 0 0 17 529 14 529 68 616 ?531 0 617 13 615 +609 609 531 0 536 81 1 61
6 255 313 529 618 0 614 619 620 14 531 25 619 ?609 529 578 13 14 -0 0 609 529 53
6 15 617 71 0 567 529 0 50 615 2 0 609 621 532 0 +.0011 .0116 .0019 0 1 0 0 0 1
 50 621 164 0 576 613 615 0 +.002034239565673795 .0111 .00131931382491948 .70710
6781186548 0 .707106781186547 .707106781186548 0 -.707106781186548 14 576 151 62
2 ?585 608 541 13 621 -0 0 585 608 536 50 613 166 0 608 623 621 0 +.000165760434
326207 .0111 .00248068617508052 -.707106781186548 0 -.707106781186547 -.70710678
1186548 0 .707106781186548 50 623 168 0 585 0 613 0 +.0011 .0111 .0019 0 1 0 0 0
 1 14 585 155 624 ?0 576 584 13 623 +0 0 0 576 536 81 1 624 258 313 585 625 0 62
2 0 626 81 1 625 235 457 585 0 624 627 0 628 81 1 622 257 313 576 627 0 619 624
 629 82 1 626 600965265 81 1 627 234 457 576 0 622 630 625 631 81 1 619 256 313
 531 632 0 616 622 633 82 1 629 607781009 81 1 632 230 457 531 0 619 618 634 635
 82 1 633 -797769583 81 1 618 229 457 529 0 616 0 632 636 81 1 634 231 457 609 0
 614 632 610 637 83 3 635 .647058823529412 .517647058823529 0 81 1 614 254 313 6
09 634 0 611 616 638 81 1 610 232 457 606 0 607 634 630 639 83 3 637 .6470588235
29412 .517647058823529 0 81 1 630 233 457 608 0 611 610 627 640 83 3 639 .647058
823529412 .517647058823529 0 81 1 611 253 313 608 630 0 607 614 641 83 3 640 .64
7058823529412 .517647058823529 0 82 1 641 607518865 82 1 638 -799735663 83 3 636
 .647058823529412 .517647058823529 0 83 3 631 .647058823529412 .517647058823529
 0 83 3 628 .647058823529412 .517647058823529 0 17 567 0 617 537 537 563 552 568
 0 591 -17 537 0 617 567 567 565 591 18 0 0 +17 591 0 578 590 553 563 537 18 0 0
 -17 553 0 578 591 587 565 547 554 0 537 +17 587 0 578 553 544 540 573 588 0 0 -
17 544 0 578 587 579 566 539 545 0 0 -16 588 103 0 ?573 572 568 596 0 0 7 31 596
 180 0 588 0 589 0 +.0011 .0111 .0019 0 1 0 0 0 1 .0011 17 579 0 578 544 574 19
 581 538 0 0 -82 1 620 611909777 15 602 66 0 546 609 0 17 546 0 602 581 581 19 5
42 577 0 579 -15 550 146 0 552 608 0 82 1 612 -798293877 17 564 0 550 552 551 56
3 590 582 0 567 +17 551 0 550 564 547 548 555 593 0 590 -17 555 0 584 573 556 54
0 551 593 0 587 +19 530 30 0 7 0 17 13 S0 74 20 528 3 0 0 624 625 10 0 0 0 0 0 0
 0 0 0 0 0 0 0 0 0 0 0 74 20 6 1 0 0 2 0 0 0 0 0 0 0 0 0 0 0 0 0 0 0 0 0 0 0 80
 2 5 642 643 9000 0 0 0 0 3 5 0 0 0 TFFFFFFFFFFFFF9 1 79 18 643 MULTI_BODY_ID_20
011 0 
