G04*
G04 #@! TF.GenerationSoftware,Altium Limited,Altium Designer,19.1.7 (138)*
G04*
G04 Layer_Color=8388736*
%FSLAX44Y44*%
%MOMM*%
G71*
G01*
G75*
%ADD10O,2.0000X0.7000*%
%ADD11R,1.2000X1.8000*%
%ADD12R,1.8000X1.2000*%
%ADD13R,1.6000X1.9000*%
%ADD14R,1.6000X1.4000*%
%ADD15R,1.4000X1.6000*%
%ADD16R,1.1000X2.9001*%
%ADD17R,2.1320X0.7604*%
%ADD18O,1.8907X3.6814*%
%ADD19R,1.6000X1.6000*%
%ADD20C,1.6000*%
%ADD21R,1.6000X1.6000*%
%ADD22C,1.5079*%
%ADD23R,1.5079X1.5079*%
%ADD24O,1.6240X3.1480*%
%ADD25P,1.5379X8X22.5*%
%ADD26P,1.5379X8X112.5*%
%ADD27R,1.3000X1.3000*%
%ADD28C,1.3000*%
%ADD29R,2.1000X2.1000*%
%ADD30C,2.1000*%
%ADD31C,4.1000*%
%ADD32C,1.3700*%
D10*
X717500Y535950D02*
D03*
Y548650D02*
D03*
Y561350D02*
D03*
Y574050D02*
D03*
X670500Y535950D02*
D03*
Y548650D02*
D03*
Y561350D02*
D03*
Y574050D02*
D03*
X903500Y529950D02*
D03*
Y542650D02*
D03*
Y555350D02*
D03*
Y568050D02*
D03*
X856500Y529950D02*
D03*
Y542650D02*
D03*
Y555350D02*
D03*
Y568050D02*
D03*
D11*
X720500Y719000D02*
D03*
X693500D02*
D03*
X841500Y588000D02*
D03*
X814500D02*
D03*
D12*
X704000Y768500D02*
D03*
Y741500D02*
D03*
X827000Y559500D02*
D03*
Y532500D02*
D03*
D13*
X766500Y539000D02*
D03*
X801500D02*
D03*
D14*
X637000Y616500D02*
D03*
Y597500D02*
D03*
X641000Y716500D02*
D03*
Y735500D02*
D03*
X664000D02*
D03*
Y716500D02*
D03*
X629000Y548500D02*
D03*
Y567500D02*
D03*
D15*
X820500Y695000D02*
D03*
X839500D02*
D03*
Y775000D02*
D03*
X820500D02*
D03*
X1278230Y600710D02*
D03*
X1259230D02*
D03*
Y643620D02*
D03*
X1278230D02*
D03*
X820500Y735000D02*
D03*
X839500D02*
D03*
X1259230Y622300D02*
D03*
X1278230D02*
D03*
X820500Y715000D02*
D03*
X839500D02*
D03*
Y755000D02*
D03*
X820500D02*
D03*
D16*
X1106170Y733420D02*
D03*
Y780420D02*
D03*
X938530Y776610D02*
D03*
Y729610D02*
D03*
X1267460Y732150D02*
D03*
Y779150D02*
D03*
X1124000Y497500D02*
D03*
Y450500D02*
D03*
D17*
X724734Y607550D02*
D03*
X663266D02*
D03*
X724734Y620250D02*
D03*
Y632950D02*
D03*
X663266Y620250D02*
D03*
Y632950D02*
D03*
X724734Y645650D02*
D03*
X663266D02*
D03*
X724734Y658350D02*
D03*
X663266D02*
D03*
X724734Y671050D02*
D03*
Y683750D02*
D03*
X663266Y671050D02*
D03*
Y683750D02*
D03*
X724734Y696450D02*
D03*
X663266D02*
D03*
D18*
X1054001Y475300D02*
D03*
X1003999D02*
D03*
X1193999D02*
D03*
X1244001D02*
D03*
X765999Y835700D02*
D03*
X816001D02*
D03*
D19*
X654000Y454600D02*
D03*
X683000Y504400D02*
D03*
X544830Y758190D02*
D03*
D20*
X654000Y480000D02*
D03*
X683000Y453600D02*
D03*
Y479000D02*
D03*
X1228090Y862330D02*
D03*
X1202690D02*
D03*
X1177290D02*
D03*
X1039800D02*
D03*
X1065200D02*
D03*
X1090600D02*
D03*
X952500D02*
D03*
X927100D02*
D03*
X901700D02*
D03*
X706120Y831850D02*
D03*
X680720Y857250D02*
D03*
Y831850D02*
D03*
X655320Y857250D02*
D03*
Y831850D02*
D03*
X629920Y857250D02*
D03*
Y831850D02*
D03*
X604520Y857250D02*
D03*
Y831850D02*
D03*
X570230Y758190D02*
D03*
X544830Y732790D02*
D03*
X570230D02*
D03*
X544830Y707390D02*
D03*
X570230D02*
D03*
X544830Y681990D02*
D03*
X570230D02*
D03*
X544830Y656590D02*
D03*
X570230D02*
D03*
X544830Y631190D02*
D03*
X570230D02*
D03*
X544830Y605790D02*
D03*
X570230D02*
D03*
X544830Y580390D02*
D03*
X570230D02*
D03*
D21*
X1253490Y862330D02*
D03*
X1116000D02*
D03*
X977900D02*
D03*
X706120Y857250D02*
D03*
D22*
X1320770Y683260D02*
D03*
Y657860D02*
D03*
Y708660D02*
D03*
Y734060D02*
D03*
X1193770Y607060D02*
D03*
X1320770D02*
D03*
Y759460D02*
D03*
X1193770D02*
D03*
Y734060D02*
D03*
Y708660D02*
D03*
Y683260D02*
D03*
Y657860D02*
D03*
Y632460D02*
D03*
X1320770D02*
D03*
Y784860D02*
D03*
X1155600D02*
D03*
Y632460D02*
D03*
X1028600D02*
D03*
Y657860D02*
D03*
Y683260D02*
D03*
Y708660D02*
D03*
Y734060D02*
D03*
Y759460D02*
D03*
X1155600D02*
D03*
Y607060D02*
D03*
X1028600D02*
D03*
X1155600Y734060D02*
D03*
Y708660D02*
D03*
Y657860D02*
D03*
Y683260D02*
D03*
X990600D02*
D03*
Y657860D02*
D03*
Y708660D02*
D03*
Y734060D02*
D03*
X863600Y607060D02*
D03*
X990600D02*
D03*
Y759460D02*
D03*
X863600D02*
D03*
Y734060D02*
D03*
Y708660D02*
D03*
Y683260D02*
D03*
Y657860D02*
D03*
Y632460D02*
D03*
X990600D02*
D03*
Y784860D02*
D03*
D23*
X1193770D02*
D03*
X1028600D02*
D03*
X863600D02*
D03*
D24*
X854000Y459000D02*
D03*
X879400D02*
D03*
X904800D02*
D03*
D25*
X727300Y756000D02*
D03*
X740000Y775050D02*
D03*
X752700Y756000D02*
D03*
D26*
X775000Y500700D02*
D03*
X755950Y488000D02*
D03*
X775000Y475300D02*
D03*
D27*
X615000Y456600D02*
D03*
D28*
Y482000D02*
D03*
Y507400D02*
D03*
D29*
X832400Y507000D02*
D03*
D30*
X937000D02*
D03*
D31*
X1310000Y840000D02*
D03*
Y470000D02*
D03*
X540000D02*
D03*
Y840000D02*
D03*
D32*
X1221000Y574000D02*
D03*
M02*
