G04*
G04 #@! TF.GenerationSoftware,Altium Limited,Altium Designer,19.1.7 (138)*
G04*
G04 Layer_Color=16711935*
%FSLAX25Y25*%
%MOIN*%
G70*
G01*
G75*
%ADD69C,0.00394*%
%ADD70C,0.00050*%
D69*
X531496Y330709D02*
X531465Y331698D01*
X531372Y332682D01*
X531217Y333660D01*
X531001Y334625D01*
X530725Y335575D01*
X530390Y336506D01*
X529997Y337414D01*
X529548Y338295D01*
X529044Y339147D01*
X528488Y339965D01*
X527882Y340747D01*
X527228Y341489D01*
X526528Y342189D01*
X525786Y342843D01*
X525004Y343449D01*
X524186Y344005D01*
X523335Y344509D01*
X522453Y344958D01*
X521545Y345351D01*
X520614Y345686D01*
X519664Y345962D01*
X518699Y346178D01*
X517722Y346333D01*
X516737Y346426D01*
X515748Y346457D01*
X212598D02*
X211610Y346426D01*
X210625Y346333D01*
X209647Y346178D01*
X208682Y345962D01*
X207732Y345686D01*
X206801Y345351D01*
X205893Y344958D01*
X205012Y344509D01*
X204160Y344005D01*
X203342Y343449D01*
X202560Y342843D01*
X201818Y342189D01*
X201119Y341489D01*
X200464Y340747D01*
X199858Y339965D01*
X199302Y339147D01*
X198798Y338295D01*
X198349Y337414D01*
X197956Y336506D01*
X197621Y335575D01*
X197345Y334625D01*
X197129Y333660D01*
X196975Y332682D01*
X196881Y331698D01*
X196850Y330709D01*
Y185039D02*
X196881Y184051D01*
X196975Y183066D01*
X197129Y182088D01*
X197345Y181123D01*
X197621Y180173D01*
X197956Y179242D01*
X198349Y178334D01*
X198798Y177453D01*
X199302Y176601D01*
X199858Y175783D01*
X200464Y175001D01*
X201119Y174259D01*
X201818Y173559D01*
X202560Y172905D01*
X203342Y172299D01*
X204160Y171743D01*
X205012Y171239D01*
X205893Y170790D01*
X206801Y170397D01*
X207732Y170062D01*
X208682Y169786D01*
X209648Y169570D01*
X210625Y169415D01*
X211610Y169322D01*
X212598Y169291D01*
X515748D02*
X516737Y169322D01*
X517722Y169415D01*
X518699Y169570D01*
X519664Y169786D01*
X520614Y170062D01*
X521545Y170397D01*
X522453Y170790D01*
X523335Y171239D01*
X524186Y171743D01*
X525004Y172299D01*
X525786Y172905D01*
X526528Y173559D01*
X527228Y174259D01*
X527882Y175001D01*
X528488Y175783D01*
X529044Y176601D01*
X529548Y177453D01*
X529997Y178334D01*
X530390Y179242D01*
X530725Y180173D01*
X531001Y181123D01*
X531217Y182088D01*
X531372Y183066D01*
X531465Y184051D01*
X531496Y185039D01*
Y330709D01*
X212598Y346457D02*
X515748D01*
X196850Y185039D02*
Y330709D01*
X212598Y169291D02*
X515748D01*
D70*
X196850Y185039D02*
X196881Y184051D01*
X196975Y183066D01*
X197129Y182088D01*
X197345Y181123D01*
X197621Y180173D01*
X197956Y179242D01*
X198349Y178334D01*
X198798Y177453D01*
X199302Y176601D01*
X199858Y175783D01*
X200464Y175001D01*
X201119Y174259D01*
X201818Y173559D01*
X202560Y172905D01*
X203342Y172299D01*
X204160Y171743D01*
X205012Y171239D01*
X205893Y170790D01*
X206801Y170397D01*
X207732Y170062D01*
X208682Y169786D01*
X209648Y169570D01*
X210625Y169415D01*
X211610Y169322D01*
X212598Y169291D01*
X515748D01*
M02*
