G04*
G04 #@! TF.GenerationSoftware,Altium Limited,Altium Designer,19.1.7 (138)*
G04*
G04 Layer_Physical_Order=1*
G04 Layer_Color=255*
%FSLAX25Y25*%
%MOIN*%
G70*
G01*
G75*
%ADD40R,0.05000X0.06300*%
%ADD41O,0.07480X0.02362*%
%ADD42R,0.05118X0.05906*%
%ADD43R,0.05906X0.07087*%
%ADD44R,0.04331X0.06693*%
%ADD45R,0.06693X0.04331*%
%ADD46R,0.05906X0.05118*%
%ADD47R,0.03937X0.11024*%
%ADD48R,0.08000X0.02600*%
%ADD49C,0.03150*%
%ADD50C,0.02362*%
%ADD51C,0.04724*%
%ADD52C,0.03937*%
G04:AMPARAMS|DCode=53|XSize=157.48mil|YSize=98.43mil|CornerRadius=9.84mil|HoleSize=0mil|Usage=FLASHONLY|Rotation=180.000|XOffset=0mil|YOffset=0mil|HoleType=Round|Shape=RoundedRectangle|*
%AMROUNDEDRECTD53*
21,1,0.15748,0.07874,0,0,180.0*
21,1,0.13780,0.09843,0,0,180.0*
1,1,0.01968,-0.06890,0.03937*
1,1,0.01968,0.06890,0.03937*
1,1,0.01968,0.06890,-0.03937*
1,1,0.01968,-0.06890,-0.03937*
%
%ADD53ROUNDEDRECTD53*%
%ADD54C,0.05512*%
%ADD55R,0.05512X0.05512*%
%ADD56C,0.05906*%
%ADD57R,0.05906X0.05906*%
%ADD58P,0.05629X8X22.5*%
%ADD59P,0.05629X8X112.5*%
%ADD60O,0.06000X0.12000*%
%ADD61O,0.07050X0.14100*%
%ADD62R,0.05906X0.05906*%
%ADD63C,0.05543*%
%ADD64R,0.05543X0.05543*%
%ADD65R,0.07874X0.07874*%
%ADD66C,0.07874*%
%ADD67C,0.22441*%
%ADD68C,0.04724*%
G36*
X308428Y336054D02*
X307536Y335128D01*
X306123Y333450D01*
X305604Y332697D01*
X305208Y332001D01*
X304937Y331364D01*
X304789Y330784D01*
X304766Y330261D01*
X304867Y329797D01*
X305092Y329389D01*
X300223Y335802D01*
X300601Y335938D01*
X301002Y336123D01*
X301428Y336358D01*
X301878Y336643D01*
X302851Y337361D01*
X303373Y337795D01*
X305087Y339394D01*
X308428Y336054D01*
D02*
G37*
G36*
X399288Y326564D02*
X399406Y326483D01*
X399541Y326413D01*
X399693Y326351D01*
X399863Y326299D01*
X400049Y326257D01*
X400252Y326224D01*
X400472Y326200D01*
X400963Y326181D01*
Y323819D01*
X400709Y323814D01*
X400252Y323776D01*
X400049Y323743D01*
X399863Y323701D01*
X399693Y323649D01*
X399541Y323587D01*
X399406Y323517D01*
X399288Y323436D01*
X399187Y323346D01*
Y326654D01*
X399288Y326564D01*
D02*
G37*
G36*
X395813Y323346D02*
X395712Y323436D01*
X395594Y323517D01*
X395459Y323587D01*
X395307Y323649D01*
X395138Y323701D01*
X394951Y323743D01*
X394748Y323776D01*
X394528Y323800D01*
X394037Y323819D01*
Y326181D01*
X394291Y326186D01*
X394748Y326224D01*
X394951Y326257D01*
X395138Y326299D01*
X395307Y326351D01*
X395459Y326413D01*
X395594Y326483D01*
X395712Y326564D01*
X395813Y326654D01*
Y323346D01*
D02*
G37*
G36*
X338288Y326564D02*
X338406Y326483D01*
X338541Y326413D01*
X338693Y326351D01*
X338862Y326299D01*
X339049Y326257D01*
X339252Y326224D01*
X339472Y326200D01*
X339963Y326181D01*
Y323819D01*
X339709Y323814D01*
X339252Y323776D01*
X339049Y323743D01*
X338862Y323701D01*
X338693Y323649D01*
X338541Y323587D01*
X338406Y323517D01*
X338288Y323436D01*
X338187Y323346D01*
Y326654D01*
X338288Y326564D01*
D02*
G37*
G36*
X455001Y323241D02*
X454919Y323351D01*
X454818Y323449D01*
X454697Y323536D01*
X454558Y323611D01*
X454399Y323674D01*
X454222Y323726D01*
X454025Y323767D01*
X453809Y323796D01*
X453575Y323813D01*
X453321Y323819D01*
X453923Y326181D01*
X454181Y326184D01*
X454848Y326228D01*
X455035Y326254D01*
X455355Y326324D01*
X455488Y326368D01*
X455604Y326418D01*
X455701Y326473D01*
X455001Y323241D01*
D02*
G37*
G36*
X324553Y328235D02*
X324452Y327770D01*
X324475Y327248D01*
X324623Y326668D01*
X324894Y326030D01*
X325290Y325335D01*
X325809Y324582D01*
X326453Y323771D01*
X327222Y322903D01*
X328114Y321978D01*
X324773Y318637D01*
X324178Y319220D01*
X322038Y321055D01*
X321564Y321389D01*
X320688Y321909D01*
X320287Y322094D01*
X319910Y322230D01*
X324778Y328642D01*
X324553Y328235D01*
D02*
G37*
G36*
X424433Y312593D02*
X423832Y311925D01*
X423364Y311256D01*
X423030Y310588D01*
X422830Y309920D01*
X422763Y309252D01*
X422830Y308584D01*
X423030Y307916D01*
X423364Y307248D01*
X423832Y306579D01*
X424433Y305911D01*
X417752Y309252D01*
X414411Y315933D01*
X415079Y315332D01*
X415748Y314864D01*
X416416Y314530D01*
X417084Y314330D01*
X417752Y314263D01*
X418420Y314330D01*
X419088Y314530D01*
X419756Y314864D01*
X420425Y315332D01*
X421093Y315933D01*
X424433Y312593D01*
D02*
G37*
G36*
X337241Y306241D02*
X337217Y306252D01*
X337146Y306262D01*
X337028Y306270D01*
X335729Y306297D01*
X335369Y306298D01*
X334971Y306287D01*
X334568Y306252D01*
X334212Y306193D01*
X333904Y306110D01*
X333643Y306004D01*
X333429Y305874D01*
X333263Y305720D01*
X333143Y305543D01*
X333071Y305343D01*
X333047Y305118D01*
X333059Y308059D01*
X333083Y308173D01*
X333153Y308276D01*
X333272Y308366D01*
X333437Y308444D01*
X333649Y308511D01*
X333909Y308565D01*
X334216Y308607D01*
X334878Y308649D01*
Y308661D01*
X335329Y308673D01*
X335732Y308709D01*
X336087Y308768D01*
X336396Y308850D01*
X336657Y308957D01*
X336871Y309087D01*
X337037Y309240D01*
X337156Y309417D01*
X337228Y309618D01*
X337252Y309842D01*
X337241Y306241D01*
D02*
G37*
G36*
X433556Y305149D02*
X433512Y305517D01*
X433382Y305846D01*
X433166Y306137D01*
X432865Y306388D01*
X432477Y306601D01*
X432002Y306775D01*
X431442Y306911D01*
X430796Y307008D01*
X430064Y307066D01*
X429246Y307085D01*
Y311809D01*
X430062Y311819D01*
X431996Y311960D01*
X432469Y312045D01*
X432856Y312149D01*
X433157Y312271D01*
X433372Y312413D01*
X433500Y312573D01*
X433543Y312752D01*
X433556Y305149D01*
D02*
G37*
G36*
X407586Y309397D02*
X407520Y309180D01*
Y308930D01*
X407586Y308646D01*
X407720Y308328D01*
X407921Y307978D01*
X408188Y307593D01*
X408522Y307176D01*
X409390Y306241D01*
X407720Y304570D01*
X407236Y305038D01*
X406367Y305773D01*
X405983Y306040D01*
X405632Y306241D01*
X405315Y306374D01*
X405031Y306441D01*
X404780D01*
X404563Y306374D01*
X404380Y306241D01*
X407720Y309581D01*
X407586Y309397D01*
D02*
G37*
G36*
X342626D02*
X342559Y309180D01*
Y308930D01*
X342626Y308646D01*
X342759Y308328D01*
X342960Y307978D01*
X343227Y307593D01*
X343561Y307176D01*
X344430Y306241D01*
X342759Y304570D01*
X342275Y305038D01*
X341406Y305773D01*
X341022Y306040D01*
X340672Y306241D01*
X340354Y306374D01*
X340070Y306441D01*
X339820D01*
X339603Y306374D01*
X339419Y306241D01*
X342759Y309581D01*
X342626Y309397D01*
D02*
G37*
G36*
X437504Y312536D02*
X437645Y312342D01*
X437882Y312172D01*
X438212Y312024D01*
X438638Y311899D01*
X439157Y311796D01*
X439772Y311717D01*
X441283Y311626D01*
X442181Y311614D01*
Y306890D01*
X441283Y306866D01*
X440480Y306795D01*
X439772Y306677D01*
X439157Y306512D01*
X438638Y306299D01*
X438212Y306039D01*
X437882Y305732D01*
X437645Y305378D01*
X437504Y304976D01*
X437457Y304528D01*
Y312752D01*
X437504Y312536D01*
D02*
G37*
G36*
X371504Y311243D02*
X371645Y311235D01*
X376181Y311206D01*
Y306481D01*
X375283Y306457D01*
X374480Y306387D01*
X373772Y306269D01*
X373157Y306103D01*
X372638Y305891D01*
X372212Y305631D01*
X371882Y305324D01*
X371645Y304969D01*
X371504Y304568D01*
X371457Y304119D01*
Y311252D01*
X371504Y311243D01*
D02*
G37*
G36*
X367555Y302957D02*
X367515Y303276D01*
X367393Y303562D01*
X367191Y303814D01*
X366907Y304032D01*
X366542Y304218D01*
X366095Y304369D01*
X365568Y304486D01*
X364960Y304571D01*
X364270Y304621D01*
X363500Y304638D01*
Y309362D01*
X364271Y309379D01*
X365568Y309513D01*
X366095Y309631D01*
X366542Y309783D01*
X366907Y309967D01*
X367191Y310186D01*
X367393Y310438D01*
X367515Y310724D01*
X367555Y311044D01*
Y302957D01*
D02*
G37*
G36*
X501004Y311619D02*
X501146Y311217D01*
X501382Y310863D01*
X501712Y310556D01*
X502138Y310296D01*
X502657Y310084D01*
X503271Y309918D01*
X503980Y309800D01*
X504783Y309729D01*
X505681Y309706D01*
Y304981D01*
X504783Y304958D01*
X503980Y304887D01*
X503271Y304769D01*
X502657Y304603D01*
X502138Y304391D01*
X501712Y304131D01*
X501382Y303824D01*
X501146Y303469D01*
X501004Y303068D01*
X500956Y302619D01*
Y312068D01*
X501004Y311619D01*
D02*
G37*
G36*
X292790Y307608D02*
X293013Y307503D01*
X293303Y307410D01*
X293659Y307329D01*
X294081Y307261D01*
X295126Y307162D01*
X296435Y307113D01*
X297189Y307106D01*
Y303169D01*
X296435Y303163D01*
X294081Y303014D01*
X293659Y302946D01*
X293303Y302866D01*
X293013Y302773D01*
X292790Y302667D01*
X292633Y302550D01*
Y307726D01*
X292790Y307608D01*
D02*
G37*
G36*
X290045Y302550D02*
X289887Y302667D01*
X289664Y302773D01*
X289374Y302866D01*
X289018Y302946D01*
X288596Y303014D01*
X287552Y303114D01*
X286242Y303163D01*
X285488Y303169D01*
Y307106D01*
X286242Y307113D01*
X288596Y307261D01*
X289018Y307329D01*
X289374Y307410D01*
X289664Y307503D01*
X289887Y307608D01*
X290045Y307726D01*
Y302550D01*
D02*
G37*
G36*
X273831Y300406D02*
X273792Y300422D01*
X273673Y300437D01*
X273477Y300450D01*
X269894Y300492D01*
Y304429D01*
X270642Y304432D01*
X273673Y304610D01*
X273792Y304659D01*
X273831Y304712D01*
Y300406D01*
D02*
G37*
G36*
X219111Y299675D02*
X218665Y299212D01*
X217958Y298373D01*
X217697Y297996D01*
X217498Y297648D01*
X217361Y297328D01*
X217285Y297037D01*
X217271Y296774D01*
X217319Y296540D01*
X217429Y296334D01*
X214610Y300173D01*
X214770Y300017D01*
X214968Y299934D01*
X215206Y299923D01*
X215481Y299983D01*
X215796Y300115D01*
X216150Y300320D01*
X216542Y300596D01*
X216973Y300944D01*
X217951Y301855D01*
X219111Y299675D01*
D02*
G37*
G36*
X320484Y302177D02*
X321007D01*
X321040Y302705D01*
X321063Y304122D01*
X325000D01*
X325006Y303374D01*
X325081Y302177D01*
X325578D01*
X325469Y302138D01*
X325370Y302020D01*
X325284Y301823D01*
X325208Y301547D01*
X325145Y301193D01*
X325144Y301185D01*
X325145Y301169D01*
X325208Y300815D01*
X325284Y300539D01*
X325370Y300342D01*
X325469Y300224D01*
X325578Y300185D01*
X325056D01*
X325023Y299658D01*
X325000Y298240D01*
X321063D01*
X321057Y298988D01*
X320982Y300185D01*
X320484D01*
X320594Y300224D01*
X320693Y300342D01*
X320779Y300539D01*
X320855Y300815D01*
X320918Y301169D01*
X320919Y301177D01*
X320918Y301193D01*
X320855Y301547D01*
X320779Y301823D01*
X320693Y302020D01*
X320594Y302138D01*
X320484Y302177D01*
X320445Y302366D01*
X320327Y302535D01*
X320130Y302683D01*
X319854Y302812D01*
X319500Y302921D01*
X319067Y303011D01*
X318555Y303080D01*
X317296Y303159D01*
X316547Y303169D01*
Y307106D01*
X317296Y307116D01*
X319067Y307259D01*
X319500Y307344D01*
X319854Y307449D01*
X320130Y307573D01*
X320327Y307716D01*
X320445Y307878D01*
X320484Y308059D01*
Y302177D01*
D02*
G37*
G36*
X338495Y296673D02*
X338323Y296775D01*
X338138Y296866D01*
X337941Y296947D01*
X337732Y297017D01*
X337511Y297076D01*
X337277Y297124D01*
X336774Y297189D01*
X336503Y297205D01*
X336221Y297210D01*
X335625Y299572D01*
X335910Y299581D01*
X336176Y299608D01*
X336424Y299652D01*
X336654Y299714D01*
X336865Y299794D01*
X337057Y299891D01*
X337231Y300006D01*
X337387Y300139D01*
X337524Y300290D01*
X337643Y300458D01*
X338495Y296673D01*
D02*
G37*
G36*
X317243Y298943D02*
X317245Y298802D01*
X317269Y298655D01*
X317314Y298504D01*
X317381Y298347D01*
X317470Y298184D01*
X317580Y298017D01*
X317712Y297844D01*
X317866Y297666D01*
X318041Y297482D01*
X315941Y296242D01*
X315756Y296422D01*
X315254Y296863D01*
X315103Y296977D01*
X314828Y297154D01*
X314703Y297217D01*
X314587Y297264D01*
X314479Y297294D01*
X317263Y299078D01*
X317243Y298943D01*
D02*
G37*
G36*
X333083Y300068D02*
X333153Y299964D01*
X333272Y299872D01*
X333437Y299793D01*
X333649Y299726D01*
X333909Y299671D01*
X334216Y299628D01*
X334571Y299597D01*
X335421Y299572D01*
Y297210D01*
X334971Y297199D01*
X334567Y297163D01*
X334212Y297104D01*
X333903Y297021D01*
X333642Y296915D01*
X333428Y296785D01*
X333262Y296632D01*
X333143Y296454D01*
X333071Y296254D01*
X333047Y296029D01*
X333059Y300185D01*
X333083Y300068D01*
D02*
G37*
G36*
X472768Y298760D02*
X472797Y298549D01*
X472846Y298338D01*
X472917Y298129D01*
X473007Y297920D01*
X473119Y297711D01*
X473251Y297504D01*
X473404Y297297D01*
X473578Y297092D01*
X473772Y296886D01*
X472102Y295216D01*
X471897Y295410D01*
X471691Y295584D01*
X471484Y295737D01*
X471277Y295869D01*
X471069Y295981D01*
X470860Y296072D01*
X470650Y296142D01*
X470439Y296192D01*
X470228Y296220D01*
X470016Y296229D01*
X472760Y298972D01*
X472768Y298760D01*
D02*
G37*
G36*
X407740D02*
X407769Y298549D01*
X407819Y298338D01*
X407889Y298129D01*
X407980Y297920D01*
X408091Y297711D01*
X408224Y297504D01*
X408377Y297297D01*
X408550Y297092D01*
X408744Y296886D01*
X407074Y295216D01*
X406869Y295410D01*
X406663Y295584D01*
X406457Y295737D01*
X406249Y295869D01*
X406041Y295981D01*
X405832Y296072D01*
X405622Y296142D01*
X405412Y296192D01*
X405200Y296220D01*
X404988Y296229D01*
X407732Y298972D01*
X407740Y298760D01*
D02*
G37*
G36*
X298809Y296190D02*
X298704Y295977D01*
X298611Y295704D01*
X298530Y295372D01*
X298462Y294980D01*
X298363Y294017D01*
X298313Y292816D01*
X298307Y292126D01*
X294370D01*
X294364Y292816D01*
X294215Y294980D01*
X294147Y295372D01*
X294067Y295704D01*
X293974Y295977D01*
X293868Y296190D01*
X293751Y296344D01*
X298927D01*
X298809Y296190D01*
D02*
G37*
G36*
X262194Y295456D02*
X262113Y295338D01*
X262042Y295203D01*
X261981Y295051D01*
X261929Y294882D01*
X261887Y294695D01*
X261854Y294492D01*
X261830Y294272D01*
X261822Y294063D01*
X261823Y294026D01*
X261858Y293622D01*
X261917Y293267D01*
X262000Y292958D01*
X262106Y292697D01*
X262236Y292483D01*
X262390Y292317D01*
X262567Y292198D01*
X262768Y292126D01*
X262992Y292102D01*
X258477Y292114D01*
X258661Y292138D01*
X258827Y292209D01*
X258972Y292327D01*
X259099Y292492D01*
X259206Y292705D01*
X259293Y292964D01*
X259361Y293271D01*
X259410Y293626D01*
X259439Y294027D01*
X259440Y294081D01*
X259406Y294492D01*
X259373Y294695D01*
X259331Y294882D01*
X259279Y295051D01*
X259217Y295203D01*
X259146Y295338D01*
X259066Y295456D01*
X258976Y295557D01*
X262283D01*
X262194Y295456D01*
D02*
G37*
G36*
X258489Y287205D02*
X258465Y287429D01*
X258394Y287630D01*
X258275Y287807D01*
X258109Y287961D01*
X257895Y288090D01*
X257634Y288197D01*
X257325Y288280D01*
X256969Y288339D01*
X256890Y288346D01*
X256810Y288339D01*
X256454Y288280D01*
X256146Y288197D01*
X255885Y288090D01*
X255671Y287961D01*
X255505Y287807D01*
X255386Y287630D01*
X255315Y287429D01*
X255291Y287205D01*
Y291929D01*
X255315Y291705D01*
X255386Y291504D01*
X255505Y291327D01*
X255671Y291173D01*
X255885Y291043D01*
X256146Y290937D01*
X256454Y290854D01*
X256810Y290795D01*
X256890Y290788D01*
X256969Y290795D01*
X257325Y290854D01*
X257634Y290937D01*
X257895Y291043D01*
X258109Y291173D01*
X258275Y291327D01*
X258394Y291504D01*
X258465Y291705D01*
X258489Y291929D01*
Y287205D01*
D02*
G37*
G36*
X325006Y295500D02*
X325081Y294303D01*
X325578D01*
X325469Y294264D01*
X325370Y294146D01*
X325284Y293949D01*
X325208Y293673D01*
X325145Y293319D01*
X325144Y293311D01*
X325145Y293295D01*
X325208Y292941D01*
X325284Y292665D01*
X325370Y292468D01*
X325469Y292350D01*
X325578Y292311D01*
X325056D01*
X325023Y291784D01*
X325000Y290366D01*
X321063D01*
X321057Y291114D01*
X320982Y292311D01*
X320484D01*
X320594Y292350D01*
X320693Y292468D01*
X320779Y292665D01*
X320855Y292941D01*
X320918Y293295D01*
X320919Y293303D01*
X320918Y293319D01*
X320855Y293673D01*
X320779Y293949D01*
X320693Y294146D01*
X320594Y294264D01*
X320484Y294303D01*
X321007D01*
X321040Y294830D01*
X321063Y296248D01*
X325000D01*
X325006Y295500D01*
D02*
G37*
G36*
X312194Y291519D02*
X312113Y291401D01*
X312042Y291266D01*
X311981Y291114D01*
X311929Y290945D01*
X311887Y290758D01*
X311854Y290555D01*
X311830Y290335D01*
X311811Y289844D01*
X309449D01*
X309444Y290098D01*
X309406Y290555D01*
X309373Y290758D01*
X309331Y290945D01*
X309279Y291114D01*
X309217Y291266D01*
X309146Y291401D01*
X309066Y291519D01*
X308976Y291620D01*
X312283D01*
X312194Y291519D01*
D02*
G37*
G36*
X280539Y294047D02*
X280657Y294016D01*
X280854Y293988D01*
X281130Y293964D01*
X283019Y293905D01*
X284437Y293898D01*
Y289961D01*
X280500Y289776D01*
Y294082D01*
X280539Y294047D01*
D02*
G37*
G36*
X441558Y289536D02*
X440779Y289518D01*
X440082Y289466D01*
X439466Y289379D01*
X438933Y289257D01*
X438482Y289101D01*
X438113Y288909D01*
X437826Y288683D01*
X437621Y288422D01*
X437498Y288127D01*
X437457Y287796D01*
Y294248D01*
X437498Y294250D01*
X440779Y294260D01*
X441558Y294260D01*
Y289536D01*
D02*
G37*
G36*
X384685Y295845D02*
X384069Y295192D01*
X383556Y294569D01*
X383146Y293977D01*
X382839Y293415D01*
X382635Y292884D01*
X382535Y292383D01*
X382538Y291912D01*
X382644Y291472D01*
X382854Y291062D01*
X383166Y290682D01*
X379826Y287342D01*
X379246Y287874D01*
X378629Y288350D01*
X377973Y288770D01*
X377278Y289134D01*
X376544Y289442D01*
X375773Y289694D01*
X374963Y289890D01*
X374245Y290008D01*
X373772Y289929D01*
X373157Y289764D01*
X372638Y289551D01*
X372212Y289292D01*
X371882Y288984D01*
X371645Y288630D01*
X371504Y288229D01*
X371457Y287780D01*
Y292748D01*
X371504Y293150D01*
X371645Y293511D01*
X371882Y293828D01*
X372212Y294104D01*
X372301Y294152D01*
Y294866D01*
X373232Y294900D01*
X374136Y295000D01*
X375011Y295167D01*
X375859Y295401D01*
X376680Y295702D01*
X377472Y296069D01*
X378237Y296503D01*
X378975Y297004D01*
X379684Y297572D01*
X380366Y298207D01*
X384685Y295845D01*
D02*
G37*
G36*
X337896Y287196D02*
X337750Y287350D01*
X337588Y287487D01*
X337412Y287608D01*
X337220Y287713D01*
X337013Y287802D01*
X336791Y287875D01*
X336554Y287931D01*
X336301Y287972D01*
X336034Y287996D01*
X335751Y288004D01*
X335926Y290366D01*
X336208Y290373D01*
X336476Y290394D01*
X336732Y290429D01*
X336975Y290478D01*
X337204Y290542D01*
X337421Y290619D01*
X337624Y290710D01*
X337814Y290815D01*
X337991Y290934D01*
X338155Y291068D01*
X337896Y287196D01*
D02*
G37*
G36*
X497684Y296454D02*
X500617Y293882D01*
X500814Y293781D01*
X500956Y293748D01*
X497055Y287067D01*
X497243Y287512D01*
X497314Y288006D01*
X497269Y288551D01*
X497108Y289144D01*
X496831Y289788D01*
X496438Y290481D01*
X495928Y291223D01*
X495302Y292015D01*
X494561Y292857D01*
X493703Y293748D01*
X497044Y297089D01*
X497684Y296454D01*
D02*
G37*
G36*
X333071Y291323D02*
X333142Y291122D01*
X333260Y290945D01*
X333427Y290791D01*
X333640Y290661D01*
X333902Y290555D01*
X334210Y290472D01*
X334566Y290413D01*
X334970Y290378D01*
X335421Y290366D01*
Y288004D01*
X334970Y287992D01*
X334566Y287957D01*
X334210Y287898D01*
X333902Y287815D01*
X333640Y287709D01*
X333427Y287579D01*
X333260Y287425D01*
X333142Y287248D01*
X333071Y287047D01*
X333047Y286823D01*
Y291547D01*
X333071Y291323D01*
D02*
G37*
G36*
X433404Y296954D02*
X435112Y295451D01*
X435602Y295083D01*
X436052Y294782D01*
X436462Y294549D01*
X436833Y294382D01*
X437165Y294281D01*
X437457Y294248D01*
X433556Y286779D01*
X433728Y287240D01*
X433787Y287746D01*
X433733Y288299D01*
X433567Y288898D01*
X433288Y289543D01*
X432897Y290234D01*
X432392Y290971D01*
X431775Y291755D01*
X431045Y292585D01*
X430203Y293461D01*
X432756Y297589D01*
X433404Y296954D01*
D02*
G37*
G36*
X505681Y289036D02*
X504783Y289012D01*
X503980Y288941D01*
X503271Y288823D01*
X502657Y288658D01*
X502138Y288445D01*
X501712Y288185D01*
X501382Y287878D01*
X501146Y287524D01*
X501004Y287122D01*
X500956Y286673D01*
Y293748D01*
X505681Y293760D01*
Y289036D01*
D02*
G37*
G36*
X211442Y290440D02*
X211661Y290266D01*
X211879Y290122D01*
X212096Y290009D01*
X212312Y289927D01*
X212527Y289875D01*
X212742Y289854D01*
X212955Y289864D01*
X213167Y289904D01*
X213379Y289976D01*
X211747Y286177D01*
X211664Y286375D01*
X211567Y286574D01*
X211333Y286976D01*
X211196Y287179D01*
X210881Y287591D01*
X210704Y287799D01*
X210308Y288219D01*
X211222Y290645D01*
X211442Y290440D01*
D02*
G37*
G36*
X305894Y287188D02*
X305814Y287070D01*
X305743Y286935D01*
X305682Y286783D01*
X305630Y286614D01*
X305587Y286428D01*
X305554Y286225D01*
X305531Y286004D01*
X305512Y285513D01*
X303150D01*
X303145Y285767D01*
X303107Y286225D01*
X303074Y286428D01*
X303031Y286614D01*
X302979Y286783D01*
X302918Y286935D01*
X302847Y287070D01*
X302767Y287188D01*
X302677Y287289D01*
X305984D01*
X305894Y287188D01*
D02*
G37*
G36*
X472768Y288760D02*
X472797Y288549D01*
X472846Y288338D01*
X472917Y288128D01*
X473007Y287919D01*
X473119Y287711D01*
X473251Y287504D01*
X473404Y287297D01*
X473578Y287091D01*
X473772Y286886D01*
X472102Y285216D01*
X471897Y285410D01*
X471691Y285584D01*
X471484Y285737D01*
X471277Y285869D01*
X471069Y285981D01*
X470860Y286072D01*
X470650Y286142D01*
X470439Y286192D01*
X470228Y286220D01*
X470016Y286229D01*
X472760Y288972D01*
X472768Y288760D01*
D02*
G37*
G36*
X407740D02*
X407769Y288549D01*
X407819Y288338D01*
X407889Y288128D01*
X407980Y287919D01*
X408091Y287711D01*
X408224Y287504D01*
X408377Y287297D01*
X408550Y287091D01*
X408744Y286886D01*
X407074Y285216D01*
X406869Y285410D01*
X406663Y285584D01*
X406457Y285737D01*
X406249Y285869D01*
X406041Y285981D01*
X405832Y286072D01*
X405622Y286142D01*
X405412Y286192D01*
X405200Y286220D01*
X404988Y286229D01*
X407732Y288972D01*
X407740Y288760D01*
D02*
G37*
G36*
X281635Y289111D02*
X283361Y287608D01*
X283863Y287241D01*
X284327Y286940D01*
X284755Y286706D01*
X285145Y286539D01*
X285498Y286439D01*
X285815Y286405D01*
X281520Y282542D01*
X281708Y282775D01*
X281804Y283055D01*
X281808Y283383D01*
X281721Y283758D01*
X281543Y284180D01*
X281274Y284649D01*
X280913Y285165D01*
X280460Y285728D01*
X279281Y286996D01*
X280985Y289746D01*
X281635Y289111D01*
D02*
G37*
G36*
X325006Y287626D02*
X325081Y286429D01*
X325578D01*
X325469Y286390D01*
X325370Y286272D01*
X325284Y286075D01*
X325208Y285799D01*
X325145Y285445D01*
X325144Y285437D01*
X325145Y285421D01*
X325208Y285067D01*
X325284Y284791D01*
X325370Y284594D01*
X325469Y284476D01*
X325578Y284437D01*
X325056D01*
X325023Y283910D01*
X325000Y282492D01*
X321063D01*
X321057Y283240D01*
X320982Y284437D01*
X320484D01*
X320594Y284476D01*
X320693Y284594D01*
X320779Y284791D01*
X320855Y285067D01*
X320918Y285421D01*
X320919Y285429D01*
X320918Y285445D01*
X320855Y285799D01*
X320779Y286075D01*
X320693Y286272D01*
X320594Y286390D01*
X320484Y286429D01*
X321007D01*
X321040Y286957D01*
X321063Y288374D01*
X325000D01*
X325006Y287626D01*
D02*
G37*
G36*
X333071Y282059D02*
X333143Y281858D01*
X333262Y281681D01*
X333429Y281528D01*
X333642Y281398D01*
X333903Y281291D01*
X334212Y281209D01*
X334567Y281150D01*
X334971Y281114D01*
X335421Y281102D01*
Y278740D01*
X334972Y278738D01*
X333153Y278622D01*
X333083Y278590D01*
X333059Y278555D01*
X333047Y282283D01*
X333071Y282059D01*
D02*
G37*
G36*
X264383Y284295D02*
X264458Y283939D01*
X264584Y283566D01*
X264759Y283175D01*
X264984Y282768D01*
X265260Y282344D01*
X265586Y281903D01*
X266388Y280969D01*
X266864Y280476D01*
X266028Y277971D01*
X264358Y279540D01*
Y284634D01*
X264383Y284295D01*
D02*
G37*
G36*
X337488Y277828D02*
X337393Y278001D01*
X337276Y278156D01*
X337138Y278293D01*
X336979Y278412D01*
X336798Y278512D01*
X336596Y278594D01*
X336373Y278658D01*
X336129Y278704D01*
X335864Y278731D01*
X335578Y278740D01*
X336531Y281102D01*
X336817Y281106D01*
X337593Y281164D01*
X337824Y281199D01*
X338246Y281291D01*
X338437Y281349D01*
X338615Y281414D01*
X338778Y281488D01*
X337488Y277828D01*
D02*
G37*
G36*
X254500Y279516D02*
X254299Y279445D01*
X254122Y279327D01*
X253969Y279162D01*
X253839Y278949D01*
X253732Y278689D01*
X253650Y278382D01*
X253590Y278028D01*
X253555Y277626D01*
X253543Y277177D01*
X251181D01*
X251169Y277626D01*
X251134Y278028D01*
X251075Y278382D01*
X250992Y278689D01*
X250886Y278949D01*
X250756Y279162D01*
X250602Y279327D01*
X250425Y279445D01*
X250224Y279516D01*
X250000Y279540D01*
X254724D01*
X254500Y279516D01*
D02*
G37*
G36*
X342135Y280796D02*
X342305Y280667D01*
X342489Y280553D01*
X342687Y280454D01*
X342899Y280371D01*
X343125Y280303D01*
X343365Y280249D01*
X343619Y280211D01*
X343888Y280189D01*
X344170Y280181D01*
Y277819D01*
X343888Y277811D01*
X343619Y277788D01*
X343365Y277751D01*
X343125Y277697D01*
X342899Y277629D01*
X342687Y277546D01*
X342489Y277447D01*
X342305Y277333D01*
X342135Y277204D01*
X341979Y277060D01*
Y280940D01*
X342135Y280796D01*
D02*
G37*
G36*
X285630Y279713D02*
X285465Y279642D01*
X285319Y279524D01*
X285192Y279359D01*
X285086Y279146D01*
X284998Y278886D01*
X284930Y278579D01*
X284881Y278225D01*
X284852Y277823D01*
X284848Y277631D01*
X284854Y277393D01*
X284890Y276989D01*
X284949Y276634D01*
X285032Y276325D01*
X285138Y276064D01*
X285268Y275850D01*
X285421Y275684D01*
X285598Y275565D01*
X285799Y275493D01*
X286024Y275469D01*
X281340Y275481D01*
X281557Y275504D01*
X281751Y275575D01*
X281922Y275693D01*
X282070Y275859D01*
X282195Y276072D01*
X282298Y276331D01*
X282378Y276638D01*
X282435Y276993D01*
X282469Y277394D01*
X282475Y277627D01*
X282471Y277823D01*
X282393Y278579D01*
X282325Y278886D01*
X282237Y279146D01*
X282130Y279359D01*
X282004Y279524D01*
X281858Y279642D01*
X281693Y279713D01*
X281508Y279736D01*
X285815D01*
X285630Y279713D01*
D02*
G37*
G36*
X472768Y278760D02*
X472797Y278549D01*
X472846Y278338D01*
X472917Y278129D01*
X473007Y277920D01*
X473119Y277711D01*
X473251Y277504D01*
X473404Y277297D01*
X473578Y277092D01*
X473772Y276886D01*
X472102Y275216D01*
X471897Y275410D01*
X471691Y275584D01*
X471484Y275737D01*
X471277Y275869D01*
X471069Y275981D01*
X470860Y276072D01*
X470650Y276142D01*
X470439Y276191D01*
X470228Y276220D01*
X470016Y276229D01*
X472760Y278972D01*
X472768Y278760D01*
D02*
G37*
G36*
X404933Y276229D02*
X404721Y276220D01*
X404509Y276191D01*
X404299Y276142D01*
X404089Y276072D01*
X403880Y275981D01*
X403672Y275869D01*
X403465Y275737D01*
X403258Y275584D01*
X403052Y275410D01*
X402847Y275216D01*
X401177Y276886D01*
X401371Y277092D01*
X401545Y277297D01*
X401698Y277504D01*
X401830Y277711D01*
X401941Y277920D01*
X402032Y278129D01*
X402103Y278338D01*
X402152Y278549D01*
X402181Y278760D01*
X402189Y278972D01*
X404933Y276229D01*
D02*
G37*
G36*
X325006Y279752D02*
X325081Y278555D01*
X325578D01*
X325469Y278516D01*
X325370Y278398D01*
X325284Y278201D01*
X325208Y277925D01*
X325145Y277571D01*
X325144Y277563D01*
X325145Y277547D01*
X325208Y277193D01*
X325284Y276917D01*
X325370Y276720D01*
X325469Y276602D01*
X325578Y276563D01*
X325056D01*
X325023Y276036D01*
X325000Y274618D01*
X321063D01*
X321057Y275366D01*
X320982Y276563D01*
X320484D01*
X320594Y276602D01*
X320693Y276720D01*
X320779Y276917D01*
X320855Y277193D01*
X320918Y277547D01*
X320919Y277555D01*
X320918Y277571D01*
X320855Y277925D01*
X320779Y278201D01*
X320693Y278398D01*
X320594Y278516D01*
X320484Y278555D01*
X321007D01*
X321040Y279082D01*
X321063Y280500D01*
X325000D01*
X325006Y279752D01*
D02*
G37*
G36*
X333071Y274185D02*
X333143Y273984D01*
X333262Y273807D01*
X333429Y273654D01*
X333642Y273524D01*
X333903Y273417D01*
X334212Y273335D01*
X334567Y273276D01*
X334971Y273240D01*
X335421Y273228D01*
Y270866D01*
X334972Y270864D01*
X333153Y270748D01*
X333083Y270716D01*
X333059Y270681D01*
X333047Y274409D01*
X333071Y274185D01*
D02*
G37*
G36*
X338101Y272578D02*
X338513Y272235D01*
X338710Y272099D01*
X338902Y271985D01*
X339088Y271895D01*
X339268Y271827D01*
X339443Y271782D01*
X339612Y271761D01*
X339775Y271762D01*
X337238Y269225D01*
X337239Y269388D01*
X337218Y269557D01*
X337173Y269732D01*
X337105Y269912D01*
X337015Y270098D01*
X336901Y270290D01*
X336765Y270487D01*
X336605Y270690D01*
X336422Y270899D01*
X336216Y271114D01*
X337886Y272784D01*
X338101Y272578D01*
D02*
G37*
G36*
X364711Y272005D02*
X365061Y271709D01*
X365228Y271588D01*
X365390Y271487D01*
X365546Y271404D01*
X365697Y271340D01*
X365843Y271294D01*
X365983Y271268D01*
X366118Y271260D01*
X363780Y268921D01*
X363772Y269056D01*
X363745Y269197D01*
X363700Y269342D01*
X363635Y269493D01*
X363552Y269650D01*
X363451Y269811D01*
X363331Y269978D01*
X363192Y270150D01*
X362858Y270511D01*
X364528Y272182D01*
X364711Y272005D01*
D02*
G37*
G36*
X469960Y266229D02*
X469748Y266220D01*
X469537Y266192D01*
X469326Y266142D01*
X469117Y266072D01*
X468908Y265981D01*
X468700Y265869D01*
X468492Y265737D01*
X468286Y265584D01*
X468080Y265410D01*
X467875Y265216D01*
X466204Y266886D01*
X466399Y267091D01*
X466572Y267297D01*
X466725Y267504D01*
X466857Y267711D01*
X466969Y267919D01*
X467060Y268128D01*
X467130Y268338D01*
X467180Y268549D01*
X467209Y268760D01*
X467217Y268972D01*
X469960Y266229D01*
D02*
G37*
G36*
X342780Y268760D02*
X342809Y268549D01*
X342858Y268338D01*
X342928Y268128D01*
X343019Y267919D01*
X343131Y267711D01*
X343263Y267504D01*
X343416Y267297D01*
X343590Y267091D01*
X343784Y266886D01*
X342114Y265216D01*
X341909Y265410D01*
X341703Y265584D01*
X341496Y265737D01*
X341289Y265869D01*
X341080Y265981D01*
X340872Y266072D01*
X340662Y266142D01*
X340451Y266192D01*
X340240Y266220D01*
X340028Y266229D01*
X342771Y268972D01*
X342780Y268760D01*
D02*
G37*
G36*
X214045Y264327D02*
X213805Y264352D01*
X213568Y264351D01*
X213333Y264326D01*
X213101Y264275D01*
X212871Y264199D01*
X212644Y264097D01*
X212420Y263971D01*
X212198Y263819D01*
X211979Y263641D01*
X211763Y263439D01*
X210359Y265376D01*
X210560Y265588D01*
X210744Y265803D01*
X210910Y266021D01*
X211058Y266243D01*
X211188Y266467D01*
X211301Y266695D01*
X211396Y266927D01*
X211473Y267161D01*
X211532Y267400D01*
X211574Y267641D01*
X214045Y264327D01*
D02*
G37*
G36*
X257140Y265481D02*
Y262905D01*
X257120Y262948D01*
X257060Y262986D01*
X256960Y263020D01*
X256819Y263049D01*
X256638Y263074D01*
X256156Y263110D01*
X255131Y263131D01*
Y265493D01*
X257140Y265481D01*
D02*
G37*
G36*
X492186Y262709D02*
X492224Y262252D01*
X492257Y262049D01*
X492299Y261862D01*
X492351Y261693D01*
X492413Y261541D01*
X492484Y261406D01*
X492564Y261288D01*
X492654Y261187D01*
X489347D01*
X489436Y261288D01*
X489516Y261406D01*
X489587Y261541D01*
X489649Y261693D01*
X489701Y261862D01*
X489743Y262049D01*
X489776Y262252D01*
X489800Y262472D01*
X489819Y262963D01*
X492181D01*
X492186Y262709D01*
D02*
G37*
G36*
X356311Y264116D02*
X356343Y263979D01*
X356392Y263835D01*
X356460Y263686D01*
X356546Y263531D01*
X356650Y263371D01*
X356772Y263205D01*
X357071Y262855D01*
X357248Y262672D01*
X355659Y260921D01*
X355476Y261097D01*
X355125Y261391D01*
X354957Y261509D01*
X354795Y261608D01*
X354638Y261688D01*
X354485Y261749D01*
X354338Y261790D01*
X354196Y261811D01*
X354060Y261814D01*
X356298Y264248D01*
X356311Y264116D01*
D02*
G37*
G36*
X257140Y257905D02*
X257117Y257925D01*
X257046Y257943D01*
X256928Y257959D01*
X256550Y257985D01*
X254778Y258012D01*
Y260374D01*
X257140Y260481D01*
Y257905D01*
D02*
G37*
G36*
X289340Y260438D02*
X289411Y260400D01*
X289529Y260366D01*
X289694Y260336D01*
X289907Y260312D01*
X290474Y260275D01*
X291679Y260255D01*
Y257893D01*
X289316Y257905D01*
Y260481D01*
X289340Y260438D01*
D02*
G37*
G36*
X505787Y256334D02*
X500693D01*
X500728Y256382D01*
X500760Y256523D01*
X500787Y256760D01*
X500832Y257516D01*
X500878Y261059D01*
X505602D01*
X505787Y256334D01*
D02*
G37*
G36*
X493370Y259341D02*
X493397Y259201D01*
X493442Y259055D01*
X493506Y258904D01*
X493589Y258748D01*
X493691Y258587D01*
X493811Y258419D01*
X493950Y258247D01*
X494246Y257927D01*
X494608Y257579D01*
X495421Y256898D01*
X495792Y256644D01*
X496138Y256447D01*
X496460Y256308D01*
X496758Y256225D01*
X497031Y256200D01*
X497281Y256233D01*
X497506Y256322D01*
X493225Y253946D01*
X493400Y254086D01*
X493499Y254270D01*
X493521Y254496D01*
X493468Y254765D01*
X493337Y255078D01*
X493131Y255433D01*
X492848Y255832D01*
X492489Y256274D01*
X492181Y256604D01*
X492080Y256689D01*
X491914Y256809D01*
X491752Y256911D01*
X491596Y256994D01*
X491445Y257058D01*
X491299Y257103D01*
X491159Y257130D01*
X491024Y257138D01*
X493362Y259476D01*
X493370Y259341D01*
D02*
G37*
G36*
X266910Y253131D02*
X266569Y253129D01*
X265403Y253049D01*
X265278Y253020D01*
X265188Y252986D01*
X265134Y252948D01*
X265116Y252905D01*
Y255481D01*
X265134Y255483D01*
X265188Y255485D01*
X266910Y255493D01*
Y253131D01*
D02*
G37*
G36*
X257140Y252905D02*
X257117Y252925D01*
X257046Y252943D01*
X256928Y252959D01*
X256550Y252985D01*
X254778Y253012D01*
Y255374D01*
X257140Y255481D01*
Y252905D01*
D02*
G37*
G36*
X203788Y254419D02*
X203792Y254165D01*
X203829Y253707D01*
X203861Y253503D01*
X203902Y253317D01*
X203953Y253147D01*
X204012Y252994D01*
X204081Y252858D01*
X204159Y252740D01*
X204246Y252638D01*
X200940Y252704D01*
X201032Y252804D01*
X201115Y252921D01*
X201188Y253056D01*
X201251Y253207D01*
X201304Y253375D01*
X201348Y253561D01*
X201382Y253764D01*
X201406Y253983D01*
X201426Y254474D01*
X203788Y254419D01*
D02*
G37*
G36*
X289340Y255438D02*
X289411Y255400D01*
X289529Y255366D01*
X289694Y255336D01*
X289907Y255312D01*
X290474Y255275D01*
X291679Y255255D01*
Y253663D01*
X292875Y254859D01*
X293066Y254670D01*
X293790Y254038D01*
X293889Y253974D01*
X293972Y253930D01*
X294040Y253906D01*
X294093Y253904D01*
X292159Y251970D01*
X292157Y252023D01*
X292133Y252091D01*
X292089Y252174D01*
X292025Y252273D01*
X291940Y252387D01*
X291707Y252662D01*
X291486Y252894D01*
X289316Y252905D01*
Y255481D01*
X289340Y255438D01*
D02*
G37*
G36*
X422858Y256638D02*
X422929Y256236D01*
X423047Y255882D01*
X423213Y255575D01*
X423425Y255315D01*
X423685Y255102D01*
X423992Y254937D01*
X424346Y254819D01*
X424748Y254748D01*
X424885Y254741D01*
X425201Y254767D01*
X425404Y254800D01*
X425590Y254842D01*
X425759Y254894D01*
X425912Y254956D01*
X426047Y255027D01*
X426165Y255107D01*
X426266Y255197D01*
Y251890D01*
X426165Y251979D01*
X426047Y252060D01*
X425912Y252131D01*
X425759Y252192D01*
X425590Y252244D01*
X425404Y252287D01*
X425201Y252320D01*
X424981Y252343D01*
X424898Y252346D01*
X424748Y252339D01*
X424346Y252268D01*
X423992Y252150D01*
X423685Y251984D01*
X423425Y251772D01*
X423213Y251512D01*
X423047Y251205D01*
X422929Y250850D01*
X422858Y250449D01*
X422835Y250000D01*
X420472Y253543D01*
X422835Y257087D01*
X422858Y256638D01*
D02*
G37*
G36*
X301973Y250059D02*
X302011Y249602D01*
X302044Y249399D01*
X302087Y249213D01*
X302139Y249044D01*
X302200Y248892D01*
X302271Y248757D01*
X302351Y248639D01*
X302441Y248537D01*
X299134D01*
X299224Y248639D01*
X299304Y248757D01*
X299375Y248892D01*
X299436Y249044D01*
X299488Y249213D01*
X299531Y249399D01*
X299564Y249602D01*
X299587Y249822D01*
X299606Y250313D01*
X301969D01*
X301973Y250059D01*
D02*
G37*
G36*
X505689Y250453D02*
X505787D01*
X505752Y250406D01*
X505721Y250264D01*
X505702Y250108D01*
X505787Y247941D01*
X505631D01*
X505602Y245728D01*
X500878D01*
X500791Y247941D01*
X500693D01*
X500728Y247988D01*
X500760Y248130D01*
X500778Y248285D01*
X500693Y250453D01*
X500849D01*
X500878Y252665D01*
X505602D01*
X505689Y250453D01*
D02*
G37*
G36*
X255399Y246547D02*
X254872Y246004D01*
X254058Y245057D01*
X253770Y244653D01*
X253562Y244296D01*
X253434Y243985D01*
X253385Y243721D01*
X253416Y243503D01*
X253526Y243331D01*
X253716Y243206D01*
X249104Y245252D01*
X249344Y245177D01*
X249605Y245156D01*
X249887Y245189D01*
X250190Y245276D01*
X250514Y245417D01*
X250858Y245613D01*
X251224Y245862D01*
X251610Y246165D01*
X252017Y246523D01*
X252445Y246934D01*
X255399Y246547D01*
D02*
G37*
G36*
X214518Y244291D02*
X214270Y244278D01*
X214021Y244239D01*
X213773Y244175D01*
X213524Y244087D01*
X213275Y243974D01*
X213026Y243835D01*
X212777Y243673D01*
X212527Y243485D01*
X212278Y243272D01*
X212028Y243035D01*
X210358Y244705D01*
X210590Y244950D01*
X210797Y245195D01*
X210979Y245441D01*
X211135Y245686D01*
X211267Y245932D01*
X211373Y246179D01*
X211455Y246425D01*
X211511Y246672D01*
X211542Y246920D01*
X211548Y247167D01*
X214518Y244291D01*
D02*
G37*
G36*
X289340Y245461D02*
X289411Y245442D01*
X289529Y245426D01*
X289907Y245401D01*
X291679Y245374D01*
Y243012D01*
X289316Y242905D01*
Y245481D01*
X289340Y245461D01*
D02*
G37*
G36*
X429741Y245265D02*
X429859Y245184D01*
X429994Y245113D01*
X430146Y245052D01*
X430315Y245000D01*
X430501Y244957D01*
X430704Y244924D01*
X430925Y244901D01*
X431416Y244882D01*
Y242520D01*
X431162Y242515D01*
X430704Y242477D01*
X430501Y242444D01*
X430315Y242402D01*
X430146Y242350D01*
X429994Y242288D01*
X429859Y242217D01*
X429741Y242137D01*
X429640Y242047D01*
Y245354D01*
X429741Y245265D01*
D02*
G37*
G36*
X429517Y241913D02*
X429436Y241795D01*
X429365Y241659D01*
X429304Y241507D01*
X429252Y241338D01*
X429210Y241152D01*
X429176Y240949D01*
X429153Y240729D01*
X429134Y240238D01*
X426772D01*
X426767Y240492D01*
X426729Y240949D01*
X426696Y241152D01*
X426653Y241338D01*
X426602Y241507D01*
X426540Y241659D01*
X426469Y241795D01*
X426389Y241913D01*
X426299Y242014D01*
X429606D01*
X429517Y241913D01*
D02*
G37*
G36*
X289340Y240461D02*
X289411Y240442D01*
X289529Y240426D01*
X289907Y240401D01*
X291679Y240374D01*
Y238012D01*
X289316Y237905D01*
Y240481D01*
X289340Y240461D01*
D02*
G37*
G36*
X505685Y242059D02*
X505787D01*
X505752Y242012D01*
X505721Y241870D01*
X505699Y241688D01*
X505787Y239441D01*
X505630D01*
X505602Y237335D01*
X500878D01*
X500796Y239441D01*
X500693D01*
X500728Y239488D01*
X500760Y239630D01*
X500781Y239812D01*
X500693Y242059D01*
X500850D01*
X500878Y244165D01*
X505602D01*
X505685Y242059D01*
D02*
G37*
G36*
X262872Y237893D02*
X262672Y237822D01*
X262494Y237703D01*
X262341Y237537D01*
X262211Y237323D01*
X262105Y237062D01*
X262022Y236754D01*
X261963Y236397D01*
X261928Y235994D01*
X261916Y235543D01*
X259554D01*
X259542Y235994D01*
X259506Y236397D01*
X259447Y236754D01*
X259365Y237062D01*
X259258Y237323D01*
X259128Y237537D01*
X258975Y237703D01*
X258798Y237822D01*
X258597Y237893D01*
X258372Y237917D01*
X263097D01*
X262872Y237893D01*
D02*
G37*
G36*
X438197Y237637D02*
X438224Y237496D01*
X438269Y237351D01*
X438333Y237200D01*
X438416Y237043D01*
X438518Y236882D01*
X438638Y236715D01*
X438777Y236542D01*
X439111Y236182D01*
X437440Y234511D01*
X437257Y234688D01*
X436907Y234984D01*
X436740Y235104D01*
X436579Y235206D01*
X436422Y235289D01*
X436271Y235353D01*
X436126Y235398D01*
X435985Y235425D01*
X435850Y235433D01*
X438189Y237772D01*
X438197Y237637D01*
D02*
G37*
G36*
X214267Y234300D02*
X214023Y234308D01*
X213782Y234293D01*
X213544Y234254D01*
X213309Y234192D01*
X213077Y234106D01*
X212849Y233998D01*
X212624Y233866D01*
X212402Y233710D01*
X212184Y233532D01*
X211969Y233330D01*
X210424Y235126D01*
X210625Y235339D01*
X210807Y235555D01*
X210969Y235775D01*
X211111Y235999D01*
X211234Y236227D01*
X211337Y236458D01*
X211420Y236692D01*
X211484Y236930D01*
X211528Y237172D01*
X211552Y237418D01*
X214267Y234300D01*
D02*
G37*
G36*
X505834Y239331D02*
X505976Y239232D01*
X506212Y239146D01*
X506543Y239071D01*
X506968Y239007D01*
X508102Y238914D01*
X510512Y238862D01*
Y234138D01*
X509614Y234132D01*
X506543Y233929D01*
X506212Y233854D01*
X505976Y233768D01*
X505834Y233669D01*
X505787Y233559D01*
Y239441D01*
X505834Y239331D01*
D02*
G37*
G36*
X253741Y235996D02*
X253812Y235795D01*
X253931Y235618D01*
X254098Y235465D01*
X254312Y235335D01*
X254573Y235228D01*
X254881Y235146D01*
X255237Y235087D01*
X255640Y235051D01*
X256090Y235039D01*
Y233256D01*
X257528Y234693D01*
X258882Y233449D01*
X257102Y231669D01*
X257086Y231706D01*
X257047Y231764D01*
X256983Y231845D01*
X256645Y232218D01*
X256090Y232785D01*
Y232677D01*
X253728Y232689D01*
X253716Y236221D01*
X253741Y235996D01*
D02*
G37*
G36*
X496520Y233547D02*
X496319Y233475D01*
X496142Y233356D01*
X495988Y233189D01*
X495858Y232976D01*
X495752Y232715D01*
X495669Y232406D01*
X495610Y232050D01*
X495575Y231647D01*
X495563Y231197D01*
X493201D01*
X493213Y233559D01*
X496744Y233571D01*
X496520Y233547D01*
D02*
G37*
G36*
X260377Y233528D02*
X260433Y233515D01*
X260515Y233503D01*
X260760Y233484D01*
X261570Y233465D01*
X261839Y233465D01*
Y230315D01*
X260348Y230236D01*
Y233543D01*
X260377Y233528D01*
D02*
G37*
G36*
X282165Y224722D02*
X282066Y224779D01*
X281904Y224830D01*
X281679Y224874D01*
X281392Y224913D01*
X280628Y224972D01*
X278346Y225020D01*
Y227382D01*
X279011Y227385D01*
X281904Y227572D01*
X282066Y227623D01*
X282165Y227679D01*
Y224722D01*
D02*
G37*
G36*
X479022Y224331D02*
X478921Y224420D01*
X478802Y224501D01*
X478667Y224572D01*
X478515Y224633D01*
X478346Y224685D01*
X478160Y224728D01*
X477957Y224761D01*
X477737Y224784D01*
X477246Y224803D01*
Y227165D01*
X477500Y227170D01*
X477957Y227208D01*
X478160Y227241D01*
X478346Y227284D01*
X478515Y227335D01*
X478667Y227397D01*
X478802Y227468D01*
X478921Y227548D01*
X479022Y227638D01*
Y224331D01*
D02*
G37*
G36*
X253741Y228339D02*
X253812Y228138D01*
X253931Y227961D01*
X254098Y227807D01*
X254311Y227677D01*
X254572Y227571D01*
X254881Y227488D01*
X255237Y227429D01*
X255640Y227394D01*
X256090Y227382D01*
Y225020D01*
X255642Y225012D01*
X254886Y224948D01*
X254578Y224892D01*
X254319Y224821D01*
X254106Y224733D01*
X253941Y224630D01*
X253823Y224511D01*
X253752Y224376D01*
X253728Y224225D01*
X253716Y228563D01*
X253741Y228339D01*
D02*
G37*
G36*
X217461Y226968D02*
X217491Y226726D01*
X217542Y226486D01*
X217615Y226251D01*
X217709Y226019D01*
X217824Y225791D01*
X217961Y225566D01*
X218120Y225345D01*
X218300Y225127D01*
X218501Y224913D01*
X216831Y223243D01*
X216617Y223444D01*
X216400Y223624D01*
X216178Y223783D01*
X215953Y223920D01*
X215725Y224036D01*
X215493Y224130D01*
X215258Y224202D01*
X215019Y224254D01*
X214776Y224283D01*
X214529Y224291D01*
X217453Y227215D01*
X217461Y226968D01*
D02*
G37*
G36*
X274169Y224122D02*
X273994Y223939D01*
X273707Y223587D01*
X273596Y223420D01*
X273506Y223257D01*
X273437Y223100D01*
X273390Y222947D01*
X273364Y222800D01*
X273359Y222659D01*
X273376Y222522D01*
X270634Y224370D01*
X270746Y224398D01*
X270866Y224443D01*
X270995Y224505D01*
X271131Y224584D01*
X271276Y224680D01*
X271588Y224922D01*
X271756Y225068D01*
X272117Y225411D01*
X274169Y224122D01*
D02*
G37*
G36*
X330595Y222429D02*
X330209Y222035D01*
X329148Y220796D01*
X329004Y220570D01*
X328908Y220378D01*
X328861Y220219D01*
X328863Y220094D01*
X328913Y220003D01*
X326499Y222417D01*
X326591Y222367D01*
X326715Y222365D01*
X326874Y222412D01*
X327066Y222508D01*
X327292Y222652D01*
X327551Y222844D01*
X328171Y223375D01*
X328925Y224099D01*
X330595Y222429D01*
D02*
G37*
G36*
X365748Y221654D02*
Y218712D01*
X351969Y218712D01*
X351969Y223642D01*
X363760Y223642D01*
X365748Y221654D01*
D02*
G37*
G36*
X431468Y221451D02*
X431579Y221360D01*
X431709Y221281D01*
X431856Y221211D01*
X432021Y221153D01*
X432203Y221105D01*
X432404Y221068D01*
X432622Y221041D01*
X432858Y221025D01*
X433112Y221020D01*
X432832Y218657D01*
X432576Y218653D01*
X432116Y218622D01*
X431912Y218594D01*
X431724Y218559D01*
X431553Y218515D01*
X431399Y218464D01*
X431262Y218405D01*
X431141Y218337D01*
X431038Y218262D01*
X431374Y221552D01*
X431468Y221451D01*
D02*
G37*
G36*
X300209Y212402D02*
X300177Y212701D01*
X300083Y212968D01*
X299925Y213205D01*
X299705Y213409D01*
X299422Y213583D01*
X299075Y213724D01*
X298665Y213835D01*
X298568Y213851D01*
X298169Y213758D01*
X297823Y213635D01*
X297539Y213485D01*
X297319Y213307D01*
X297161Y213102D01*
X297067Y212870D01*
X297035Y212610D01*
Y218492D01*
X297067Y218232D01*
X297161Y218000D01*
X297319Y217795D01*
X297539Y217618D01*
X297823Y217467D01*
X298169Y217344D01*
X298579Y217249D01*
X298622Y217243D01*
X298665Y217249D01*
X299075Y217344D01*
X299422Y217467D01*
X299705Y217618D01*
X299925Y217795D01*
X300083Y218000D01*
X300177Y218232D01*
X300209Y218492D01*
Y212402D01*
D02*
G37*
G36*
X252925Y216733D02*
X252724Y216661D01*
X252547Y216543D01*
X252394Y216376D01*
X252264Y216163D01*
X252157Y215902D01*
X252076Y215598D01*
X252087Y215551D01*
X252139Y215382D01*
X252200Y215230D01*
X252271Y215095D01*
X252351Y214977D01*
X252441Y214876D01*
X251984D01*
X251980Y214833D01*
X251969Y214382D01*
X249606D01*
X249594Y214833D01*
X249591Y214876D01*
X249134D01*
X249224Y214977D01*
X249304Y215095D01*
X249375Y215230D01*
X249436Y215382D01*
X249488Y215551D01*
X249499Y215598D01*
X249417Y215902D01*
X249311Y216163D01*
X249181Y216376D01*
X249028Y216543D01*
X248850Y216661D01*
X248650Y216733D01*
X248425Y216756D01*
X253150D01*
X252925Y216733D01*
D02*
G37*
G36*
X319882Y217098D02*
X319953Y216898D01*
X320072Y216721D01*
X320238Y216567D01*
X320451Y216437D01*
X320713Y216331D01*
X321021Y216248D01*
X321377Y216189D01*
X321781Y216154D01*
X322232Y216142D01*
Y213779D01*
X321781Y213768D01*
X321377Y213732D01*
X321021Y213673D01*
X320713Y213591D01*
X320451Y213484D01*
X320238Y213354D01*
X320072Y213201D01*
X319953Y213024D01*
X319882Y212823D01*
X319858Y212598D01*
Y217323D01*
X319882Y217098D01*
D02*
G37*
G36*
X259445Y210034D02*
X259219Y210123D01*
X258969Y210155D01*
X258696Y210130D01*
X258398Y210048D01*
X258075Y209908D01*
X257729Y209711D01*
X257359Y209457D01*
X256965Y209146D01*
X256834Y209030D01*
X256732Y208905D01*
X256622Y208737D01*
X256534Y208575D01*
X256468Y208419D01*
X256424Y208267D01*
X256402Y208121D01*
X256402Y207981D01*
X256423Y207846D01*
X253613Y209589D01*
X253717Y209619D01*
X253831Y209667D01*
X253953Y209731D01*
X254084Y209812D01*
X254224Y209909D01*
X254532Y210154D01*
X254874Y210466D01*
X255059Y210647D01*
X255078Y210636D01*
X256262Y211790D01*
X259445Y210034D01*
D02*
G37*
G36*
X289295Y212579D02*
X289063Y212485D01*
X288858Y212327D01*
X288681Y212106D01*
X288530Y211823D01*
X288407Y211477D01*
X288312Y211067D01*
X288244Y210595D01*
X288232Y210439D01*
X288268Y209758D01*
X288196D01*
X288189Y209461D01*
X285039D01*
X285036Y209758D01*
X284961D01*
X284976Y209787D01*
X284989Y209842D01*
X285001Y209924D01*
X285020Y210169D01*
X285021Y210221D01*
X284895Y211823D01*
X284831Y212106D01*
X284756Y212327D01*
X284669Y212485D01*
X284571Y212579D01*
X284461Y212610D01*
X289555D01*
X289295Y212579D01*
D02*
G37*
G36*
X362992Y211417D02*
X362992Y208643D01*
X351969Y208661D01*
Y213779D01*
X360630D01*
X362992Y211417D01*
D02*
G37*
G36*
X327005Y207492D02*
X326772Y207633D01*
X326485Y207680D01*
X326145Y207634D01*
X325750Y207495D01*
X325302Y207263D01*
X324801Y206939D01*
X324245Y206521D01*
X323636Y206010D01*
X322256Y204708D01*
X319472Y207492D01*
X320001Y208036D01*
X321254Y209518D01*
X321560Y209961D01*
X321811Y210379D01*
X322006Y210772D01*
X322145Y211139D01*
X322228Y211482D01*
X322256Y211799D01*
X327005Y207492D01*
D02*
G37*
G36*
X328938Y210780D02*
X329009Y210579D01*
X329128Y210402D01*
X329295Y210248D01*
X329509Y210118D01*
X329770Y210012D01*
X330078Y209929D01*
X330434Y209870D01*
X330837Y209835D01*
X331287Y209823D01*
Y207461D01*
X328925Y207492D01*
X328913Y211004D01*
X328938Y210780D01*
D02*
G37*
G36*
X285394Y206048D02*
X285302Y206096D01*
X285191Y206138D01*
X285061Y206176D01*
X284913Y206209D01*
X284746Y206236D01*
X284357Y206277D01*
X283894Y206297D01*
X283634Y206299D01*
X282910Y208661D01*
X283164Y208667D01*
X283613Y208714D01*
X283808Y208756D01*
X283983Y208809D01*
X284139Y208873D01*
X284276Y208950D01*
X284392Y209038D01*
X284490Y209138D01*
X284567Y209250D01*
X285394Y206048D01*
D02*
G37*
G36*
X213623Y208536D02*
X213987Y208149D01*
X214389Y207808D01*
X214832Y207512D01*
X215313Y207262D01*
X215835Y207057D01*
X216395Y206898D01*
X216995Y206784D01*
X217635Y206716D01*
X218314Y206693D01*
Y201969D01*
X217635Y201946D01*
X216995Y201877D01*
X216395Y201764D01*
X215835Y201604D01*
X215313Y201400D01*
X214832Y201149D01*
X214389Y200853D01*
X213987Y200512D01*
X213623Y200125D01*
X213299Y199693D01*
Y208969D01*
X213623Y208536D01*
D02*
G37*
G36*
X246610Y203322D02*
X246778Y203195D01*
X246960Y203083D01*
X247156Y202986D01*
X247367Y202904D01*
X247591Y202836D01*
X247830Y202784D01*
X248083Y202747D01*
X248350Y202724D01*
X248632Y202716D01*
Y200354D01*
X248350Y200347D01*
X248083Y200324D01*
X247830Y200287D01*
X247591Y200235D01*
X247367Y200167D01*
X247156Y200085D01*
X246960Y199988D01*
X246778Y199876D01*
X246610Y199748D01*
X246456Y199606D01*
Y203465D01*
X246610Y203322D01*
D02*
G37*
G36*
X319882Y203150D02*
X319321Y203110D01*
X318819Y202992D01*
X318376Y202795D01*
X317992Y202520D01*
X317667Y202165D01*
X317402Y201732D01*
X317195Y201220D01*
X317047Y200630D01*
X316959Y199961D01*
X316929Y199213D01*
X312992D01*
X312961Y199961D01*
X312866Y200630D01*
X312709Y201220D01*
X312488Y201732D01*
X312205Y202165D01*
X311858Y202520D01*
X311449Y202795D01*
X310976Y202992D01*
X310441Y203110D01*
X309842Y203150D01*
X314961Y207087D01*
X319882Y203150D01*
D02*
G37*
G36*
X288668Y198804D02*
X288589Y198844D01*
X288435Y198880D01*
X288208Y198912D01*
X287532Y198963D01*
X284547Y199016D01*
Y201378D01*
X288668Y201590D01*
Y198804D01*
D02*
G37*
G36*
X273840Y200977D02*
X273940Y200418D01*
X274108Y199847D01*
X274341Y199262D01*
X274642Y198664D01*
X275009Y198054D01*
X275444Y197431D01*
X275945Y196795D01*
X277148Y195484D01*
X273649Y192301D01*
X272991Y192936D01*
X271731Y194005D01*
X271130Y194439D01*
X270548Y194807D01*
X269985Y195107D01*
X269442Y195341D01*
X268917Y195508D01*
X268412Y195608D01*
X267925Y195642D01*
X273807Y201523D01*
X273840Y200977D01*
D02*
G37*
G36*
X444523Y200339D02*
X444665Y199937D01*
X444901Y199583D01*
X445232Y199276D01*
X445657Y199016D01*
X446177Y198803D01*
X446791Y198638D01*
X447500Y198520D01*
X448303Y198449D01*
X449201Y198425D01*
Y193701D01*
X448303Y193677D01*
X447500Y193606D01*
X446791Y193488D01*
X446177Y193323D01*
X445657Y193110D01*
X445232Y192850D01*
X444901Y192543D01*
X444665Y192189D01*
X444523Y191787D01*
X444476Y191339D01*
Y200787D01*
X444523Y200339D01*
D02*
G37*
G36*
X440575Y191339D02*
X440528Y191787D01*
X440386Y192189D01*
X440149Y192543D01*
X439817Y192850D01*
X439391Y193110D01*
X438870Y193323D01*
X438254Y193488D01*
X437544Y193606D01*
X436739Y193677D01*
X435839Y193701D01*
Y198425D01*
X436739Y198449D01*
X437544Y198520D01*
X438254Y198638D01*
X438870Y198803D01*
X439391Y199016D01*
X439817Y199276D01*
X440149Y199583D01*
X440386Y199937D01*
X440528Y200339D01*
X440575Y200787D01*
Y191339D01*
D02*
G37*
G36*
X402120Y194252D02*
X401227Y193326D01*
X399815Y191647D01*
X399295Y190894D01*
X398900Y190200D01*
X398630Y189563D01*
X398484Y188985D01*
X398463Y188464D01*
X398566Y188001D01*
X398793Y187596D01*
X393924Y193912D01*
X394276Y194040D01*
X394655Y194220D01*
X395062Y194451D01*
X395498Y194734D01*
X396453Y195454D01*
X396973Y195892D01*
X398700Y197513D01*
X402120Y194252D01*
D02*
G37*
G36*
X486255Y196825D02*
X487921Y195384D01*
X488417Y195023D01*
X488884Y194722D01*
X489321Y194480D01*
X489728Y194298D01*
X490105Y194176D01*
X490453Y194113D01*
X486246Y186809D01*
X486432Y187256D01*
X486501Y187752D01*
X486455Y188297D01*
X486294Y188892D01*
X486016Y189535D01*
X485623Y190228D01*
X485114Y190970D01*
X484490Y191761D01*
X483750Y192601D01*
X482894Y193490D01*
X485640Y197425D01*
X486255Y196825D01*
D02*
G37*
G36*
X311882Y189610D02*
X307706Y185832D01*
X303824Y189714D01*
X304345Y189742D01*
X304869Y189825D01*
X305397Y189964D01*
X305929Y190159D01*
X306465Y190409D01*
X307004Y190715D01*
X307547Y191077D01*
X308094Y191494D01*
X308645Y191966D01*
X309199Y192495D01*
X311882Y189610D01*
D02*
G37*
G36*
X352277Y188307D02*
X351383Y187379D01*
X349986Y185716D01*
X349483Y184980D01*
X349111Y184309D01*
X348870Y183701D01*
X348759Y183158D01*
X348779Y182678D01*
X348930Y182263D01*
X349211Y181912D01*
X344552Y186205D01*
X344186Y186040D01*
X343997Y186030D01*
X343984Y186176D01*
X344148Y186478D01*
X344489Y186935D01*
X345006Y187547D01*
X347618Y190319D01*
X348843Y191553D01*
X352277Y188307D01*
D02*
G37*
G36*
X250573Y184279D02*
X249938Y183623D01*
X248869Y182382D01*
X248435Y181798D01*
X248067Y181237D01*
X247767Y180700D01*
X247533Y180187D01*
X247366Y179698D01*
X247266Y179233D01*
X247232Y178791D01*
X241744Y184279D01*
X242186Y184313D01*
X242651Y184413D01*
X243140Y184580D01*
X243653Y184814D01*
X244190Y185115D01*
X244750Y185482D01*
X245335Y185916D01*
X246576Y186985D01*
X247232Y187620D01*
X250573Y184279D01*
D02*
G37*
G36*
X241744Y178791D02*
X241697Y178827D01*
X241555Y178858D01*
X241319Y178886D01*
X240563Y178930D01*
X237020Y178976D01*
Y183701D01*
X237917Y183707D01*
X240988Y183909D01*
X241319Y183984D01*
X241555Y184071D01*
X241697Y184169D01*
X241744Y184279D01*
Y178791D01*
D02*
G37*
G36*
X470767Y180139D02*
X470432Y180077D01*
X470065Y179955D01*
X469667Y179773D01*
X469238Y179531D01*
X468777Y179229D01*
X468285Y178866D01*
X467206Y177960D01*
X466001Y176813D01*
X463208Y180700D01*
X464065Y181591D01*
X465431Y183223D01*
X465940Y183966D01*
X466334Y184658D01*
X466611Y185302D01*
X466772Y185896D01*
X466818Y186441D01*
X466747Y186936D01*
X466560Y187382D01*
X470767Y180139D01*
D02*
G37*
G36*
X358827Y184772D02*
X358972Y184374D01*
X359223Y184022D01*
X359579Y183718D01*
X360040Y183460D01*
X360608Y183249D01*
X361281Y183085D01*
X362060Y182968D01*
X362944Y182897D01*
X363934Y182874D01*
Y178150D01*
X362916Y178126D01*
X362004Y178056D01*
X361197Y177939D01*
X360496Y177775D01*
X359901Y177564D01*
X359412Y177307D01*
X359028Y177002D01*
X358750Y176651D01*
X358577Y176253D01*
X358511Y175808D01*
X358788Y185217D01*
X358827Y184772D01*
D02*
G37*
G36*
X223348Y188650D02*
X223981Y187611D01*
X224654Y186695D01*
X225367Y185901D01*
X226119Y185228D01*
X226910Y184678D01*
X227741Y184251D01*
X228612Y183945D01*
X229522Y183762D01*
X230471Y183701D01*
X228772Y178976D01*
X228098Y178936D01*
X227325Y178817D01*
X226453Y178617D01*
X225482Y178337D01*
X223242Y177538D01*
X220605Y176420D01*
X217572Y174982D01*
X222754Y189811D01*
X223348Y188650D01*
D02*
G37*
G36*
X444523Y181638D02*
X444665Y181236D01*
X444901Y180882D01*
X445232Y180575D01*
X445657Y180315D01*
X446177Y180102D01*
X446791Y179937D01*
X447500Y179819D01*
X448303Y179748D01*
X449201Y179724D01*
Y175000D01*
X448303Y174976D01*
X447500Y174906D01*
X446791Y174787D01*
X446177Y174622D01*
X445657Y174409D01*
X445232Y174150D01*
X444901Y173843D01*
X444665Y173488D01*
X444523Y173087D01*
X444476Y172638D01*
Y182087D01*
X444523Y181638D01*
D02*
G37*
G36*
X440563Y171862D02*
X440516Y172151D01*
X440374Y172410D01*
X440138Y172638D01*
X439807Y172836D01*
X439382Y173003D01*
X438862Y173140D01*
X438248Y173246D01*
X437540Y173322D01*
X435839Y173383D01*
Y178108D01*
X436738Y178131D01*
X437543Y178202D01*
X438253Y178320D01*
X438869Y178485D01*
X439389Y178698D01*
X439816Y178958D01*
X440147Y179265D01*
X440385Y179619D01*
X440527Y180021D01*
X440575Y180470D01*
X440563Y171862D01*
D02*
G37*
D40*
X321331Y232480D02*
D03*
X329331D02*
D03*
D41*
X278346Y211201D02*
D03*
Y216201D02*
D03*
Y221201D02*
D03*
Y226201D02*
D03*
X259842Y211201D02*
D03*
Y216201D02*
D03*
Y221201D02*
D03*
Y226201D02*
D03*
X355709Y208642D02*
D03*
Y213642D02*
D03*
Y218642D02*
D03*
Y223642D02*
D03*
X337205Y208642D02*
D03*
Y213642D02*
D03*
Y218642D02*
D03*
Y223642D02*
D03*
D42*
X287008Y215551D02*
D03*
X294488D02*
D03*
X323031Y273622D02*
D03*
X330512D02*
D03*
Y305118D02*
D03*
X323031D02*
D03*
X503240Y236500D02*
D03*
X495760D02*
D03*
Y253394D02*
D03*
X503240D02*
D03*
X323031Y289370D02*
D03*
X330512D02*
D03*
X495760Y245000D02*
D03*
X503240D02*
D03*
X323031Y281496D02*
D03*
X330512D02*
D03*
Y297244D02*
D03*
X323031D02*
D03*
D43*
X316929Y214961D02*
D03*
X303150D02*
D03*
D44*
X283661Y283071D02*
D03*
X273031D02*
D03*
D45*
X277165Y302559D02*
D03*
Y291929D02*
D03*
X325590Y220276D02*
D03*
Y209646D02*
D03*
D46*
X250787Y242717D02*
D03*
Y235236D02*
D03*
X252362Y282087D02*
D03*
Y289567D02*
D03*
X261417D02*
D03*
Y282087D02*
D03*
X250787Y226772D02*
D03*
Y219291D02*
D03*
D47*
X435500Y288748D02*
D03*
Y307252D02*
D03*
X369500Y305752D02*
D03*
Y287248D02*
D03*
X499000Y288248D02*
D03*
Y306752D02*
D03*
X442520Y195866D02*
D03*
Y177362D02*
D03*
D48*
X285328Y239193D02*
D03*
X261128D02*
D03*
X285328Y244193D02*
D03*
Y249193D02*
D03*
X261128Y244193D02*
D03*
Y249193D02*
D03*
X285328Y254193D02*
D03*
X261128D02*
D03*
X285328Y259193D02*
D03*
X261128D02*
D03*
X285328Y264193D02*
D03*
Y269193D02*
D03*
X261128Y264193D02*
D03*
Y269193D02*
D03*
X285328Y274193D02*
D03*
X261128D02*
D03*
D49*
X320669Y224016D02*
Y231819D01*
X321331Y232480D01*
X320669Y224016D02*
X324410Y220276D01*
X290945Y227953D02*
X309828D01*
X314106Y232231D01*
X321081D01*
X321331Y232480D01*
X287992Y230906D02*
X290945Y227953D01*
X269685Y230906D02*
X287992D01*
X268701Y231890D02*
X269685Y230906D01*
X258661Y231890D02*
X268701D01*
X286614Y208071D02*
Y215158D01*
X309842Y205118D02*
Y222638D01*
X278937Y289567D02*
X283071Y285433D01*
X278937Y289567D02*
Y291339D01*
X278346Y291929D02*
X278937Y291339D01*
X277165Y291929D02*
X278346D01*
X283071Y283661D02*
Y285433D01*
Y283661D02*
X283661Y283071D01*
X294488Y215551D02*
X302559D01*
D50*
X329331Y232480D02*
X335397D01*
X342926Y224952D01*
Y221804D02*
Y224952D01*
X337205Y218642D02*
X339764D01*
X342926Y221804D01*
X286024Y207480D02*
X286614Y208071D01*
X272441Y207480D02*
X286024D01*
X263720Y216201D02*
X272441Y207480D01*
X202607Y255953D02*
X214199Y267545D01*
X202607Y250984D02*
Y255953D01*
X355709Y223642D02*
X364154D01*
X367126Y220669D01*
X404961Y309000D02*
X421654Y292307D01*
Y253543D02*
Y292307D01*
X249951Y213189D02*
X250787Y214025D01*
X253583Y207500D02*
X257283Y211201D01*
X286614Y215158D02*
X287008Y215551D01*
X256693Y233858D02*
X258661Y231890D01*
X252165Y233858D02*
X256693D01*
X275454Y234665D02*
X292339D01*
X266045Y244074D02*
X275454Y234665D01*
X292339D02*
X294465Y232539D01*
X308290D02*
X321003Y245253D01*
X294465Y232539D02*
X308290D01*
X274577Y226201D02*
X278346D01*
X271062Y222686D02*
X274577Y226201D01*
X271062Y222047D02*
Y222686D01*
X278346Y226201D02*
X283465D01*
X313976Y224016D02*
X314764Y224803D01*
X281250Y200197D02*
X290059D01*
X325590Y220276D02*
X326772D01*
X324410D02*
X325590D01*
X304331Y270108D02*
Y288976D01*
X310630Y269933D02*
Y293307D01*
Y269933D02*
X316673Y263890D01*
X304331Y270108D02*
X312342Y262097D01*
X260630Y290354D02*
Y297244D01*
Y290354D02*
X261417Y289567D01*
X261772Y201535D02*
X264370Y204134D01*
X277313D02*
X281250Y200197D01*
X264370Y204134D02*
X277313D01*
X232699Y307283D02*
X245669Y294314D01*
X215354Y307283D02*
X232699D01*
X208268Y300197D02*
X215354Y307283D01*
X214500Y296734D02*
X220719Y302953D01*
X228677D02*
X241079Y290551D01*
X220719Y302953D02*
X228677D01*
X244488Y201535D02*
X261772D01*
X253799Y207283D02*
X254129D01*
X253583Y207500D02*
X253799Y207283D01*
X226969Y221063D02*
X231890Y225984D01*
X220681Y221063D02*
X226969D01*
X214500Y227244D02*
X220681Y221063D01*
X240748Y222244D02*
Y235163D01*
X231102Y212598D02*
X240748Y222244D01*
X212992Y212598D02*
X231102D01*
X208398Y231429D02*
X214356Y237388D01*
X236221Y223622D02*
Y238779D01*
X229134Y216535D02*
X236221Y223622D01*
X214764Y216535D02*
X229134D01*
X204067Y221524D02*
X212992Y212598D01*
X204067Y221524D02*
Y236744D01*
X208398Y222902D02*
X214764Y216535D01*
X208398Y222902D02*
Y231429D01*
X204067Y236744D02*
X212565Y245242D01*
X231890Y225984D02*
Y241535D01*
X208268Y291929D02*
X213189Y287008D01*
X208268Y291929D02*
Y300197D01*
X250787Y214025D02*
Y219291D01*
X249951Y213189D02*
X250787D01*
X302559Y215551D02*
X303150Y214961D01*
X316929D02*
X330315D01*
X331634Y213642D01*
X337205D01*
X242323Y215748D02*
X244685Y218110D01*
Y223228D01*
X246850Y225394D01*
X249409D01*
X250787Y226772D01*
X251181Y219291D02*
X251969Y220079D01*
X254528D01*
X255650Y221201D01*
X259842D01*
X250787Y226772D02*
X251358Y226201D01*
X259842D01*
X250787Y219291D02*
X251181D01*
X240748Y235163D02*
X246924Y241339D01*
X236221Y238779D02*
X251634Y254193D01*
X231890Y241535D02*
X249547Y259193D01*
X261128D01*
X251634Y254193D02*
X261128D01*
X259842Y216201D02*
X263720D01*
X257283Y211201D02*
X259842D01*
X382677Y245276D02*
Y246323D01*
X267323Y278346D02*
X269291Y276378D01*
Y256693D02*
Y276378D01*
X266910Y254312D02*
X269291Y256693D01*
X261417Y282087D02*
X263583D01*
X267323Y278346D01*
X241079Y278363D02*
Y290551D01*
X306496Y236870D02*
X316673Y247047D01*
Y263890D01*
X321003Y245253D02*
Y265684D01*
X359980Y213642D02*
X361530Y212092D01*
X355709Y213642D02*
X359980D01*
X355709Y208642D02*
X361831D01*
X388953Y239000D02*
X390000D01*
X447638Y225984D02*
X480709D01*
X435827Y237795D02*
X447638Y225984D01*
X483224Y219839D02*
X494382Y230996D01*
X429768Y219839D02*
X483224D01*
X429528Y220079D02*
X429768Y219839D01*
X494382Y230996D02*
Y234728D01*
X495760Y236106D01*
Y236500D01*
X336953Y272047D02*
X340000Y269000D01*
X348819Y260181D01*
X383960Y224417D02*
X404876D01*
X415212Y234754D01*
Y288748D01*
X404961Y299000D02*
X415212Y288748D01*
X385754Y228748D02*
X403083D01*
X410882Y236547D01*
Y283079D01*
X404961Y289000D02*
X410882Y283079D01*
X354331Y255512D02*
X354783Y255060D01*
X357066D01*
X366929Y245196D01*
X348819Y246587D02*
X379650Y215756D01*
X348819Y246587D02*
Y260181D01*
X353640Y281399D02*
X366142Y268898D01*
X353640Y281399D02*
Y295360D01*
X340000Y309000D02*
X353640Y295360D01*
X330512Y305118D02*
Y305315D01*
X332677Y307480D02*
X338480D01*
X330512Y305315D02*
X332677Y307480D01*
X421654Y234471D02*
Y253543D01*
X427953D01*
Y243701D02*
X440158D01*
X427953Y234646D02*
Y243701D01*
X407269Y220087D02*
X421654Y234471D01*
X330512Y296063D02*
X331102Y296654D01*
X462598Y236921D02*
Y261610D01*
X458354Y232677D02*
X462598Y236921D01*
Y261610D02*
X469988Y269000D01*
X451181Y232677D02*
X458354D01*
X250787Y235236D02*
X252165Y233858D01*
X260735Y233889D02*
Y239074D01*
X397638Y271677D02*
X404961Y279000D01*
X397638Y236614D02*
Y271677D01*
X394103Y233079D02*
X397638Y236614D01*
X387547Y233079D02*
X394103D01*
X354077Y264173D02*
X371260Y246990D01*
X353937Y264173D02*
X354077D01*
X340000Y279000D02*
X346948D01*
X371260Y243242D02*
Y246990D01*
X366929Y241448D02*
X383960Y224417D01*
X371260Y243242D02*
X385754Y228748D01*
X366929Y241448D02*
Y245196D01*
X346948Y279000D02*
X375590Y250358D01*
Y245036D02*
Y250358D01*
Y245036D02*
X387547Y233079D01*
X360630Y240900D02*
Y243701D01*
Y240900D02*
X381444Y220087D01*
X379650Y215756D02*
X409063D01*
X381444Y220087D02*
X407269D01*
X250787Y242717D02*
Y243606D01*
X339079Y279921D02*
X340000Y279000D01*
X296259Y236870D02*
X306496D01*
X298053Y241201D02*
X304702D01*
X312342Y248840D02*
Y262097D01*
X314961Y298892D02*
Y299606D01*
Y298892D02*
X317323Y296530D01*
Y269365D02*
Y296530D01*
Y269365D02*
X321003Y265684D01*
X304702Y241201D02*
X312342Y248840D01*
X331693Y272047D02*
X336953D01*
X330512Y273228D02*
X331693Y272047D01*
X332087Y279921D02*
X339079D01*
X330512Y281496D02*
X332087Y279921D01*
X338480Y307480D02*
X340000Y309000D01*
X440158Y243701D02*
X451181Y232677D01*
X409063Y215756D02*
X427953Y234646D01*
X261247Y254312D02*
X266910D01*
X261128Y254193D02*
X261247Y254312D01*
X291989Y254074D02*
X294488Y251575D01*
X285447Y254074D02*
X291989D01*
X285328Y254193D02*
X285447Y254074D01*
X280455Y249074D02*
X285209D01*
X277224Y245842D02*
X280455Y249074D01*
X295650Y259074D02*
X300787Y253937D01*
Y246850D02*
Y253937D01*
X295060Y244193D02*
X298053Y241201D01*
X285328Y244193D02*
X295060D01*
X293936Y239193D02*
X296259Y236870D01*
X285328Y239193D02*
X293936D01*
X276772Y242520D02*
X277224Y242972D01*
X285209Y249074D02*
X285328Y249193D01*
X285447Y259074D02*
X295650D01*
X283661Y274312D02*
Y283071D01*
X277224Y242972D02*
Y245842D01*
X283661Y274312D02*
X283780Y274193D01*
X285328D01*
X261247Y244074D02*
X266045D01*
X261010Y264312D02*
X261128Y264193D01*
X255131Y264312D02*
X261010D01*
X241079Y278363D02*
X255131Y264312D01*
X261128Y244193D02*
X261247Y244074D01*
X261010Y249074D02*
X261128Y249193D01*
X256255Y249074D02*
X261010D01*
X250787Y243606D02*
X256255Y249074D01*
X260735Y239074D02*
X260854Y239193D01*
X261128D01*
X252362Y273205D02*
Y282087D01*
Y273205D02*
X256255Y269312D01*
X261010D01*
X261128Y269193D01*
X285328Y259193D02*
X285447Y259074D01*
X245669Y283538D02*
Y294314D01*
X248499Y280709D02*
X251378D01*
X245669Y283538D02*
X248499Y280709D01*
X252362Y289567D02*
X261417D01*
X325590Y209646D02*
X326594Y208642D01*
X366712Y218681D02*
Y219685D01*
X366673Y218642D02*
X366712Y218681D01*
X355709Y218642D02*
X366673D01*
X330138Y223642D02*
X337205D01*
X326772Y220276D02*
X330138Y223642D01*
X326594Y208642D02*
X337205D01*
X246924Y241339D02*
X249409D01*
X250787Y242717D01*
X330512Y273228D02*
Y273622D01*
X339815Y289185D02*
X340000Y289000D01*
X330697Y289185D02*
X339815D01*
X330512Y289370D02*
X330697Y289185D01*
X338531Y298391D02*
X339139Y299000D01*
X331659Y298391D02*
X338531D01*
X330512Y297244D02*
X331659Y298391D01*
X495760Y253394D02*
Y254740D01*
X491000Y259500D02*
X495760Y254740D01*
Y253000D02*
Y253394D01*
X469988Y299000D02*
X491000Y277988D01*
Y259500D02*
Y277988D01*
X469988Y289000D02*
X485082Y273906D01*
Y253711D02*
Y273906D01*
X469988Y279000D02*
X480752Y268236D01*
X492022Y246772D02*
X494382D01*
X485082Y253711D02*
X492022Y246772D01*
X397500Y325000D02*
X456500D01*
X457000Y324500D01*
X480752Y249957D02*
X492437Y238272D01*
X480752Y249957D02*
Y268236D01*
X492437Y238272D02*
X494382D01*
X495760Y236500D02*
Y236894D01*
X339139Y299000D02*
X340000D01*
X336500Y325000D02*
X397500D01*
X494382Y246772D02*
X495760Y245394D01*
Y245000D02*
Y245394D01*
X494382Y238272D02*
X495760Y236894D01*
D51*
X442520Y196063D02*
X454331D01*
X428740D02*
X442520D01*
X489961Y186811D02*
Y189764D01*
X423977Y200826D02*
X428740Y196063D01*
X405353Y200826D02*
X423977D01*
X395275Y190748D02*
X405353Y200826D01*
X476378Y325984D02*
X494882Y307480D01*
X466535Y325984D02*
X476378D01*
X460433Y332087D02*
X466535Y325984D01*
X366496Y292504D02*
X378004D01*
X270787Y198504D02*
X291339Y177953D01*
X244488Y181535D02*
X251477Y188524D01*
X244291Y181339D02*
X244488Y181535D01*
X237063Y191535D02*
X244488D01*
X224267Y204331D02*
X237063Y191535D01*
X209646Y204331D02*
X224267D01*
X221306Y181339D02*
X244291D01*
X251477Y188524D02*
X258997D01*
X259223Y188750D01*
X210945Y277244D02*
X214500D01*
X202165Y286024D02*
X210945Y277244D01*
X202165Y286024D02*
Y302756D01*
X213189Y313779D01*
X222244D01*
X346417Y317126D02*
X354685Y308858D01*
X329625Y317126D02*
X346417D01*
X321260Y325491D02*
X329625Y317126D01*
X378004Y292504D02*
X381496Y289012D01*
Y247504D02*
Y289012D01*
X382677Y246323D02*
X390000Y239000D01*
X381496Y247504D02*
X382677Y246323D01*
X441558Y291898D02*
X444685Y288771D01*
Y249276D02*
X454961Y239000D01*
X444685Y249276D02*
Y288771D01*
X519767Y239000D02*
X519988D01*
X517267Y236500D02*
X519767Y239000D01*
X503240Y236500D02*
X517267D01*
X503240D02*
Y245000D01*
Y253394D01*
Y265657D01*
X499000Y269898D02*
X503240Y265657D01*
X499000Y269898D02*
Y288248D01*
X454331Y196063D02*
X459449Y201181D01*
X368701Y175745D02*
X442126D01*
X356417Y180512D02*
X363934D01*
X356221Y180709D02*
X356417Y180512D01*
X363934D02*
X368701Y175745D01*
X478543Y201181D02*
X489961Y189764D01*
X459449Y201181D02*
X478543D01*
X395275Y187126D02*
Y190748D01*
X368295Y200209D02*
Y203752D01*
X361417Y210630D02*
X368295Y203752D01*
Y200209D02*
X368898Y199606D01*
X377165Y195669D02*
Y209232D01*
X372835Y191339D02*
X377165Y195669D01*
X351969Y191339D02*
X372835D01*
X333746Y341732D02*
X344478Y331000D01*
X310766Y341732D02*
X333746D01*
X301574Y332541D02*
X310766Y341732D01*
X455000Y298500D02*
Y298961D01*
X454961Y299000D02*
X455000Y298961D01*
X441558Y291898D02*
X441898D01*
X435894D02*
X441558D01*
X378004Y292504D02*
X384343Y298843D01*
X389843D01*
X390000Y299000D01*
X369500Y331000D02*
X392811D01*
X344478D02*
X369500D01*
X291339Y177953D02*
X318110D01*
X354685Y308858D02*
X355315D01*
X321260Y325491D02*
Y329016D01*
X301574D02*
Y332541D01*
X499000Y306752D02*
X499394Y307146D01*
Y307343D01*
X346220Y185591D02*
X351969Y191339D01*
X346220Y180709D02*
Y185591D01*
X366712Y219685D02*
X377165Y209232D01*
X470078Y184230D02*
Y187126D01*
X463210Y177362D02*
X470078Y184230D01*
X442520Y177362D02*
X463210D01*
X442126Y175745D02*
X442520Y176139D01*
Y177362D01*
X318110Y177953D02*
X325197Y185039D01*
X354774Y339726D02*
X355000Y339500D01*
X355315Y308858D02*
X364551Y318095D01*
X355000Y308543D02*
X355315Y308858D01*
X364551Y318095D02*
X408909D01*
X355000Y304000D02*
Y308543D01*
X499394Y291398D02*
X507898D01*
X473122Y317669D02*
X499394Y291398D01*
X507898D02*
X515343Y298843D01*
X442520Y195866D02*
Y196063D01*
X515343Y298843D02*
X519832D01*
X519988Y299000D01*
X499394Y307343D02*
X511024D01*
X512524Y308843D01*
X519832D01*
X519988Y309000D01*
X449213Y299213D02*
X454287D01*
X441898Y291898D02*
X449213Y299213D01*
X436802Y309252D02*
X454248D01*
X435500Y307950D02*
X436802Y309252D01*
X426169Y317669D02*
X473122D01*
X494882Y307480D02*
X498606D01*
X453740Y332087D02*
X460433D01*
X452362Y330709D02*
X453740Y332087D01*
X424016Y330709D02*
X452362D01*
X400000Y332677D02*
X401968Y330709D01*
X424016D01*
X394488Y332677D02*
X400000D01*
X392811Y331000D02*
X394488Y332677D01*
X417752Y309252D02*
X435500Y291504D01*
X408909Y318095D02*
X417752Y309252D01*
X426169Y317669D01*
X363500Y307000D02*
X369094D01*
X355000Y304000D02*
X366496Y292504D01*
X369894Y308843D02*
X389843D01*
X390000Y309000D01*
X435500Y307950D02*
Y309054D01*
X435106Y309447D02*
X435500Y309054D01*
X429193Y309500D02*
X429246Y309447D01*
X435106D01*
X435500Y291504D02*
X435894Y291898D01*
X435500Y288748D02*
Y291504D01*
X499000Y288248D02*
Y291004D01*
D52*
X309842Y205118D02*
X314961D01*
X294980D02*
X309842D01*
X290059Y200197D02*
X294980Y205118D01*
X319882D02*
X324410Y209646D01*
X314961Y205118D02*
X319882D01*
X314961Y195472D02*
Y205118D01*
X306614Y187126D02*
X314961Y195472D01*
X305118Y187126D02*
X306614D01*
X324410Y209646D02*
X325590D01*
X309842Y222638D02*
X312385D01*
X288583D02*
X309842D01*
X283465Y226201D02*
X285020D01*
X288583Y222638D01*
X312385D02*
X314551Y224803D01*
X314764D01*
X278346Y291929D02*
X296142D01*
X296339Y292126D02*
Y297638D01*
Y266260D02*
Y292126D01*
X296142Y291929D02*
X296339Y292126D01*
Y266260D02*
X306692Y255906D01*
Y251181D02*
Y255906D01*
X212598Y185039D02*
X217606D01*
X221306Y181339D01*
X323031Y273622D02*
Y281496D01*
Y289370D01*
Y297244D01*
Y305118D01*
X323012Y305138D02*
X323031Y305118D01*
X291339Y305138D02*
X323012D01*
X281319D02*
X291339D01*
X278937Y302756D02*
X281319Y305138D01*
X277362Y302756D02*
X278937D01*
X277165Y302559D02*
X277362Y302756D01*
X270078Y248031D02*
X275984Y253937D01*
Y279387D01*
X273678Y281693D02*
X275984Y279387D01*
X273228Y281693D02*
X273678D01*
X273031Y281890D02*
X273228Y281693D01*
X273031Y281890D02*
Y283071D01*
X266292Y298865D02*
X268110Y297047D01*
X270416Y284449D02*
X272835D01*
X268110Y286755D02*
Y297047D01*
Y286755D02*
X270416Y284449D01*
X272835D02*
X273031Y284252D01*
Y283071D02*
Y284252D01*
X266292Y298865D02*
Y302211D01*
X266142Y302362D02*
X266292Y302211D01*
X266142Y302362D02*
X266240Y302461D01*
X277067D01*
X277165Y302559D01*
D53*
X205709Y204331D02*
D03*
D54*
X244488Y201535D02*
D03*
Y191535D02*
D03*
D55*
Y181535D02*
D03*
D56*
X233976Y338189D02*
D03*
Y328189D02*
D03*
X243976D02*
D03*
Y338189D02*
D03*
X253976Y328189D02*
D03*
Y338189D02*
D03*
X263976Y328189D02*
D03*
Y338189D02*
D03*
X273976Y328189D02*
D03*
Y338189D02*
D03*
X283976Y328189D02*
D03*
X259223Y188750D02*
D03*
X270866Y178583D02*
D03*
Y188583D02*
D03*
X483500Y339500D02*
D03*
X473500D02*
D03*
X463500D02*
D03*
X409370D02*
D03*
X419370D02*
D03*
X429370D02*
D03*
X375000D02*
D03*
X365000D02*
D03*
X355000D02*
D03*
X224500Y297244D02*
D03*
X214500Y287244D02*
D03*
X224500D02*
D03*
X214500Y277244D02*
D03*
X224500D02*
D03*
X214500Y267244D02*
D03*
X224500D02*
D03*
X214500Y257244D02*
D03*
X224500D02*
D03*
X214500Y247244D02*
D03*
X224500D02*
D03*
X214500Y237244D02*
D03*
X224500D02*
D03*
X214500Y227244D02*
D03*
X224500D02*
D03*
D57*
X283976Y338189D02*
D03*
X493500Y339500D02*
D03*
X439370D02*
D03*
X385000D02*
D03*
D58*
X296339Y297638D02*
D03*
X291339Y305138D02*
D03*
X286339Y297638D02*
D03*
D59*
X305118Y187126D02*
D03*
X297618Y192126D02*
D03*
X305118Y197126D02*
D03*
D60*
X336221Y180709D02*
D03*
X346220D02*
D03*
X356221D02*
D03*
D61*
X395275Y187126D02*
D03*
X414961D02*
D03*
X489764D02*
D03*
X470078D02*
D03*
X321260Y329016D02*
D03*
X301574D02*
D03*
D62*
X259223Y178750D02*
D03*
X270866Y198583D02*
D03*
X214500Y297244D02*
D03*
D63*
X519988Y269000D02*
D03*
Y259000D02*
D03*
Y279000D02*
D03*
Y289000D02*
D03*
X469988Y239000D02*
D03*
X519988D02*
D03*
Y299000D02*
D03*
X469988D02*
D03*
Y289000D02*
D03*
Y279000D02*
D03*
Y269000D02*
D03*
Y259000D02*
D03*
Y249000D02*
D03*
X519988D02*
D03*
Y309000D02*
D03*
X454961D02*
D03*
Y249000D02*
D03*
X404961D02*
D03*
Y259000D02*
D03*
Y269000D02*
D03*
Y279000D02*
D03*
Y289000D02*
D03*
Y299000D02*
D03*
X454961D02*
D03*
Y239000D02*
D03*
X404961D02*
D03*
X454961Y289000D02*
D03*
Y279000D02*
D03*
Y259000D02*
D03*
Y269000D02*
D03*
X390000D02*
D03*
Y259000D02*
D03*
Y279000D02*
D03*
Y289000D02*
D03*
X340000Y239000D02*
D03*
X390000D02*
D03*
Y299000D02*
D03*
X340000D02*
D03*
Y289000D02*
D03*
Y279000D02*
D03*
Y269000D02*
D03*
Y259000D02*
D03*
Y249000D02*
D03*
X390000D02*
D03*
Y309000D02*
D03*
D64*
X469988D02*
D03*
X404961D02*
D03*
X340000D02*
D03*
D65*
X327716Y199606D02*
D03*
D66*
X368898D02*
D03*
D67*
X515748Y330709D02*
D03*
Y185039D02*
D03*
X212598D02*
D03*
Y330709D02*
D03*
D68*
X202559Y250984D02*
D03*
X254129Y207283D02*
D03*
X242323Y215748D02*
D03*
X222244Y313779D02*
D03*
X250787Y213189D02*
D03*
X286614Y208071D02*
D03*
X271062Y222047D02*
D03*
X314764Y224803D02*
D03*
X480709Y225984D02*
D03*
X366142Y268898D02*
D03*
X427953Y243701D02*
D03*
X435827Y237795D02*
D03*
X427953Y253543D02*
D03*
X354331Y255512D02*
D03*
X353937Y264173D02*
D03*
X360630Y243701D02*
D03*
X266142Y302362D02*
D03*
X294488Y251575D02*
D03*
X300787Y246850D02*
D03*
X304331Y288976D02*
D03*
X276772Y242520D02*
D03*
X306692Y251181D02*
D03*
X310630Y293307D02*
D03*
X314961Y299606D02*
D03*
X258661Y231890D02*
D03*
X270078Y248031D02*
D03*
X260630Y297244D02*
D03*
X429528Y220079D02*
D03*
X325197Y185039D02*
D03*
X491000Y259500D02*
D03*
X424016Y330709D02*
D03*
X457000Y324500D02*
D03*
X336500Y325000D02*
D03*
X397500D02*
D03*
X369500Y331000D02*
D03*
X363500Y307000D02*
D03*
X429193Y309500D02*
D03*
M02*
