M48
;Layer_Color=9474304
;FILE_FORMAT=2:4
INCH,TZ
;TYPE=PLATED
T1F00S00C0.0236
T2F00S00C0.0354
T3F00S00C0.0394
T4F00S00C0.0472
T5F00S00C0.1260
%
T01
X48071Y22598
X49100Y25950
X42795Y25354
Y24370
X43583Y23780
X42953Y22008
X42919Y30950
X36350Y30700
X36614Y26890
X35394Y26417
X35433Y25551
X36063Y24370
X31476Y22480
X32520Y18504
X31496Y29961
X31063Y29331
X30433Y28898
X30669Y25118
X30079Y24685
X29449Y25157
X27677Y24252
X27008Y24803
X27106Y22205
X25866Y23189
X25079Y21319
X25413Y20728
X24232Y21575
X20965Y20433
X20256Y25098
X26063Y29724
X26614Y30236
X28661Y20807
X22224Y31378
X33650Y32500
X36950Y33100
X39750Y32500
X42402Y33071
X45700Y32450
T02
X46999Y23900
Y24900
Y25900
Y26900
Y27900
Y28900
Y29900
Y30900
X51999
Y29900
Y28900
Y27900
Y26900
Y25900
Y24900
Y23900
X45496
Y24900
Y25900
Y26900
Y27900
Y28900
Y29900
Y30900
X40496
Y29900
Y28900
Y27900
Y26900
Y25900
Y24900
Y23900
X39000
Y24900
Y25900
Y26900
Y27900
Y28900
Y29900
Y30900
X34000
Y29900
Y28900
Y27900
Y26900
Y25900
Y24900
Y23900
X30512Y19713
Y18713
X29762Y19213
X27087Y18858
Y17858
X25922Y17875
Y18875
X24449Y19154
Y20154
Y18154
X27087Y19858
X22450Y22724
Y23724
Y24724
Y25724
Y26724
Y27724
Y28724
Y29724
X21450
Y28724
Y27724
Y26724
Y25724
Y24724
Y23724
Y22724
X28634Y29764
X29634
X29134Y30514
X28398Y32819
X27398
X26398
X25398
X24398
X23398
Y33819
X24398
X25398
X26398
X27398
X28398
X35500Y33950
X36500
X37500
X38500
X40937
X41937
X42937
X43937
X46350
X47350
X48350
X49350
T03
X33622Y18071
X34622
X35622
T04
X47008Y18713
X48976
X41496
X39528
X36890Y19961
X32772
X30157Y32902
X32126
T05
X51575Y18504
X21260
Y33071
X51575
M30
